G75*
G70*
%OFA0B0*%
%FSLAX24Y24*%
%IPPOS*%
%LPD*%
%AMOC8*
5,1,8,0,0,1.08239X$1,22.5*
%
%ADD10R,0.1600X0.0600*%
%ADD11C,0.0440*%
%ADD12OC8,0.0600*%
%ADD13C,0.0660*%
%ADD14C,0.0600*%
%ADD15OC8,0.0660*%
%ADD16OC8,0.0520*%
%ADD17R,0.0394X0.1181*%
%ADD18C,0.0860*%
%ADD19OC8,0.0700*%
%ADD20C,0.0560*%
%ADD21C,0.0866*%
%ADD22C,0.0669*%
%ADD23OC8,0.1000*%
%ADD24R,0.0787X0.0787*%
%ADD25C,0.0180*%
%ADD26C,0.0396*%
%ADD27C,0.0160*%
D10*
X042632Y007572D03*
X042632Y008572D03*
X042632Y009572D03*
D11*
X024132Y011102D02*
X024132Y011542D01*
X022132Y011542D02*
X022132Y011102D01*
D12*
X030257Y007072D03*
X031257Y007072D03*
X032257Y007072D03*
X033257Y007072D03*
X034257Y007072D03*
X034257Y006072D03*
X033257Y006072D03*
X032257Y006072D03*
X031257Y006072D03*
X030257Y006072D03*
D13*
X025257Y009072D03*
X025257Y010072D03*
X015436Y007716D03*
X015436Y012924D03*
X002044Y012924D03*
X002044Y007716D03*
D14*
X035257Y023822D03*
X035257Y024822D03*
X035257Y025822D03*
D15*
X042507Y025572D03*
X042507Y024572D03*
X042507Y023572D03*
X042507Y026572D03*
D16*
X019382Y010447D03*
X019382Y007447D03*
X020257Y007447D03*
X019382Y006072D03*
X020257Y005447D03*
X016382Y006072D03*
X015507Y005822D03*
X012507Y005822D03*
D17*
X034411Y021840D03*
X034411Y024005D03*
X034411Y026170D03*
D18*
X020452Y010323D03*
X016318Y007170D03*
D19*
X019507Y020947D03*
X019507Y021947D03*
X019507Y022947D03*
X019507Y023947D03*
X019507Y024947D03*
X019507Y025947D03*
D20*
X035507Y021572D03*
X035507Y020572D03*
X035507Y019572D03*
X035507Y018572D03*
X035507Y017572D03*
X035507Y016572D03*
X035507Y015572D03*
X035507Y014572D03*
X035507Y013572D03*
X035507Y012572D03*
X035507Y011572D03*
X035507Y010572D03*
D21*
X041523Y020069D03*
X041523Y022825D03*
D22*
X042507Y022432D03*
X042507Y020463D03*
D23*
X039862Y021947D03*
X036902Y021947D03*
D24*
X000974Y004415D03*
X000974Y027643D03*
X043100Y027643D03*
X043100Y004415D03*
D25*
X040007Y008572D02*
X032382Y008572D01*
X032007Y009072D02*
X033757Y009072D01*
X031239Y009572D02*
X039007Y009572D01*
X039382Y009947D02*
X039382Y013697D01*
X040007Y013697D02*
X040007Y009447D01*
X040507Y008947D02*
X040507Y012197D01*
X037132Y013072D02*
X029882Y013072D01*
X029757Y014072D02*
X037132Y014072D01*
X036444Y012072D02*
X028507Y012072D01*
X028882Y011072D02*
X034882Y011072D01*
X034132Y011572D02*
X030382Y011572D01*
X031257Y012572D02*
X020882Y012572D01*
X021382Y013072D02*
X028507Y013072D01*
X027234Y013550D02*
X031007Y013550D01*
X031007Y014572D02*
X031007Y015947D01*
X029632Y014697D02*
X025882Y014697D01*
X021382Y015947D02*
X020382Y015947D01*
X020382Y015322D02*
X020382Y011572D01*
X019507Y013197D02*
X019507Y014572D01*
X027007Y008697D02*
X028007Y008697D01*
X030007Y008197D02*
X031007Y008197D01*
X028007Y005697D02*
X025132Y005697D01*
X015507Y006572D02*
X014257Y006572D01*
X009547Y008413D02*
X009547Y013350D01*
X020757Y022197D02*
X020757Y025447D01*
X020132Y024947D02*
X020132Y023197D01*
X021507Y023947D02*
X021507Y026572D01*
X028507Y026447D02*
X033757Y026447D01*
X033757Y024197D02*
X032132Y024197D01*
X032507Y022822D02*
X035507Y022822D01*
X036632Y020072D02*
X031199Y020072D01*
X031632Y019072D02*
X031632Y014572D01*
X033382Y014822D02*
X033382Y019572D01*
X034007Y018947D02*
X034007Y014697D01*
X040632Y023822D02*
X040632Y026197D01*
D26*
X040632Y026197D03*
X040632Y023822D03*
X035507Y022822D03*
X033757Y024197D03*
X032132Y024197D03*
X032507Y022822D03*
X031199Y020072D03*
X031632Y019072D03*
X033382Y019572D03*
X034007Y018947D03*
X036632Y020072D03*
X041632Y018697D03*
X037132Y014072D03*
X037132Y013072D03*
X036444Y012072D03*
X034882Y011072D03*
X034132Y011572D03*
X031257Y012572D03*
X031007Y013550D03*
X029882Y013072D03*
X029757Y014072D03*
X029632Y014697D03*
X031007Y014572D03*
X031632Y014572D03*
X033382Y014822D03*
X034007Y014697D03*
X031007Y015947D03*
X027234Y013550D03*
X028507Y013072D03*
X028507Y012072D03*
X028882Y011072D03*
X030382Y011572D03*
X031239Y009572D03*
X032007Y009072D03*
X032382Y008572D03*
X031007Y008197D03*
X030007Y008197D03*
X028007Y008697D03*
X027007Y008697D03*
X028007Y005697D03*
X025132Y005697D03*
X033757Y009072D03*
X039007Y009572D03*
X039382Y009947D03*
X040007Y009447D03*
X040507Y008947D03*
X040007Y008572D03*
X040507Y012197D03*
X040007Y013697D03*
X039382Y013697D03*
X041632Y013697D03*
X025882Y014697D03*
X021382Y015947D03*
X020382Y015947D03*
X020382Y015322D03*
X019507Y014572D03*
X019507Y013197D03*
X020882Y012572D03*
X021382Y013072D03*
X020382Y011572D03*
X015507Y006572D03*
X014257Y006572D03*
X009547Y008413D03*
X009547Y013350D03*
X020757Y022197D03*
X020132Y023197D03*
X021507Y023947D03*
X020132Y024947D03*
X020757Y025447D03*
X021507Y026572D03*
X028507Y026447D03*
X033757Y026447D03*
D27*
X034392Y026152D02*
X034429Y026152D01*
X034429Y026189D01*
X034787Y026189D01*
X034787Y026679D01*
X040268Y026679D01*
X040125Y026536D01*
X040034Y026316D01*
X040034Y026078D01*
X040125Y025858D01*
X040142Y025841D01*
X040142Y024178D01*
X040125Y024161D01*
X040034Y023941D01*
X040034Y023703D01*
X040125Y023483D01*
X040293Y023315D01*
X040513Y023224D01*
X040751Y023224D01*
X040793Y023242D01*
X040690Y022991D01*
X040690Y022660D01*
X040816Y022353D01*
X041051Y022119D01*
X041357Y021992D01*
X041688Y021992D01*
X041864Y022065D01*
X041884Y022015D01*
X042091Y021809D01*
X042361Y021697D01*
X042653Y021697D01*
X042912Y021804D01*
X042912Y021090D01*
X042653Y021198D01*
X042361Y021198D01*
X042091Y021086D01*
X041884Y020879D01*
X041864Y020830D01*
X041688Y020902D01*
X041357Y020902D01*
X041051Y020776D01*
X040816Y020541D01*
X040690Y020235D01*
X040690Y019904D01*
X040816Y019597D01*
X041051Y019363D01*
X041357Y019236D01*
X041688Y019236D01*
X041994Y019363D01*
X042229Y019597D01*
X042294Y019756D01*
X042361Y019728D01*
X042653Y019728D01*
X042912Y019836D01*
X042912Y010052D01*
X042702Y010052D01*
X042702Y009642D01*
X042562Y009642D01*
X042562Y009502D01*
X041652Y009502D01*
X041652Y009249D01*
X041656Y009232D01*
X041605Y009211D01*
X041493Y009099D01*
X041432Y008952D01*
X041432Y008193D01*
X041493Y008046D01*
X041605Y007933D01*
X041656Y007912D01*
X041652Y007896D01*
X041652Y007642D01*
X042562Y007642D01*
X042562Y007502D01*
X042702Y007502D01*
X042702Y007092D01*
X042912Y007092D01*
X042912Y005367D01*
X028517Y005367D01*
X028605Y005578D01*
X028605Y005816D01*
X028514Y006036D01*
X028346Y006204D01*
X028126Y006295D01*
X027888Y006295D01*
X027668Y006204D01*
X027651Y006187D01*
X025488Y006187D01*
X025471Y006204D01*
X025251Y006295D01*
X025013Y006295D01*
X024793Y006204D01*
X024625Y006036D01*
X024534Y005816D01*
X024534Y005578D01*
X024621Y005367D01*
X020697Y005367D01*
X020697Y005447D01*
X020257Y005447D01*
X020257Y005447D01*
X020697Y005447D01*
X020697Y005630D01*
X020439Y005887D01*
X020257Y005887D01*
X020257Y005447D01*
X019817Y005447D01*
X019817Y005367D01*
X012985Y005367D01*
X013167Y005549D01*
X013167Y006096D01*
X012780Y006482D01*
X012233Y006482D01*
X011847Y006096D01*
X011847Y005549D01*
X012029Y005367D01*
X001139Y005367D01*
X001139Y006947D01*
X013786Y006947D01*
X013750Y006911D01*
X013659Y006691D01*
X013659Y006453D01*
X013750Y006233D01*
X013918Y006065D01*
X014138Y005974D01*
X014376Y005974D01*
X014596Y006065D01*
X014613Y006082D01*
X015145Y006082D01*
X015067Y006005D01*
X015067Y005822D01*
X015067Y005640D01*
X015325Y005382D01*
X015507Y005382D01*
X015689Y005382D01*
X015914Y005607D01*
X016108Y005412D01*
X016655Y005412D01*
X017042Y005799D01*
X017042Y006346D01*
X016855Y006533D01*
X017021Y006700D01*
X017124Y006947D01*
X018257Y006947D01*
X018257Y013697D01*
X010046Y013697D01*
X009886Y013857D01*
X009821Y013884D01*
X019017Y013884D01*
X019017Y013553D01*
X019000Y013536D01*
X018909Y013316D01*
X018909Y013078D01*
X019000Y012858D01*
X019168Y012690D01*
X019388Y012599D01*
X019626Y012599D01*
X019846Y012690D01*
X019892Y012736D01*
X019892Y011928D01*
X019875Y011911D01*
X019784Y011691D01*
X019784Y011453D01*
X019875Y011233D01*
X020043Y011065D01*
X020059Y011059D01*
X019982Y011027D01*
X019859Y010904D01*
X019655Y011107D01*
X019108Y011107D01*
X018722Y010721D01*
X018722Y010174D01*
X019108Y009787D01*
X019655Y009787D01*
X019740Y009872D01*
X019748Y009853D01*
X019982Y009620D01*
X020287Y009493D01*
X020617Y009493D01*
X020922Y009620D01*
X021155Y009853D01*
X021282Y010158D01*
X021282Y010488D01*
X021155Y010793D01*
X020922Y011027D01*
X020752Y011097D01*
X020889Y011233D01*
X020980Y011453D01*
X020980Y011691D01*
X020889Y011911D01*
X020872Y011928D01*
X020872Y011974D01*
X021001Y011974D01*
X021221Y012065D01*
X021238Y012082D01*
X021815Y012082D01*
X021781Y012068D01*
X021606Y011893D01*
X021512Y011666D01*
X021512Y010979D01*
X021606Y010751D01*
X021781Y010577D01*
X022008Y010482D01*
X022255Y010482D01*
X022483Y010577D01*
X022657Y010751D01*
X022752Y010979D01*
X022752Y011666D01*
X022657Y011893D01*
X022483Y012068D01*
X022448Y012082D01*
X023815Y012082D01*
X023781Y012068D01*
X023606Y011893D01*
X023512Y011666D01*
X023512Y010979D01*
X023606Y010751D01*
X023781Y010577D01*
X024008Y010482D01*
X024255Y010482D01*
X024483Y010577D01*
X024657Y010751D01*
X024752Y010979D01*
X024752Y011666D01*
X024657Y011893D01*
X024483Y012068D01*
X024448Y012082D01*
X027909Y012082D01*
X027909Y011953D01*
X028000Y011733D01*
X028168Y011565D01*
X028388Y011474D01*
X028438Y011474D01*
X028375Y011411D01*
X028284Y011191D01*
X028284Y010953D01*
X028375Y010733D01*
X028543Y010565D01*
X028763Y010474D01*
X029001Y010474D01*
X029221Y010565D01*
X029238Y010582D01*
X034526Y010582D01*
X034543Y010565D01*
X034763Y010474D01*
X035001Y010474D01*
X035053Y010496D01*
X035058Y010465D01*
X035081Y010396D01*
X035113Y010331D01*
X035156Y010273D01*
X035207Y010221D01*
X035266Y010179D01*
X035330Y010146D01*
X035399Y010124D01*
X035471Y010112D01*
X035507Y010112D01*
X035543Y010112D01*
X035615Y010124D01*
X035683Y010146D01*
X035748Y010179D01*
X035806Y010221D01*
X035858Y010273D01*
X035900Y010331D01*
X035933Y010396D01*
X035955Y010465D01*
X035967Y010536D01*
X035967Y010572D01*
X035507Y010572D01*
X035507Y010112D01*
X035507Y010572D01*
X035507Y010572D01*
X035507Y010572D01*
X035967Y010572D01*
X035967Y010608D01*
X035955Y010680D01*
X035933Y010749D01*
X035900Y010813D01*
X035858Y010872D01*
X035806Y010923D01*
X035774Y010947D01*
X035892Y010996D01*
X036083Y011187D01*
X036187Y011437D01*
X036187Y011531D01*
X036325Y011474D01*
X036563Y011474D01*
X036783Y011565D01*
X036951Y011733D01*
X037042Y011953D01*
X037042Y012191D01*
X036951Y012411D01*
X036799Y012563D01*
X037013Y012474D01*
X037251Y012474D01*
X037471Y012565D01*
X037639Y012733D01*
X037730Y012953D01*
X037730Y013191D01*
X037639Y013411D01*
X037478Y013572D01*
X037639Y013733D01*
X037730Y013953D01*
X037730Y014191D01*
X037639Y014411D01*
X037471Y014579D01*
X037251Y014670D01*
X037013Y014670D01*
X036793Y014579D01*
X036776Y014562D01*
X036187Y014562D01*
X036187Y014708D01*
X036083Y014957D01*
X035968Y015072D01*
X036083Y015187D01*
X036187Y015437D01*
X036187Y015708D01*
X036083Y015957D01*
X035968Y016072D01*
X036083Y016187D01*
X036187Y016437D01*
X036187Y016708D01*
X036083Y016957D01*
X035968Y017072D01*
X036083Y017187D01*
X036187Y017437D01*
X036187Y017708D01*
X036083Y017957D01*
X035968Y018072D01*
X036083Y018187D01*
X036187Y018437D01*
X036187Y018708D01*
X036083Y018957D01*
X035968Y019072D01*
X036083Y019187D01*
X036187Y019437D01*
X036187Y019582D01*
X036276Y019582D01*
X036293Y019565D01*
X036513Y019474D01*
X036751Y019474D01*
X036971Y019565D01*
X037139Y019733D01*
X037230Y019953D01*
X037230Y020191D01*
X037139Y020411D01*
X036971Y020579D01*
X036751Y020670D01*
X036513Y020670D01*
X036293Y020579D01*
X036276Y020562D01*
X036187Y020562D01*
X036187Y020708D01*
X036083Y020957D01*
X035968Y021072D01*
X036083Y021187D01*
X036173Y021403D01*
X036529Y021047D01*
X037275Y021047D01*
X037802Y021574D01*
X037802Y022320D01*
X037275Y022847D01*
X036529Y022847D01*
X036002Y022320D01*
X036002Y022039D01*
X035892Y022149D01*
X035668Y022242D01*
X035846Y022315D01*
X036014Y022483D01*
X036105Y022703D01*
X036105Y022941D01*
X036014Y023161D01*
X035846Y023329D01*
X035781Y023356D01*
X035850Y023426D01*
X035957Y023683D01*
X035957Y023961D01*
X035850Y024219D01*
X035747Y024322D01*
X035850Y024426D01*
X035957Y024683D01*
X035957Y024961D01*
X035850Y025219D01*
X035653Y025416D01*
X035564Y025452D01*
X035570Y025456D01*
X035623Y025510D01*
X035667Y025571D01*
X035702Y025638D01*
X035725Y025710D01*
X035737Y025784D01*
X035737Y025802D01*
X035277Y025802D01*
X035277Y025842D01*
X035737Y025842D01*
X035737Y025860D01*
X035725Y025935D01*
X035702Y026007D01*
X035667Y026074D01*
X035623Y026135D01*
X035570Y026188D01*
X035508Y026233D01*
X035441Y026267D01*
X035369Y026290D01*
X035295Y026302D01*
X035277Y026302D01*
X035277Y025842D01*
X035237Y025842D01*
X035237Y026302D01*
X035219Y026302D01*
X035144Y026290D01*
X035073Y026267D01*
X035005Y026233D01*
X034944Y026188D01*
X034891Y026135D01*
X034846Y026074D01*
X034812Y026007D01*
X034789Y025935D01*
X034787Y025927D01*
X034787Y026152D01*
X034429Y026152D01*
X034429Y025400D01*
X034631Y025400D01*
X034677Y025412D01*
X034718Y025436D01*
X034751Y025469D01*
X034775Y025510D01*
X034787Y025556D01*
X034787Y025717D01*
X034789Y025710D01*
X034812Y025638D01*
X034846Y025571D01*
X034891Y025510D01*
X034944Y025456D01*
X034949Y025452D01*
X034860Y025416D01*
X034663Y025219D01*
X034571Y024996D01*
X034134Y024996D01*
X033987Y024935D01*
X033875Y024822D01*
X033864Y024795D01*
X033638Y024795D01*
X033418Y024704D01*
X033401Y024687D01*
X032488Y024687D01*
X032471Y024704D01*
X032251Y024795D01*
X032013Y024795D01*
X031793Y024704D01*
X031625Y024536D01*
X031534Y024316D01*
X031534Y024078D01*
X031625Y023858D01*
X031793Y023690D01*
X032013Y023599D01*
X032251Y023599D01*
X032471Y023690D01*
X032488Y023707D01*
X033401Y023707D01*
X033418Y023690D01*
X033638Y023599D01*
X033814Y023599D01*
X033814Y023335D01*
X033823Y023312D01*
X032863Y023312D01*
X032846Y023329D01*
X032626Y023420D01*
X032388Y023420D01*
X032168Y023329D01*
X032000Y023161D01*
X031909Y022941D01*
X031909Y022703D01*
X032000Y022483D01*
X032168Y022315D01*
X032388Y022224D01*
X032626Y022224D01*
X032846Y022315D01*
X032863Y022332D01*
X033814Y022332D01*
X033814Y021170D01*
X033875Y021023D01*
X033987Y020910D01*
X034134Y020849D01*
X034687Y020849D01*
X034834Y020910D01*
X034947Y021023D01*
X034990Y021127D01*
X035045Y021072D01*
X034930Y020957D01*
X034827Y020708D01*
X034827Y020562D01*
X031555Y020562D01*
X031538Y020579D01*
X031318Y020670D01*
X031080Y020670D01*
X030860Y020579D01*
X030692Y020411D01*
X030601Y020191D01*
X030601Y019953D01*
X030692Y019733D01*
X030860Y019565D01*
X031080Y019474D01*
X031188Y019474D01*
X031125Y019411D01*
X031034Y019191D01*
X031034Y018953D01*
X031125Y018733D01*
X031142Y018716D01*
X031142Y016539D01*
X031126Y016545D01*
X030888Y016545D01*
X030668Y016454D01*
X030500Y016286D01*
X030409Y016066D01*
X030409Y015828D01*
X030500Y015608D01*
X030517Y015591D01*
X030517Y014928D01*
X030500Y014911D01*
X030409Y014691D01*
X030409Y014562D01*
X030223Y014562D01*
X030230Y014578D01*
X030230Y014816D01*
X030139Y015036D01*
X029971Y015204D01*
X029751Y015295D01*
X029513Y015295D01*
X029293Y015204D01*
X029276Y015187D01*
X026238Y015187D01*
X026221Y015204D01*
X026001Y015295D01*
X025763Y015295D01*
X025543Y015204D01*
X025375Y015036D01*
X025284Y014816D01*
X025284Y014578D01*
X025375Y014358D01*
X025543Y014190D01*
X025763Y014099D01*
X026001Y014099D01*
X026221Y014190D01*
X026238Y014207D01*
X029165Y014207D01*
X029159Y014191D01*
X029159Y013953D01*
X029250Y013733D01*
X029418Y013565D01*
X029496Y013533D01*
X029375Y013411D01*
X029284Y013191D01*
X029284Y013062D01*
X029105Y013062D01*
X029105Y013191D01*
X029014Y013411D01*
X028846Y013579D01*
X028626Y013670D01*
X028388Y013670D01*
X028168Y013579D01*
X028151Y013562D01*
X021738Y013562D01*
X021721Y013579D01*
X021501Y013670D01*
X021263Y013670D01*
X021043Y013579D01*
X020875Y013411D01*
X020872Y013404D01*
X020872Y014966D01*
X020889Y014983D01*
X020980Y015203D01*
X020980Y015441D01*
X020973Y015457D01*
X021026Y015457D01*
X021043Y015440D01*
X021263Y015349D01*
X021501Y015349D01*
X021721Y015440D01*
X021889Y015608D01*
X021980Y015828D01*
X021980Y016066D01*
X021889Y016286D01*
X021721Y016454D01*
X021501Y016545D01*
X021263Y016545D01*
X021043Y016454D01*
X021026Y016437D01*
X020738Y016437D01*
X020721Y016454D01*
X020501Y016545D01*
X020263Y016545D01*
X020043Y016454D01*
X019875Y016286D01*
X019784Y016066D01*
X019784Y015828D01*
X019864Y015635D01*
X019784Y015441D01*
X019784Y015203D01*
X019833Y015085D01*
X019655Y015158D01*
X019655Y020197D01*
X019817Y020197D01*
X020257Y020637D01*
X020257Y021258D01*
X020067Y021447D01*
X020257Y021637D01*
X020257Y021851D01*
X020418Y021690D01*
X020638Y021599D01*
X020876Y021599D01*
X021096Y021690D01*
X021264Y021858D01*
X021355Y022078D01*
X021355Y022316D01*
X021264Y022536D01*
X021247Y022553D01*
X021247Y025091D01*
X021264Y025108D01*
X021355Y025328D01*
X021355Y025566D01*
X021264Y025786D01*
X021096Y025954D01*
X020876Y026045D01*
X020638Y026045D01*
X020418Y025954D01*
X020257Y025793D01*
X020257Y026258D01*
X019835Y026679D01*
X027956Y026679D01*
X027909Y026566D01*
X027909Y026328D01*
X028000Y026108D01*
X028168Y025940D01*
X028388Y025849D01*
X028626Y025849D01*
X028846Y025940D01*
X028863Y025957D01*
X033401Y025957D01*
X033418Y025940D01*
X033638Y025849D01*
X033876Y025849D01*
X034034Y025915D01*
X034034Y025556D01*
X034046Y025510D01*
X034070Y025469D01*
X034103Y025436D01*
X034144Y025412D01*
X034190Y025400D01*
X034392Y025400D01*
X034392Y026152D01*
X034392Y026114D02*
X034429Y026114D01*
X034429Y025955D02*
X034392Y025955D01*
X034392Y025797D02*
X034429Y025797D01*
X034429Y025638D02*
X034392Y025638D01*
X034392Y025480D02*
X034429Y025480D01*
X034758Y025480D02*
X034920Y025480D01*
X034812Y025638D02*
X034787Y025638D01*
X034787Y025955D02*
X034795Y025955D01*
X034787Y026114D02*
X034875Y026114D01*
X034787Y026272D02*
X035089Y026272D01*
X035237Y026272D02*
X035277Y026272D01*
X035425Y026272D02*
X040034Y026272D01*
X040034Y026114D02*
X035638Y026114D01*
X035718Y025955D02*
X040085Y025955D01*
X040142Y025797D02*
X035737Y025797D01*
X035702Y025638D02*
X040142Y025638D01*
X040142Y025480D02*
X035593Y025480D01*
X035748Y025321D02*
X040142Y025321D01*
X040142Y025163D02*
X035873Y025163D01*
X035939Y025004D02*
X040142Y025004D01*
X040142Y024846D02*
X035957Y024846D01*
X035957Y024687D02*
X040142Y024687D01*
X040142Y024529D02*
X035893Y024529D01*
X035795Y024370D02*
X040142Y024370D01*
X040142Y024212D02*
X035853Y024212D01*
X035919Y024053D02*
X040080Y024053D01*
X040034Y023895D02*
X035957Y023895D01*
X035957Y023736D02*
X040034Y023736D01*
X040086Y023578D02*
X035913Y023578D01*
X035844Y023419D02*
X040189Y023419D01*
X040424Y023261D02*
X035914Y023261D01*
X036038Y023102D02*
X040736Y023102D01*
X040690Y022944D02*
X036104Y022944D01*
X036105Y022785D02*
X036467Y022785D01*
X036309Y022627D02*
X036073Y022627D01*
X035999Y022468D02*
X036150Y022468D01*
X036002Y022310D02*
X035833Y022310D01*
X035886Y022151D02*
X036002Y022151D01*
X035346Y022242D02*
X035122Y022149D01*
X035007Y022035D01*
X035007Y022332D01*
X035151Y022332D01*
X035168Y022315D01*
X035346Y022242D01*
X035181Y022310D02*
X035007Y022310D01*
X035007Y022151D02*
X035128Y022151D01*
X036154Y021359D02*
X036217Y021359D01*
X036089Y021200D02*
X036376Y021200D01*
X035999Y021042D02*
X042047Y021042D01*
X041888Y020883D02*
X041734Y020883D01*
X041311Y020883D02*
X036114Y020883D01*
X036180Y020725D02*
X041000Y020725D01*
X040841Y020566D02*
X036984Y020566D01*
X037140Y020408D02*
X040761Y020408D01*
X040695Y020249D02*
X037206Y020249D01*
X037230Y020091D02*
X040690Y020091D01*
X040690Y019932D02*
X037221Y019932D01*
X037156Y019774D02*
X040743Y019774D01*
X040809Y019615D02*
X037021Y019615D01*
X036187Y019457D02*
X040957Y019457D01*
X041207Y019298D02*
X036129Y019298D01*
X036036Y019140D02*
X042912Y019140D01*
X042912Y019298D02*
X041838Y019298D01*
X042088Y019457D02*
X042912Y019457D01*
X042912Y019615D02*
X042236Y019615D01*
X042763Y019774D02*
X042912Y019774D01*
X042912Y018981D02*
X036059Y018981D01*
X036139Y018823D02*
X042912Y018823D01*
X042912Y018664D02*
X036187Y018664D01*
X036187Y018506D02*
X042912Y018506D01*
X042912Y018347D02*
X036150Y018347D01*
X036084Y018189D02*
X042912Y018189D01*
X042912Y018030D02*
X036010Y018030D01*
X036119Y017872D02*
X042912Y017872D01*
X042912Y017713D02*
X036184Y017713D01*
X036187Y017555D02*
X042912Y017555D01*
X042912Y017396D02*
X036170Y017396D01*
X036104Y017238D02*
X042912Y017238D01*
X042912Y017079D02*
X035976Y017079D01*
X036098Y016921D02*
X042912Y016921D01*
X042912Y016762D02*
X036164Y016762D01*
X036187Y016604D02*
X042912Y016604D01*
X042912Y016445D02*
X036187Y016445D01*
X036125Y016287D02*
X042912Y016287D01*
X042912Y016128D02*
X036025Y016128D01*
X036071Y015970D02*
X042912Y015970D01*
X042912Y015811D02*
X036144Y015811D01*
X036187Y015653D02*
X042912Y015653D01*
X042912Y015494D02*
X036187Y015494D01*
X036145Y015336D02*
X042912Y015336D01*
X042912Y015177D02*
X036074Y015177D01*
X036022Y015019D02*
X042912Y015019D01*
X042912Y014860D02*
X036124Y014860D01*
X036187Y014702D02*
X042912Y014702D01*
X042912Y014543D02*
X037507Y014543D01*
X037650Y014385D02*
X042912Y014385D01*
X042912Y014226D02*
X040293Y014226D01*
X040346Y014204D02*
X040126Y014295D01*
X039888Y014295D01*
X039694Y014215D01*
X039501Y014295D01*
X039263Y014295D01*
X039043Y014204D01*
X038875Y014036D01*
X038784Y013816D01*
X038784Y013578D01*
X038875Y013358D01*
X038892Y013341D01*
X038892Y010303D01*
X038875Y010286D01*
X038814Y010140D01*
X038668Y010079D01*
X038651Y010062D01*
X031595Y010062D01*
X031578Y010079D01*
X031358Y010170D01*
X031120Y010170D01*
X030900Y010079D01*
X030732Y009911D01*
X030641Y009691D01*
X030641Y009453D01*
X030732Y009233D01*
X030900Y009065D01*
X031120Y008974D01*
X031358Y008974D01*
X031409Y008995D01*
X031409Y008953D01*
X031500Y008733D01*
X031668Y008565D01*
X031784Y008517D01*
X031784Y008453D01*
X031875Y008233D01*
X032043Y008065D01*
X032263Y007974D01*
X032501Y007974D01*
X032721Y008065D01*
X032738Y008082D01*
X039651Y008082D01*
X039668Y008065D01*
X039888Y007974D01*
X040126Y007974D01*
X040346Y008065D01*
X040514Y008233D01*
X040562Y008349D01*
X040626Y008349D01*
X040846Y008440D01*
X041014Y008608D01*
X041105Y008828D01*
X041105Y009066D01*
X041014Y009286D01*
X040997Y009303D01*
X040997Y011841D01*
X041014Y011858D01*
X041105Y012078D01*
X041105Y012316D01*
X041014Y012536D01*
X040846Y012704D01*
X040626Y012795D01*
X040497Y012795D01*
X040497Y013341D01*
X040514Y013358D01*
X040605Y013578D01*
X040605Y013816D01*
X040514Y014036D01*
X040346Y014204D01*
X040482Y014068D02*
X042912Y014068D01*
X042912Y013909D02*
X040566Y013909D01*
X040605Y013751D02*
X042912Y013751D01*
X042912Y013592D02*
X040605Y013592D01*
X040545Y013434D02*
X042912Y013434D01*
X042912Y013275D02*
X040497Y013275D01*
X040497Y013117D02*
X042912Y013117D01*
X042912Y012958D02*
X040497Y012958D01*
X040497Y012800D02*
X042912Y012800D01*
X042912Y012641D02*
X040909Y012641D01*
X041036Y012483D02*
X042912Y012483D01*
X042912Y012324D02*
X041102Y012324D01*
X041105Y012166D02*
X042912Y012166D01*
X042912Y012007D02*
X041076Y012007D01*
X041004Y011849D02*
X042912Y011849D01*
X042912Y011690D02*
X040997Y011690D01*
X040997Y011532D02*
X042912Y011532D01*
X042912Y011373D02*
X040997Y011373D01*
X040997Y011215D02*
X042912Y011215D01*
X042912Y011056D02*
X040997Y011056D01*
X040997Y010898D02*
X042912Y010898D01*
X042912Y010739D02*
X040997Y010739D01*
X040997Y010581D02*
X042912Y010581D01*
X042912Y010422D02*
X040997Y010422D01*
X040997Y010264D02*
X042912Y010264D01*
X042912Y010105D02*
X040997Y010105D01*
X040997Y009947D02*
X041667Y009947D01*
X041664Y009942D02*
X041652Y009896D01*
X041652Y009642D01*
X042562Y009642D01*
X042562Y010052D01*
X041808Y010052D01*
X041762Y010040D01*
X041721Y010016D01*
X041688Y009983D01*
X041664Y009942D01*
X041652Y009788D02*
X040997Y009788D01*
X040997Y009630D02*
X042562Y009630D01*
X042562Y009788D02*
X042702Y009788D01*
X042702Y009947D02*
X042562Y009947D01*
X041652Y009471D02*
X040997Y009471D01*
X040997Y009313D02*
X041652Y009313D01*
X041548Y009154D02*
X041068Y009154D01*
X041105Y008996D02*
X041450Y008996D01*
X041432Y008837D02*
X041105Y008837D01*
X041043Y008679D02*
X041432Y008679D01*
X041432Y008520D02*
X040926Y008520D01*
X040656Y008362D02*
X041432Y008362D01*
X041432Y008203D02*
X040484Y008203D01*
X040296Y008045D02*
X041494Y008045D01*
X041652Y007886D02*
X031525Y007886D01*
X031514Y007858D02*
X031605Y008078D01*
X031605Y008316D01*
X031514Y008536D01*
X031346Y008704D01*
X031126Y008795D01*
X030888Y008795D01*
X030668Y008704D01*
X030651Y008687D01*
X030363Y008687D01*
X030346Y008704D01*
X030126Y008795D01*
X029888Y008795D01*
X029668Y008704D01*
X029500Y008536D01*
X029409Y008316D01*
X029409Y008078D01*
X029500Y007858D01*
X029668Y007690D01*
X029821Y007627D01*
X029557Y007362D01*
X029557Y006782D01*
X029922Y006417D01*
X029777Y006271D01*
X029777Y006092D01*
X030237Y006092D01*
X030237Y006052D01*
X030277Y006052D01*
X030277Y006092D01*
X030737Y006092D01*
X030737Y006271D01*
X030591Y006417D01*
X030757Y006582D01*
X030922Y006417D01*
X030777Y006271D01*
X030777Y006092D01*
X031237Y006092D01*
X031237Y006052D01*
X031277Y006052D01*
X031277Y006092D01*
X031737Y006092D01*
X031737Y006271D01*
X031591Y006417D01*
X031757Y006582D01*
X031922Y006417D01*
X031777Y006271D01*
X031777Y006092D01*
X032237Y006092D01*
X032237Y006052D01*
X032277Y006052D01*
X032277Y006092D01*
X032737Y006092D01*
X032737Y006271D01*
X032591Y006417D01*
X032757Y006582D01*
X032922Y006417D01*
X032777Y006271D01*
X032777Y006092D01*
X033237Y006092D01*
X033237Y006052D01*
X033277Y006052D01*
X033277Y005592D01*
X033456Y005592D01*
X033601Y005738D01*
X033967Y005372D01*
X034547Y005372D01*
X034957Y005782D01*
X034957Y006362D01*
X034747Y006572D01*
X034957Y006782D01*
X034957Y007362D01*
X034547Y007772D01*
X033967Y007772D01*
X033757Y007562D01*
X033547Y007772D01*
X032967Y007772D01*
X032757Y007562D01*
X032547Y007772D01*
X031967Y007772D01*
X031757Y007562D01*
X031547Y007772D01*
X031428Y007772D01*
X031514Y007858D01*
X031591Y007728D02*
X031922Y007728D01*
X031764Y007569D02*
X031750Y007569D01*
X031591Y008045D02*
X032092Y008045D01*
X031905Y008203D02*
X031605Y008203D01*
X031586Y008362D02*
X031822Y008362D01*
X031776Y008520D02*
X031520Y008520D01*
X031554Y008679D02*
X031371Y008679D01*
X031457Y008837D02*
X028596Y008837D01*
X028605Y008816D02*
X028514Y009036D01*
X028346Y009204D01*
X028126Y009295D01*
X027888Y009295D01*
X027668Y009204D01*
X027651Y009187D01*
X027363Y009187D01*
X027346Y009204D01*
X027126Y009295D01*
X026888Y009295D01*
X026668Y009204D01*
X026500Y009036D01*
X026409Y008816D01*
X026409Y008578D01*
X026500Y008358D01*
X026668Y008190D01*
X026888Y008099D01*
X027126Y008099D01*
X027346Y008190D01*
X027363Y008207D01*
X027651Y008207D01*
X027668Y008190D01*
X027888Y008099D01*
X028126Y008099D01*
X028346Y008190D01*
X028514Y008358D01*
X028605Y008578D01*
X028605Y008816D01*
X028605Y008679D02*
X029642Y008679D01*
X029493Y008520D02*
X028581Y008520D01*
X028515Y008362D02*
X029428Y008362D01*
X029409Y008203D02*
X028359Y008203D01*
X027655Y008203D02*
X027359Y008203D01*
X026655Y008203D02*
X018257Y008203D01*
X018257Y008045D02*
X019046Y008045D01*
X019108Y008107D02*
X018722Y007721D01*
X018722Y007174D01*
X019108Y006787D01*
X019655Y006787D01*
X019819Y006951D01*
X019983Y006787D01*
X020530Y006787D01*
X020917Y007174D01*
X020917Y007721D01*
X020530Y008107D01*
X019983Y008107D01*
X019819Y007943D01*
X019655Y008107D01*
X019108Y008107D01*
X018887Y007886D02*
X018257Y007886D01*
X018257Y007728D02*
X018729Y007728D01*
X018722Y007569D02*
X018257Y007569D01*
X018257Y007411D02*
X018722Y007411D01*
X018722Y007252D02*
X018257Y007252D01*
X018257Y007094D02*
X018802Y007094D01*
X018960Y006935D02*
X017119Y006935D01*
X017053Y006777D02*
X029562Y006777D01*
X029557Y006935D02*
X020678Y006935D01*
X020837Y007094D02*
X029557Y007094D01*
X029557Y007252D02*
X020917Y007252D01*
X020917Y007411D02*
X029605Y007411D01*
X029764Y007569D02*
X020917Y007569D01*
X020910Y007728D02*
X029630Y007728D01*
X029488Y007886D02*
X020751Y007886D01*
X020593Y008045D02*
X029423Y008045D01*
X030612Y007707D02*
X030757Y007562D01*
X030821Y007627D01*
X030668Y007690D01*
X030651Y007707D01*
X030612Y007707D01*
X030750Y007569D02*
X030764Y007569D01*
X029721Y006618D02*
X019769Y006618D01*
X019655Y006732D02*
X020042Y006346D01*
X020042Y005855D01*
X020075Y005887D01*
X020257Y005887D01*
X020257Y005447D01*
X020257Y005447D01*
X020257Y005447D01*
X019817Y005447D01*
X019817Y005574D01*
X019655Y005412D01*
X019108Y005412D01*
X018722Y005799D01*
X018722Y006346D01*
X019108Y006732D01*
X019655Y006732D01*
X019803Y006935D02*
X019835Y006935D01*
X019928Y006460D02*
X029879Y006460D01*
X029807Y006301D02*
X020042Y006301D01*
X020042Y006143D02*
X024731Y006143D01*
X024603Y005984D02*
X020042Y005984D01*
X020257Y005826D02*
X020257Y005826D01*
X020257Y005667D02*
X020257Y005667D01*
X020257Y005509D02*
X020257Y005509D01*
X020501Y005826D02*
X024538Y005826D01*
X024534Y005667D02*
X020659Y005667D01*
X020697Y005509D02*
X024563Y005509D01*
X028407Y006143D02*
X029777Y006143D01*
X029777Y006052D02*
X029777Y005873D01*
X030058Y005592D01*
X030237Y005592D01*
X030237Y006052D01*
X029777Y006052D01*
X029777Y005984D02*
X028535Y005984D01*
X028601Y005826D02*
X029824Y005826D01*
X029983Y005667D02*
X028605Y005667D01*
X028576Y005509D02*
X033830Y005509D01*
X033672Y005667D02*
X033531Y005667D01*
X033277Y005667D02*
X033237Y005667D01*
X033237Y005592D02*
X033058Y005592D01*
X032777Y005873D01*
X032777Y006052D01*
X033237Y006052D01*
X033237Y005592D01*
X033237Y005826D02*
X033277Y005826D01*
X033277Y005984D02*
X033237Y005984D01*
X032983Y005667D02*
X032531Y005667D01*
X032456Y005592D02*
X032737Y005873D01*
X032737Y006052D01*
X032277Y006052D01*
X032277Y005592D01*
X032456Y005592D01*
X032277Y005667D02*
X032237Y005667D01*
X032237Y005592D02*
X032058Y005592D01*
X031777Y005873D01*
X031777Y006052D01*
X032237Y006052D01*
X032237Y005592D01*
X032237Y005826D02*
X032277Y005826D01*
X032277Y005984D02*
X032237Y005984D01*
X031983Y005667D02*
X031531Y005667D01*
X031456Y005592D02*
X031737Y005873D01*
X031737Y006052D01*
X031277Y006052D01*
X031277Y005592D01*
X031456Y005592D01*
X031277Y005667D02*
X031237Y005667D01*
X031237Y005592D02*
X031237Y006052D01*
X030777Y006052D01*
X030777Y005873D01*
X031058Y005592D01*
X031237Y005592D01*
X031237Y005826D02*
X031277Y005826D01*
X031277Y005984D02*
X031237Y005984D01*
X030983Y005667D02*
X030531Y005667D01*
X030456Y005592D02*
X030737Y005873D01*
X030737Y006052D01*
X030277Y006052D01*
X030277Y005592D01*
X030456Y005592D01*
X030277Y005667D02*
X030237Y005667D01*
X030237Y005826D02*
X030277Y005826D01*
X030277Y005984D02*
X030237Y005984D01*
X030689Y005826D02*
X030824Y005826D01*
X030777Y005984D02*
X030737Y005984D01*
X030737Y006143D02*
X030777Y006143D01*
X030807Y006301D02*
X030707Y006301D01*
X030634Y006460D02*
X030879Y006460D01*
X031634Y006460D02*
X031879Y006460D01*
X031807Y006301D02*
X031707Y006301D01*
X031737Y006143D02*
X031777Y006143D01*
X031777Y005984D02*
X031737Y005984D01*
X031689Y005826D02*
X031824Y005826D01*
X032689Y005826D02*
X032824Y005826D01*
X032777Y005984D02*
X032737Y005984D01*
X032737Y006143D02*
X032777Y006143D01*
X032807Y006301D02*
X032707Y006301D01*
X032634Y006460D02*
X032879Y006460D01*
X033591Y006417D02*
X033757Y006582D01*
X033767Y006572D01*
X033601Y006407D01*
X033591Y006417D01*
X033634Y006460D02*
X033654Y006460D01*
X034793Y006618D02*
X042912Y006618D01*
X042912Y006460D02*
X034859Y006460D01*
X034957Y006301D02*
X042912Y006301D01*
X042912Y006143D02*
X034957Y006143D01*
X034957Y005984D02*
X042912Y005984D01*
X042912Y005826D02*
X034957Y005826D01*
X034842Y005667D02*
X042912Y005667D01*
X042912Y005509D02*
X034683Y005509D01*
X034951Y006777D02*
X042912Y006777D01*
X042912Y006935D02*
X034957Y006935D01*
X034957Y007094D02*
X041802Y007094D01*
X041808Y007092D02*
X042562Y007092D01*
X042562Y007502D01*
X041652Y007502D01*
X041652Y007249D01*
X041664Y007203D01*
X041688Y007162D01*
X041721Y007128D01*
X041762Y007105D01*
X041808Y007092D01*
X041652Y007252D02*
X034957Y007252D01*
X034908Y007411D02*
X041652Y007411D01*
X041652Y007728D02*
X034591Y007728D01*
X034750Y007569D02*
X042562Y007569D01*
X042562Y007411D02*
X042702Y007411D01*
X042702Y007252D02*
X042562Y007252D01*
X042562Y007094D02*
X042702Y007094D01*
X039717Y008045D02*
X032671Y008045D01*
X032591Y007728D02*
X032922Y007728D01*
X032764Y007569D02*
X032750Y007569D01*
X033591Y007728D02*
X033922Y007728D01*
X033764Y007569D02*
X033750Y007569D01*
X034355Y009062D02*
X034355Y009082D01*
X038651Y009082D01*
X038668Y009065D01*
X038675Y009062D01*
X034355Y009062D01*
X035165Y010264D02*
X025968Y010264D01*
X025987Y010217D02*
X025876Y010486D01*
X025670Y010691D01*
X025402Y010802D01*
X025112Y010802D01*
X024843Y010691D01*
X024638Y010486D01*
X024527Y010217D01*
X024527Y009927D01*
X024638Y009659D01*
X024724Y009572D01*
X024638Y009486D01*
X024527Y009217D01*
X024527Y008927D01*
X024638Y008659D01*
X024843Y008453D01*
X025112Y008342D01*
X025402Y008342D01*
X025670Y008453D01*
X025876Y008659D01*
X025987Y008927D01*
X025987Y009217D01*
X025876Y009486D01*
X025789Y009572D01*
X025876Y009659D01*
X025987Y009927D01*
X025987Y010217D01*
X025987Y010105D02*
X030963Y010105D01*
X030768Y009947D02*
X025987Y009947D01*
X025929Y009788D02*
X030681Y009788D01*
X030641Y009630D02*
X025847Y009630D01*
X025882Y009471D02*
X030641Y009471D01*
X030699Y009313D02*
X025947Y009313D01*
X025987Y009154D02*
X026618Y009154D01*
X026483Y008996D02*
X025987Y008996D01*
X025950Y008837D02*
X026417Y008837D01*
X026409Y008679D02*
X025884Y008679D01*
X025737Y008520D02*
X026433Y008520D01*
X026498Y008362D02*
X025449Y008362D01*
X025064Y008362D02*
X018257Y008362D01*
X018257Y008520D02*
X024776Y008520D01*
X024630Y008679D02*
X018257Y008679D01*
X018257Y008837D02*
X024564Y008837D01*
X024527Y008996D02*
X018257Y008996D01*
X018257Y009154D02*
X024527Y009154D01*
X024566Y009313D02*
X018257Y009313D01*
X018257Y009471D02*
X024632Y009471D01*
X024667Y009630D02*
X020932Y009630D01*
X021091Y009788D02*
X024584Y009788D01*
X024527Y009947D02*
X021194Y009947D01*
X021260Y010105D02*
X024527Y010105D01*
X024546Y010264D02*
X021282Y010264D01*
X021282Y010422D02*
X024612Y010422D01*
X024733Y010581D02*
X024487Y010581D01*
X024646Y010739D02*
X024960Y010739D01*
X024718Y010898D02*
X028307Y010898D01*
X028284Y011056D02*
X024752Y011056D01*
X024752Y011215D02*
X028293Y011215D01*
X028359Y011373D02*
X024752Y011373D01*
X024752Y011532D02*
X028249Y011532D01*
X028043Y011690D02*
X024742Y011690D01*
X024676Y011849D02*
X027952Y011849D01*
X027909Y012007D02*
X024544Y012007D01*
X023720Y012007D02*
X022544Y012007D01*
X022676Y011849D02*
X023588Y011849D01*
X023522Y011690D02*
X022742Y011690D01*
X022752Y011532D02*
X023512Y011532D01*
X023512Y011373D02*
X022752Y011373D01*
X022752Y011215D02*
X023512Y011215D01*
X023512Y011056D02*
X022752Y011056D01*
X022718Y010898D02*
X023545Y010898D01*
X023618Y010739D02*
X022646Y010739D01*
X022487Y010581D02*
X023776Y010581D01*
X025554Y010739D02*
X028372Y010739D01*
X028527Y010581D02*
X025781Y010581D01*
X025902Y010422D02*
X035072Y010422D01*
X035507Y010422D02*
X035507Y010422D01*
X035507Y010264D02*
X035507Y010264D01*
X035849Y010264D02*
X038866Y010264D01*
X038892Y010422D02*
X035942Y010422D01*
X035967Y010581D02*
X038892Y010581D01*
X038892Y010739D02*
X035936Y010739D01*
X035832Y010898D02*
X038892Y010898D01*
X038892Y011056D02*
X035953Y011056D01*
X036095Y011215D02*
X038892Y011215D01*
X038892Y011373D02*
X036160Y011373D01*
X036702Y011532D02*
X038892Y011532D01*
X038892Y011690D02*
X036908Y011690D01*
X036999Y011849D02*
X038892Y011849D01*
X038892Y012007D02*
X037042Y012007D01*
X037042Y012166D02*
X038892Y012166D01*
X038892Y012324D02*
X036987Y012324D01*
X036992Y012483D02*
X036879Y012483D01*
X036776Y012582D02*
X036776Y012582D01*
X036776Y012582D01*
X036776Y012582D01*
X037272Y012483D02*
X038892Y012483D01*
X038892Y012641D02*
X037547Y012641D01*
X037666Y012800D02*
X038892Y012800D01*
X038892Y012958D02*
X037730Y012958D01*
X037730Y013117D02*
X038892Y013117D01*
X038892Y013275D02*
X037695Y013275D01*
X037616Y013434D02*
X038844Y013434D01*
X038784Y013592D02*
X037498Y013592D01*
X037646Y013751D02*
X038784Y013751D01*
X038822Y013909D02*
X037712Y013909D01*
X037730Y014068D02*
X038906Y014068D01*
X039096Y014226D02*
X037715Y014226D01*
X036786Y013572D02*
X036776Y013562D01*
X036187Y013562D01*
X036187Y013582D01*
X036776Y013582D01*
X036786Y013572D01*
X034827Y014708D02*
X034930Y014957D01*
X035045Y015072D01*
X034930Y015187D01*
X034827Y015437D01*
X034827Y015708D01*
X034930Y015957D01*
X035045Y016072D01*
X034930Y016187D01*
X034827Y016437D01*
X034827Y016708D01*
X034930Y016957D01*
X035045Y017072D01*
X034930Y017187D01*
X034827Y017437D01*
X034827Y017708D01*
X034930Y017957D01*
X035045Y018072D01*
X034930Y018187D01*
X034827Y018437D01*
X034827Y018708D01*
X034930Y018957D01*
X035045Y019072D01*
X034930Y019187D01*
X034827Y019437D01*
X034827Y019582D01*
X033980Y019582D01*
X033980Y019545D01*
X034126Y019545D01*
X034346Y019454D01*
X034514Y019286D01*
X034605Y019066D01*
X034605Y018828D01*
X034514Y018608D01*
X034497Y018591D01*
X034497Y015053D01*
X034514Y015036D01*
X034605Y014816D01*
X034605Y014578D01*
X034598Y014562D01*
X034827Y014562D01*
X034827Y014708D01*
X034827Y014702D02*
X034605Y014702D01*
X034587Y014860D02*
X034890Y014860D01*
X034992Y015019D02*
X034521Y015019D01*
X034497Y015177D02*
X034940Y015177D01*
X034869Y015336D02*
X034497Y015336D01*
X034497Y015494D02*
X034827Y015494D01*
X034827Y015653D02*
X034497Y015653D01*
X034497Y015811D02*
X034870Y015811D01*
X034943Y015970D02*
X034497Y015970D01*
X034497Y016128D02*
X034989Y016128D01*
X034889Y016287D02*
X034497Y016287D01*
X034497Y016445D02*
X034827Y016445D01*
X034827Y016604D02*
X034497Y016604D01*
X034497Y016762D02*
X034850Y016762D01*
X034915Y016921D02*
X034497Y016921D01*
X034497Y017079D02*
X035038Y017079D01*
X034909Y017238D02*
X034497Y017238D01*
X034497Y017396D02*
X034844Y017396D01*
X034827Y017555D02*
X034497Y017555D01*
X034497Y017713D02*
X034829Y017713D01*
X034895Y017872D02*
X034497Y017872D01*
X034497Y018030D02*
X035003Y018030D01*
X034930Y018189D02*
X034497Y018189D01*
X034497Y018347D02*
X034864Y018347D01*
X034827Y018506D02*
X034497Y018506D01*
X034537Y018664D02*
X034827Y018664D01*
X034875Y018823D02*
X034603Y018823D01*
X034605Y018981D02*
X034954Y018981D01*
X034978Y019140D02*
X034574Y019140D01*
X034502Y019298D02*
X034884Y019298D01*
X034827Y019457D02*
X034340Y019457D01*
X032892Y019216D02*
X032892Y015178D01*
X032875Y015161D01*
X032784Y014941D01*
X032784Y014703D01*
X032842Y014562D01*
X032230Y014562D01*
X032230Y014691D01*
X032139Y014911D01*
X032122Y014928D01*
X032122Y018716D01*
X032139Y018733D01*
X032230Y018953D01*
X032230Y019191D01*
X032139Y019411D01*
X031971Y019579D01*
X031964Y019582D01*
X032784Y019582D01*
X032784Y019453D01*
X032875Y019233D01*
X032892Y019216D01*
X032892Y019140D02*
X032230Y019140D01*
X032230Y018981D02*
X032892Y018981D01*
X032892Y018823D02*
X032176Y018823D01*
X032122Y018664D02*
X032892Y018664D01*
X032892Y018506D02*
X032122Y018506D01*
X032122Y018347D02*
X032892Y018347D01*
X032892Y018189D02*
X032122Y018189D01*
X032122Y018030D02*
X032892Y018030D01*
X032892Y017872D02*
X032122Y017872D01*
X032122Y017713D02*
X032892Y017713D01*
X032892Y017555D02*
X032122Y017555D01*
X032122Y017396D02*
X032892Y017396D01*
X032892Y017238D02*
X032122Y017238D01*
X032122Y017079D02*
X032892Y017079D01*
X032892Y016921D02*
X032122Y016921D01*
X032122Y016762D02*
X032892Y016762D01*
X032892Y016604D02*
X032122Y016604D01*
X032122Y016445D02*
X032892Y016445D01*
X032892Y016287D02*
X032122Y016287D01*
X032122Y016128D02*
X032892Y016128D01*
X032892Y015970D02*
X032122Y015970D01*
X032122Y015811D02*
X032892Y015811D01*
X032892Y015653D02*
X032122Y015653D01*
X032122Y015494D02*
X032892Y015494D01*
X032892Y015336D02*
X032122Y015336D01*
X032122Y015177D02*
X032891Y015177D01*
X032816Y015019D02*
X032122Y015019D01*
X032160Y014860D02*
X032784Y014860D01*
X032784Y014702D02*
X032226Y014702D01*
X030517Y015019D02*
X030146Y015019D01*
X030212Y014860D02*
X030479Y014860D01*
X030413Y014702D02*
X030230Y014702D01*
X029998Y015177D02*
X030517Y015177D01*
X030517Y015336D02*
X020980Y015336D01*
X020969Y015177D02*
X025516Y015177D01*
X025368Y015019D02*
X020904Y015019D01*
X020872Y014860D02*
X025302Y014860D01*
X025284Y014702D02*
X020872Y014702D01*
X020872Y014543D02*
X025298Y014543D01*
X025364Y014385D02*
X020872Y014385D01*
X020872Y014226D02*
X025507Y014226D01*
X028199Y013592D02*
X021689Y013592D01*
X021074Y013592D02*
X020872Y013592D01*
X020872Y013434D02*
X020897Y013434D01*
X020872Y013751D02*
X029243Y013751D01*
X029177Y013909D02*
X020872Y013909D01*
X020872Y014068D02*
X029159Y014068D01*
X029391Y013592D02*
X028814Y013592D01*
X028991Y013434D02*
X029397Y013434D01*
X029319Y013275D02*
X029070Y013275D01*
X029105Y013117D02*
X029284Y013117D01*
X030214Y013582D02*
X034827Y013582D01*
X034827Y013562D01*
X030238Y013562D01*
X030221Y013579D01*
X030214Y013582D01*
X031855Y012582D02*
X031855Y012562D01*
X034827Y012562D01*
X034827Y012582D01*
X031855Y012582D01*
X029784Y011582D02*
X029784Y011562D01*
X029238Y011562D01*
X029221Y011579D01*
X029214Y011582D01*
X029784Y011582D01*
X029236Y010581D02*
X034527Y010581D01*
X031515Y010105D02*
X038731Y010105D01*
X039467Y009187D02*
X039346Y009065D01*
X039339Y009062D01*
X039546Y009062D01*
X039500Y009108D01*
X039467Y009187D01*
X039481Y009154D02*
X039435Y009154D01*
X041632Y013697D02*
X041632Y018697D01*
X040235Y021047D02*
X039489Y021047D01*
X038962Y021574D01*
X038962Y022320D01*
X039489Y022847D01*
X040235Y022847D01*
X040762Y022320D01*
X040762Y021574D01*
X040235Y021047D01*
X040388Y021200D02*
X042912Y021200D01*
X042912Y021359D02*
X040546Y021359D01*
X040705Y021517D02*
X042912Y021517D01*
X042912Y021676D02*
X040762Y021676D01*
X040762Y021834D02*
X042065Y021834D01*
X041907Y021993D02*
X041690Y021993D01*
X041355Y021993D02*
X040762Y021993D01*
X040762Y022151D02*
X041018Y022151D01*
X040860Y022310D02*
X040762Y022310D01*
X040769Y022468D02*
X040614Y022468D01*
X040703Y022627D02*
X040455Y022627D01*
X040297Y022785D02*
X040690Y022785D01*
X039427Y022785D02*
X037337Y022785D01*
X037495Y022627D02*
X039269Y022627D01*
X039110Y022468D02*
X037654Y022468D01*
X037802Y022310D02*
X038962Y022310D01*
X038962Y022151D02*
X037802Y022151D01*
X037802Y021993D02*
X038962Y021993D01*
X038962Y021834D02*
X037802Y021834D01*
X037802Y021676D02*
X038962Y021676D01*
X039019Y021517D02*
X037745Y021517D01*
X037586Y021359D02*
X039177Y021359D01*
X039336Y021200D02*
X037428Y021200D01*
X036280Y020566D02*
X036187Y020566D01*
X035015Y021042D02*
X034955Y021042D01*
X034900Y020883D02*
X034770Y020883D01*
X034834Y020725D02*
X020257Y020725D01*
X020257Y020883D02*
X034052Y020883D01*
X033867Y021042D02*
X020257Y021042D01*
X020257Y021200D02*
X033814Y021200D01*
X033814Y021359D02*
X020156Y021359D01*
X020138Y021517D02*
X033814Y021517D01*
X033814Y021676D02*
X021061Y021676D01*
X021240Y021834D02*
X033814Y021834D01*
X033814Y021993D02*
X021320Y021993D01*
X021355Y022151D02*
X033814Y022151D01*
X033814Y022310D02*
X032833Y022310D01*
X032181Y022310D02*
X021355Y022310D01*
X021292Y022468D02*
X032015Y022468D01*
X031940Y022627D02*
X021247Y022627D01*
X021247Y022785D02*
X031909Y022785D01*
X031910Y022944D02*
X021247Y022944D01*
X021247Y023102D02*
X031975Y023102D01*
X032100Y023261D02*
X021247Y023261D01*
X021247Y023419D02*
X032385Y023419D01*
X032628Y023419D02*
X033814Y023419D01*
X033814Y023578D02*
X021247Y023578D01*
X021247Y023736D02*
X031747Y023736D01*
X031610Y023895D02*
X021247Y023895D01*
X021247Y024053D02*
X031544Y024053D01*
X031534Y024212D02*
X021247Y024212D01*
X021247Y024370D02*
X031556Y024370D01*
X031622Y024529D02*
X021247Y024529D01*
X021247Y024687D02*
X031776Y024687D01*
X032488Y024687D02*
X033401Y024687D01*
X033898Y024846D02*
X021247Y024846D01*
X021247Y025004D02*
X034575Y025004D01*
X034640Y025163D02*
X021286Y025163D01*
X021352Y025321D02*
X034766Y025321D01*
X034064Y025480D02*
X021355Y025480D01*
X021325Y025638D02*
X034034Y025638D01*
X034034Y025797D02*
X021253Y025797D01*
X021093Y025955D02*
X028153Y025955D01*
X027998Y026114D02*
X020257Y026114D01*
X020257Y025955D02*
X020420Y025955D01*
X020261Y025797D02*
X020257Y025797D01*
X020159Y025538D02*
X020159Y025328D01*
X020250Y025108D01*
X020267Y025091D01*
X020267Y022553D01*
X020250Y022536D01*
X020170Y022344D01*
X019912Y022603D01*
X020037Y022728D01*
X020037Y022927D01*
X019655Y022927D01*
X019655Y022967D01*
X020037Y022967D01*
X020037Y023167D01*
X019912Y023292D01*
X020257Y023637D01*
X020257Y024258D01*
X019912Y024603D01*
X020037Y024728D01*
X020037Y024927D01*
X019655Y024927D01*
X019655Y024967D01*
X020037Y024967D01*
X020037Y025167D01*
X019912Y025292D01*
X020159Y025538D01*
X020159Y025480D02*
X020100Y025480D01*
X020162Y025321D02*
X019942Y025321D01*
X020037Y025163D02*
X020227Y025163D01*
X020267Y025004D02*
X020037Y025004D01*
X020037Y024846D02*
X020267Y024846D01*
X020267Y024687D02*
X019996Y024687D01*
X019986Y024529D02*
X020267Y024529D01*
X020267Y024370D02*
X020144Y024370D01*
X020257Y024212D02*
X020267Y024212D01*
X020257Y024053D02*
X020267Y024053D01*
X020257Y023895D02*
X020267Y023895D01*
X020257Y023736D02*
X020267Y023736D01*
X020267Y023578D02*
X020198Y023578D01*
X020267Y023419D02*
X020040Y023419D01*
X019943Y023261D02*
X020267Y023261D01*
X020267Y023102D02*
X020037Y023102D01*
X020267Y022944D02*
X019655Y022944D01*
X020037Y022785D02*
X020267Y022785D01*
X020267Y022627D02*
X019936Y022627D01*
X020046Y022468D02*
X020222Y022468D01*
X020257Y021834D02*
X020274Y021834D01*
X020257Y021676D02*
X020453Y021676D01*
X020187Y020566D02*
X030847Y020566D01*
X030690Y020408D02*
X020028Y020408D01*
X019870Y020249D02*
X030625Y020249D01*
X030601Y020091D02*
X019655Y020091D01*
X019655Y019932D02*
X030609Y019932D01*
X030675Y019774D02*
X019655Y019774D01*
X019655Y019615D02*
X030810Y019615D01*
X031171Y019457D02*
X019655Y019457D01*
X019655Y019298D02*
X031078Y019298D01*
X031034Y019140D02*
X019655Y019140D01*
X019655Y018981D02*
X031034Y018981D01*
X031088Y018823D02*
X019655Y018823D01*
X019655Y018664D02*
X031142Y018664D01*
X031142Y018506D02*
X019655Y018506D01*
X019655Y018347D02*
X031142Y018347D01*
X031142Y018189D02*
X019655Y018189D01*
X019655Y018030D02*
X031142Y018030D01*
X031142Y017872D02*
X019655Y017872D01*
X019655Y017713D02*
X031142Y017713D01*
X031142Y017555D02*
X019655Y017555D01*
X019655Y017396D02*
X031142Y017396D01*
X031142Y017238D02*
X019655Y017238D01*
X019655Y017079D02*
X031142Y017079D01*
X031142Y016921D02*
X019655Y016921D01*
X019655Y016762D02*
X031142Y016762D01*
X031142Y016604D02*
X019655Y016604D01*
X019655Y016445D02*
X020034Y016445D01*
X019876Y016287D02*
X019655Y016287D01*
X019655Y016128D02*
X019809Y016128D01*
X019784Y015970D02*
X019655Y015970D01*
X019655Y015811D02*
X019791Y015811D01*
X019856Y015653D02*
X019655Y015653D01*
X019655Y015494D02*
X019806Y015494D01*
X019784Y015336D02*
X019655Y015336D01*
X019655Y015177D02*
X019794Y015177D01*
X018515Y015177D02*
X001938Y015177D01*
X001938Y015024D02*
X001938Y025695D01*
X018515Y025695D01*
X018515Y015024D01*
X001938Y015024D01*
X001938Y015336D02*
X018515Y015336D01*
X018515Y015494D02*
X001938Y015494D01*
X001938Y015653D02*
X018515Y015653D01*
X018515Y015811D02*
X001938Y015811D01*
X001938Y015970D02*
X018515Y015970D01*
X018515Y016128D02*
X001938Y016128D01*
X001938Y016287D02*
X018515Y016287D01*
X018515Y016445D02*
X001938Y016445D01*
X001938Y016604D02*
X018515Y016604D01*
X018515Y016762D02*
X001938Y016762D01*
X001938Y016921D02*
X018515Y016921D01*
X018515Y017079D02*
X001938Y017079D01*
X001938Y017238D02*
X018515Y017238D01*
X018515Y017396D02*
X001938Y017396D01*
X001938Y017555D02*
X018515Y017555D01*
X018515Y017713D02*
X001938Y017713D01*
X001938Y017872D02*
X018515Y017872D01*
X018515Y018030D02*
X001938Y018030D01*
X001938Y018189D02*
X018515Y018189D01*
X018515Y018347D02*
X011122Y018347D01*
X010978Y018288D02*
X011496Y018502D01*
X011940Y018843D01*
X012281Y019287D01*
X012281Y019287D01*
X012495Y019805D01*
X012568Y020360D01*
X012495Y020915D01*
X012281Y021432D01*
X011940Y021876D01*
X011940Y021876D01*
X011496Y022217D01*
X011496Y022217D01*
X010978Y022431D01*
X010423Y022504D01*
X009868Y022431D01*
X009351Y022217D01*
X009351Y022217D01*
X008907Y021876D01*
X008907Y021876D01*
X008566Y021432D01*
X008351Y020915D01*
X008278Y020360D01*
X008278Y020360D01*
X008351Y019805D01*
X008351Y019805D01*
X008566Y019287D01*
X008907Y018843D01*
X009351Y018502D01*
X009868Y018288D01*
X010423Y018215D01*
X010423Y018215D01*
X010978Y018288D01*
X010978Y018288D01*
X011496Y018502D02*
X011496Y018502D01*
X011500Y018506D02*
X018515Y018506D01*
X018515Y018664D02*
X011707Y018664D01*
X011913Y018823D02*
X018515Y018823D01*
X018515Y018981D02*
X012046Y018981D01*
X011940Y018843D02*
X011940Y018843D01*
X011940Y018843D01*
X012167Y019140D02*
X018515Y019140D01*
X018515Y019298D02*
X012285Y019298D01*
X012351Y019457D02*
X018515Y019457D01*
X018515Y019615D02*
X012416Y019615D01*
X012482Y019774D02*
X018515Y019774D01*
X018515Y019932D02*
X012512Y019932D01*
X012495Y019805D02*
X012495Y019805D01*
X012533Y020091D02*
X018515Y020091D01*
X018515Y020249D02*
X012553Y020249D01*
X012562Y020408D02*
X018515Y020408D01*
X018515Y020566D02*
X012541Y020566D01*
X012520Y020725D02*
X018515Y020725D01*
X018515Y020883D02*
X012499Y020883D01*
X012495Y020915D02*
X012495Y020915D01*
X012442Y021042D02*
X018515Y021042D01*
X018515Y021200D02*
X012377Y021200D01*
X012311Y021359D02*
X018515Y021359D01*
X018515Y021517D02*
X012215Y021517D01*
X012281Y021432D02*
X012281Y021432D01*
X012094Y021676D02*
X018515Y021676D01*
X018515Y021834D02*
X011972Y021834D01*
X011940Y021876D02*
X011940Y021876D01*
X011788Y021993D02*
X018515Y021993D01*
X018515Y022151D02*
X011581Y022151D01*
X011272Y022310D02*
X018515Y022310D01*
X018515Y022468D02*
X010698Y022468D01*
X010423Y022504D02*
X010423Y022504D01*
X010148Y022468D02*
X001938Y022468D01*
X001938Y022310D02*
X009575Y022310D01*
X009868Y022431D02*
X009868Y022431D01*
X009265Y022151D02*
X001938Y022151D01*
X001938Y021993D02*
X009058Y021993D01*
X008907Y021876D02*
X008907Y021876D01*
X008874Y021834D02*
X001938Y021834D01*
X001938Y021676D02*
X008753Y021676D01*
X008631Y021517D02*
X001938Y021517D01*
X001938Y021359D02*
X008535Y021359D01*
X008566Y021432D02*
X008566Y021432D01*
X008470Y021200D02*
X001938Y021200D01*
X001938Y021042D02*
X008404Y021042D01*
X008351Y020915D02*
X008351Y020915D01*
X008347Y020883D02*
X001938Y020883D01*
X001938Y020725D02*
X008326Y020725D01*
X008306Y020566D02*
X001938Y020566D01*
X001938Y020408D02*
X008285Y020408D01*
X008293Y020249D02*
X001938Y020249D01*
X001938Y020091D02*
X008314Y020091D01*
X008335Y019932D02*
X001938Y019932D01*
X001938Y019774D02*
X008364Y019774D01*
X008430Y019615D02*
X001938Y019615D01*
X001938Y019457D02*
X008495Y019457D01*
X008561Y019298D02*
X001938Y019298D01*
X001938Y019140D02*
X008679Y019140D01*
X008566Y019287D02*
X008566Y019287D01*
X008800Y018981D02*
X001938Y018981D01*
X001938Y018823D02*
X008933Y018823D01*
X008907Y018843D02*
X008907Y018843D01*
X008907Y018843D01*
X009140Y018664D02*
X001938Y018664D01*
X001938Y018506D02*
X009346Y018506D01*
X009351Y018502D02*
X009351Y018502D01*
X009725Y018347D02*
X001938Y018347D01*
X001139Y013932D02*
X001255Y013884D01*
X009273Y013884D01*
X009208Y013857D01*
X009048Y013697D01*
X001139Y013697D01*
X001139Y013932D01*
X001139Y013909D02*
X001194Y013909D01*
X001139Y013751D02*
X009101Y013751D01*
X009992Y013751D02*
X019017Y013751D01*
X019017Y013592D02*
X018257Y013592D01*
X018257Y013434D02*
X018957Y013434D01*
X018909Y013275D02*
X018257Y013275D01*
X018257Y013117D02*
X018909Y013117D01*
X018958Y012958D02*
X018257Y012958D01*
X018257Y012800D02*
X019058Y012800D01*
X019286Y012641D02*
X018257Y012641D01*
X018257Y012483D02*
X019892Y012483D01*
X019892Y012641D02*
X019728Y012641D01*
X019892Y012324D02*
X018257Y012324D01*
X018257Y012166D02*
X019892Y012166D01*
X019892Y012007D02*
X018257Y012007D01*
X018257Y011849D02*
X019849Y011849D01*
X019784Y011690D02*
X018257Y011690D01*
X018257Y011532D02*
X019784Y011532D01*
X019817Y011373D02*
X018257Y011373D01*
X018257Y011215D02*
X019893Y011215D01*
X020053Y011056D02*
X019706Y011056D01*
X019057Y011056D02*
X018257Y011056D01*
X018257Y010898D02*
X018899Y010898D01*
X018740Y010739D02*
X018257Y010739D01*
X018257Y010581D02*
X018722Y010581D01*
X018722Y010422D02*
X018257Y010422D01*
X018257Y010264D02*
X018722Y010264D01*
X018790Y010105D02*
X018257Y010105D01*
X018257Y009947D02*
X018949Y009947D01*
X019107Y009788D02*
X018257Y009788D01*
X018257Y009630D02*
X019971Y009630D01*
X019813Y009788D02*
X019656Y009788D01*
X021243Y010581D02*
X021776Y010581D01*
X021618Y010739D02*
X021178Y010739D01*
X021051Y010898D02*
X021545Y010898D01*
X021512Y011056D02*
X020851Y011056D01*
X020870Y011215D02*
X021512Y011215D01*
X021512Y011373D02*
X020947Y011373D01*
X020980Y011532D02*
X021512Y011532D01*
X021522Y011690D02*
X020980Y011690D01*
X020915Y011849D02*
X021588Y011849D01*
X021720Y012007D02*
X021081Y012007D01*
X021775Y015494D02*
X030517Y015494D01*
X030481Y015653D02*
X021907Y015653D01*
X021973Y015811D02*
X030416Y015811D01*
X030409Y015970D02*
X021980Y015970D01*
X021954Y016128D02*
X030434Y016128D01*
X030501Y016287D02*
X021888Y016287D01*
X021730Y016445D02*
X030659Y016445D01*
X032186Y019298D02*
X032848Y019298D01*
X032784Y019457D02*
X032093Y019457D01*
X031551Y020566D02*
X034827Y020566D01*
X041230Y023941D02*
X041139Y024161D01*
X041122Y024178D01*
X041122Y025841D01*
X041139Y025858D01*
X041230Y026078D01*
X041230Y026316D01*
X041139Y026536D01*
X040996Y026679D01*
X041777Y026679D01*
X041777Y026270D01*
X041974Y026072D01*
X041777Y025875D01*
X041777Y025270D01*
X041974Y025072D01*
X041777Y024875D01*
X041777Y024270D01*
X041974Y024072D01*
X041777Y023875D01*
X041777Y023622D01*
X041688Y023658D01*
X041357Y023658D01*
X041181Y023585D01*
X041230Y023703D01*
X041230Y023941D01*
X041230Y023895D02*
X041797Y023895D01*
X041777Y023736D02*
X041230Y023736D01*
X041184Y024053D02*
X041955Y024053D01*
X041835Y024212D02*
X041122Y024212D01*
X041122Y024370D02*
X041777Y024370D01*
X041777Y024529D02*
X041122Y024529D01*
X041122Y024687D02*
X041777Y024687D01*
X041777Y024846D02*
X041122Y024846D01*
X041122Y025004D02*
X041906Y025004D01*
X041884Y025163D02*
X041122Y025163D01*
X041122Y025321D02*
X041777Y025321D01*
X041777Y025480D02*
X041122Y025480D01*
X041122Y025638D02*
X041777Y025638D01*
X041777Y025797D02*
X041122Y025797D01*
X041179Y025955D02*
X041857Y025955D01*
X041933Y026114D02*
X041230Y026114D01*
X041230Y026272D02*
X041777Y026272D01*
X041777Y026431D02*
X041182Y026431D01*
X041086Y026589D02*
X041777Y026589D01*
X040178Y026589D02*
X034787Y026589D01*
X034787Y026431D02*
X040081Y026431D01*
X035277Y026114D02*
X035237Y026114D01*
X035237Y025955D02*
X035277Y025955D01*
X033403Y025955D02*
X028861Y025955D01*
X027932Y026272D02*
X020242Y026272D01*
X020084Y026431D02*
X027909Y026431D01*
X027918Y026589D02*
X019925Y026589D01*
X018515Y025638D02*
X001938Y025638D01*
X001938Y025480D02*
X018515Y025480D01*
X018515Y025321D02*
X001938Y025321D01*
X001938Y025163D02*
X018515Y025163D01*
X018515Y025004D02*
X001938Y025004D01*
X001938Y024846D02*
X018515Y024846D01*
X018515Y024687D02*
X001938Y024687D01*
X001938Y024529D02*
X018515Y024529D01*
X018515Y024370D02*
X001938Y024370D01*
X001938Y024212D02*
X018515Y024212D01*
X018515Y024053D02*
X001938Y024053D01*
X001938Y023895D02*
X018515Y023895D01*
X018515Y023736D02*
X001938Y023736D01*
X001938Y023578D02*
X018515Y023578D01*
X018515Y023419D02*
X001938Y023419D01*
X001938Y023261D02*
X018515Y023261D01*
X018515Y023102D02*
X001938Y023102D01*
X001938Y022944D02*
X018515Y022944D01*
X018515Y022785D02*
X001938Y022785D01*
X001938Y022627D02*
X018515Y022627D01*
X011394Y020620D02*
X011428Y020360D01*
X011394Y020100D01*
X011293Y019857D01*
X011134Y019649D01*
X010926Y019489D01*
X010683Y019389D01*
X010423Y019355D01*
X010163Y019389D01*
X009921Y019489D01*
X009713Y019649D01*
X009553Y019857D01*
X009453Y020100D01*
X009418Y020360D01*
X009453Y020620D01*
X009553Y020862D01*
X009713Y021070D01*
X009921Y021230D01*
X010163Y021330D01*
X010423Y021364D01*
X010683Y021330D01*
X010926Y021230D01*
X011134Y021070D01*
X011293Y020862D01*
X011394Y020620D01*
X011401Y020566D02*
X009446Y020566D01*
X009425Y020408D02*
X011422Y020408D01*
X011413Y020249D02*
X009433Y020249D01*
X009456Y020091D02*
X011390Y020091D01*
X011324Y019932D02*
X009522Y019932D01*
X009617Y019774D02*
X011229Y019774D01*
X011090Y019615D02*
X009757Y019615D01*
X010000Y019457D02*
X010847Y019457D01*
X009868Y018288D02*
X009868Y018288D01*
X009496Y020725D02*
X011350Y020725D01*
X011277Y020883D02*
X009569Y020883D01*
X009691Y021042D02*
X011155Y021042D01*
X010964Y021200D02*
X009882Y021200D01*
X010380Y021359D02*
X010466Y021359D01*
X010978Y022431D02*
X010978Y022431D01*
X020730Y016445D02*
X021034Y016445D01*
X028396Y009154D02*
X030811Y009154D01*
X031068Y008996D02*
X028531Y008996D01*
X019921Y008045D02*
X019718Y008045D01*
X018994Y006618D02*
X016940Y006618D01*
X016928Y006460D02*
X018836Y006460D01*
X018722Y006301D02*
X017042Y006301D01*
X017042Y006143D02*
X018722Y006143D01*
X018722Y005984D02*
X017042Y005984D01*
X017042Y005826D02*
X018722Y005826D01*
X018853Y005667D02*
X016910Y005667D01*
X016752Y005509D02*
X019012Y005509D01*
X019752Y005509D02*
X019817Y005509D01*
X016012Y005509D02*
X015816Y005509D01*
X015507Y005509D02*
X015507Y005509D01*
X015507Y005382D02*
X015507Y005822D01*
X015507Y005822D01*
X015507Y005382D01*
X015507Y005667D02*
X015507Y005667D01*
X015507Y005822D02*
X015067Y005822D01*
X015507Y005822D01*
X015507Y005822D01*
X015198Y005509D02*
X013127Y005509D01*
X013167Y005667D02*
X015067Y005667D01*
X015067Y005826D02*
X013167Y005826D01*
X013167Y005984D02*
X014113Y005984D01*
X014400Y005984D02*
X015067Y005984D01*
X013840Y006143D02*
X013120Y006143D01*
X012961Y006301D02*
X013722Y006301D01*
X013659Y006460D02*
X012803Y006460D01*
X012211Y006460D02*
X001139Y006460D01*
X001139Y006618D02*
X013659Y006618D01*
X013694Y006777D02*
X001139Y006777D01*
X001139Y006935D02*
X013774Y006935D01*
X012052Y006301D02*
X001139Y006301D01*
X001139Y006143D02*
X011894Y006143D01*
X011847Y005984D02*
X001139Y005984D01*
X001139Y005826D02*
X011847Y005826D01*
X011847Y005667D02*
X001139Y005667D01*
X001139Y005509D02*
X011887Y005509D01*
X039668Y014226D02*
X039721Y014226D01*
M02*
