G75*
G70*
%OFA0B0*%
%FSLAX24Y24*%
%IPPOS*%
%LPD*%
%AMOC8*
5,1,8,0,0,1.08239X$1,22.5*
%
%ADD10R,0.1680X0.0680*%
%ADD11C,0.0520*%
%ADD12OC8,0.0680*%
%ADD13C,0.0740*%
%ADD14C,0.0680*%
%ADD15OC8,0.0740*%
%ADD16OC8,0.0600*%
%ADD17R,0.0474X0.1261*%
%ADD18C,0.0940*%
%ADD19C,0.1630*%
%ADD20OC8,0.0780*%
%ADD21C,0.0640*%
%ADD22C,0.0350*%
%ADD23C,0.0500*%
%ADD24OC8,0.1080*%
%ADD25R,0.0867X0.0867*%
%ADD26C,0.0476*%
D10*
X042632Y007572D03*
X042632Y008572D03*
X042632Y009572D03*
D11*
X024132Y011102D02*
X024132Y011542D01*
X022132Y011542D02*
X022132Y011102D01*
D12*
X030257Y007072D03*
X031257Y007072D03*
X032257Y007072D03*
X033257Y007072D03*
X034257Y007072D03*
X034257Y006072D03*
X033257Y006072D03*
X032257Y006072D03*
X031257Y006072D03*
X030257Y006072D03*
D13*
X025257Y009072D03*
X025257Y010072D03*
X015436Y007716D03*
X015436Y012924D03*
X002044Y012924D03*
X002044Y007716D03*
D14*
X035257Y023822D03*
X035257Y024822D03*
X035257Y025822D03*
D15*
X042507Y025572D03*
X042507Y024572D03*
X042507Y023572D03*
X042507Y026572D03*
D16*
X019382Y010447D03*
X019382Y007447D03*
X020257Y007447D03*
X019382Y006072D03*
X020257Y005447D03*
X016382Y006072D03*
X015507Y005822D03*
X012507Y005822D03*
D17*
X034411Y021840D03*
X034411Y024005D03*
X034411Y026170D03*
D18*
X020452Y010323D03*
X016318Y007170D03*
D19*
X013678Y009399D03*
D20*
X019507Y020947D03*
X019507Y021947D03*
X019507Y022947D03*
X019507Y023947D03*
X019507Y024947D03*
X019507Y025947D03*
D21*
X035507Y021572D03*
X035507Y020572D03*
X035507Y019572D03*
X035507Y018572D03*
X035507Y017572D03*
X035507Y016572D03*
X035507Y015572D03*
X035507Y014572D03*
X035507Y013572D03*
X035507Y012572D03*
X035507Y011572D03*
X035507Y010572D03*
D22*
X042507Y020463D03*
X042507Y022432D03*
D23*
X041523Y022825D03*
X041523Y020069D03*
D24*
X039862Y021947D03*
X036902Y021947D03*
D25*
X000974Y004415D03*
X000974Y027643D03*
X043100Y027643D03*
X043100Y004415D03*
D26*
X040007Y008572D03*
X040507Y008947D03*
X040007Y009447D03*
X039382Y009947D03*
X039007Y009572D03*
X036444Y012072D03*
X037132Y013072D03*
X037132Y014072D03*
X039382Y013697D03*
X040007Y013697D03*
X041632Y013697D03*
X040507Y012197D03*
X034882Y011072D03*
X034132Y011572D03*
X031257Y012572D03*
X031007Y013550D03*
X029882Y013072D03*
X029757Y014072D03*
X029632Y014697D03*
X031007Y014572D03*
X031632Y014572D03*
X033382Y014822D03*
X034007Y014697D03*
X031007Y015947D03*
X027234Y013550D03*
X028507Y013072D03*
X028507Y012072D03*
X028882Y011072D03*
X030382Y011572D03*
X031239Y009572D03*
X032007Y009072D03*
X032382Y008572D03*
X031007Y008197D03*
X030007Y008197D03*
X028007Y008697D03*
X027007Y008697D03*
X028007Y005697D03*
X025132Y005697D03*
X033757Y009072D03*
X025882Y014697D03*
X021382Y015947D03*
X020382Y015947D03*
X020382Y015322D03*
X019507Y014572D03*
X019507Y013197D03*
X020882Y012572D03*
X021382Y013072D03*
X020382Y011572D03*
X015507Y006572D03*
X014257Y006572D03*
X009547Y008413D03*
X009547Y013350D03*
X020757Y022197D03*
X020132Y023197D03*
X021507Y023947D03*
X020132Y024947D03*
X020757Y025447D03*
X021507Y026572D03*
X028507Y026447D03*
X032132Y024197D03*
X033757Y024197D03*
X032507Y022822D03*
X035507Y022822D03*
X036632Y020072D03*
X034007Y018947D03*
X033382Y019572D03*
X031632Y019072D03*
X031199Y020072D03*
X040632Y023822D03*
X040632Y026197D03*
X033757Y026447D03*
X041632Y018697D03*
M02*
