G75*
G70*
%OFA0B0*%
%FSLAX24Y24*%
%IPPOS*%
%LPD*%
%AMOC8*
5,1,8,0,0,1.08239X$1,22.5*
%
%ADD10C,0.0060*%
%ADD11C,0.0100*%
%ADD12C,0.0030*%
%ADD13R,0.0118X0.0059*%
%ADD14R,0.0118X0.0118*%
%ADD15C,0.0010*%
%ADD16C,0.0050*%
%ADD17R,0.0150X0.0200*%
%ADD18C,0.0080*%
%ADD19R,0.0266X0.0965*%
%ADD20C,0.0120*%
%ADD21R,0.0200X0.0150*%
%ADD22C,0.0040*%
%ADD23R,0.1500X0.1500*%
%ADD24C,0.0020*%
%ADD25C,0.0008*%
%ADD26C,0.0176*%
D10*
X013007Y005522D02*
X013007Y006122D01*
X013009Y006139D01*
X013013Y006156D01*
X013020Y006172D01*
X013030Y006186D01*
X013043Y006199D01*
X013057Y006209D01*
X013073Y006216D01*
X013090Y006220D01*
X013107Y006222D01*
X013257Y006222D01*
X013307Y006172D01*
X014707Y006172D01*
X014757Y006222D01*
X014907Y006222D01*
X014924Y006220D01*
X014941Y006216D01*
X014957Y006209D01*
X014971Y006199D01*
X014984Y006186D01*
X014994Y006172D01*
X015001Y006156D01*
X015005Y006139D01*
X015007Y006122D01*
X015007Y005522D01*
X015005Y005505D01*
X015001Y005488D01*
X014994Y005472D01*
X014984Y005458D01*
X014971Y005445D01*
X014957Y005435D01*
X014941Y005428D01*
X014924Y005424D01*
X014907Y005422D01*
X014757Y005422D01*
X014707Y005472D01*
X013307Y005472D01*
X013257Y005422D01*
X013107Y005422D01*
X013090Y005424D01*
X013073Y005428D01*
X013057Y005435D01*
X013043Y005445D01*
X013030Y005458D01*
X013020Y005472D01*
X013013Y005488D01*
X013009Y005505D01*
X013007Y005522D01*
X016882Y005772D02*
X016882Y006372D01*
X016884Y006389D01*
X016888Y006406D01*
X016895Y006422D01*
X016905Y006436D01*
X016918Y006449D01*
X016932Y006459D01*
X016948Y006466D01*
X016965Y006470D01*
X016982Y006472D01*
X017132Y006472D01*
X017182Y006422D01*
X018582Y006422D01*
X018632Y006472D01*
X018782Y006472D01*
X018799Y006470D01*
X018816Y006466D01*
X018832Y006459D01*
X018846Y006449D01*
X018859Y006436D01*
X018869Y006422D01*
X018876Y006406D01*
X018880Y006389D01*
X018882Y006372D01*
X018882Y005772D01*
X018880Y005755D01*
X018876Y005738D01*
X018869Y005722D01*
X018859Y005708D01*
X018846Y005695D01*
X018832Y005685D01*
X018816Y005678D01*
X018799Y005674D01*
X018782Y005672D01*
X018632Y005672D01*
X018582Y005722D01*
X017182Y005722D01*
X017132Y005672D01*
X016982Y005672D01*
X016965Y005674D01*
X016948Y005678D01*
X016932Y005685D01*
X016918Y005695D01*
X016905Y005708D01*
X016895Y005722D01*
X016888Y005738D01*
X016884Y005755D01*
X016882Y005772D01*
X019757Y005097D02*
X019757Y007797D01*
X019759Y007814D01*
X019763Y007831D01*
X019770Y007847D01*
X019780Y007861D01*
X019793Y007874D01*
X019807Y007884D01*
X019823Y007891D01*
X019840Y007895D01*
X019857Y007897D01*
X020657Y007897D01*
X020674Y007895D01*
X020691Y007891D01*
X020707Y007884D01*
X020721Y007874D01*
X020734Y007861D01*
X020744Y007847D01*
X020751Y007831D01*
X020755Y007814D01*
X020757Y007797D01*
X020757Y005097D01*
X020755Y005080D01*
X020751Y005063D01*
X020744Y005047D01*
X020734Y005033D01*
X020721Y005020D01*
X020707Y005010D01*
X020691Y005003D01*
X020674Y004999D01*
X020657Y004997D01*
X019857Y004997D01*
X019840Y004999D01*
X019823Y005003D01*
X019807Y005010D01*
X019793Y005020D01*
X019780Y005033D01*
X019770Y005047D01*
X019763Y005063D01*
X019759Y005080D01*
X019757Y005097D01*
X020257Y005847D02*
X020257Y006317D01*
X020257Y006567D02*
X020257Y007047D01*
X019682Y007947D02*
X019082Y007947D01*
X019065Y007949D01*
X019048Y007953D01*
X019032Y007960D01*
X019018Y007970D01*
X019005Y007983D01*
X018995Y007997D01*
X018988Y008013D01*
X018984Y008030D01*
X018982Y008047D01*
X018982Y008197D01*
X019032Y008247D01*
X019032Y009647D01*
X018982Y009697D01*
X018982Y009847D01*
X018984Y009864D01*
X018988Y009881D01*
X018995Y009897D01*
X019005Y009911D01*
X019018Y009924D01*
X019032Y009934D01*
X019048Y009941D01*
X019065Y009945D01*
X019082Y009947D01*
X019682Y009947D01*
X019699Y009945D01*
X019716Y009941D01*
X019732Y009934D01*
X019746Y009924D01*
X019759Y009911D01*
X019769Y009897D01*
X019776Y009881D01*
X019780Y009864D01*
X019782Y009847D01*
X019782Y009697D01*
X019732Y009647D01*
X019732Y008247D01*
X019782Y008197D01*
X019782Y008047D01*
X019780Y008030D01*
X019776Y008013D01*
X019769Y007997D01*
X019759Y007983D01*
X019746Y007970D01*
X019732Y007960D01*
X019716Y007953D01*
X019699Y007949D01*
X019682Y007947D01*
X026862Y010802D02*
X032232Y010802D01*
X032402Y010972D01*
X032402Y016342D01*
X026862Y016342D01*
X026862Y010802D01*
X031727Y011257D02*
X031729Y011286D01*
X031735Y011315D01*
X031744Y011343D01*
X031758Y011369D01*
X031774Y011393D01*
X031794Y011415D01*
X031817Y011434D01*
X031841Y011450D01*
X031868Y011462D01*
X031896Y011471D01*
X031925Y011476D01*
X031954Y011477D01*
X031984Y011474D01*
X032012Y011467D01*
X032040Y011457D01*
X032065Y011442D01*
X032089Y011425D01*
X032110Y011405D01*
X032128Y011382D01*
X032143Y011356D01*
X032155Y011329D01*
X032163Y011301D01*
X032167Y011272D01*
X032167Y011242D01*
X032163Y011213D01*
X032155Y011185D01*
X032143Y011158D01*
X032128Y011132D01*
X032110Y011109D01*
X032089Y011089D01*
X032065Y011072D01*
X032040Y011057D01*
X032012Y011047D01*
X031984Y011040D01*
X031954Y011037D01*
X031925Y011038D01*
X031896Y011043D01*
X031868Y011052D01*
X031841Y011064D01*
X031817Y011080D01*
X031794Y011099D01*
X031774Y011121D01*
X031758Y011145D01*
X031744Y011171D01*
X031735Y011199D01*
X031729Y011228D01*
X031727Y011257D01*
X036710Y015171D02*
X040804Y015171D01*
X040804Y017474D01*
X036710Y017474D01*
X036710Y015171D01*
X040239Y015555D02*
X040241Y015581D01*
X040247Y015607D01*
X040256Y015632D01*
X040269Y015655D01*
X040285Y015676D01*
X040304Y015694D01*
X040326Y015710D01*
X040349Y015722D01*
X040374Y015730D01*
X040400Y015735D01*
X040427Y015736D01*
X040453Y015733D01*
X040478Y015726D01*
X040503Y015716D01*
X040525Y015702D01*
X040546Y015685D01*
X040563Y015666D01*
X040578Y015644D01*
X040589Y015620D01*
X040597Y015594D01*
X040601Y015568D01*
X040601Y015542D01*
X040597Y015516D01*
X040589Y015490D01*
X040578Y015466D01*
X040563Y015444D01*
X040546Y015425D01*
X040525Y015408D01*
X040503Y015394D01*
X040478Y015384D01*
X040453Y015377D01*
X040427Y015374D01*
X040400Y015375D01*
X040374Y015380D01*
X040349Y015388D01*
X040326Y015400D01*
X040304Y015416D01*
X040285Y015434D01*
X040269Y015455D01*
X040256Y015478D01*
X040247Y015503D01*
X040241Y015529D01*
X040239Y015555D01*
X040396Y013190D02*
X040396Y012954D01*
X040868Y012954D02*
X040868Y013190D01*
X037875Y018336D02*
X037639Y018336D01*
X037639Y018808D02*
X037875Y018808D01*
X042264Y018586D02*
X042500Y018586D01*
X042500Y019058D02*
X042264Y019058D01*
X035757Y023572D02*
X035507Y023322D01*
X035007Y023322D01*
X034757Y023572D01*
X034757Y024072D01*
X035007Y024322D01*
X034757Y024572D01*
X034757Y025072D01*
X035007Y025322D01*
X034757Y025572D01*
X034757Y026072D01*
X035007Y026322D01*
X035507Y026322D01*
X035757Y026072D01*
X035757Y025572D01*
X035507Y025322D01*
X035007Y025322D01*
X035507Y025322D02*
X035757Y025072D01*
X035757Y024572D01*
X035507Y024322D01*
X035007Y024322D01*
X035507Y024322D02*
X035757Y024072D01*
X035757Y023572D01*
X030442Y024387D02*
X030122Y024387D01*
X030122Y024607D01*
X030122Y025287D02*
X030122Y025507D01*
X030442Y025507D01*
X024063Y026677D02*
X024063Y024217D01*
X022700Y024217D01*
X022700Y026677D01*
X024063Y026677D01*
D11*
X041201Y017686D02*
X041201Y016781D01*
X041201Y017686D02*
X041909Y017686D01*
X042854Y017686D02*
X043130Y017686D01*
X041201Y015364D02*
X041201Y014458D01*
X041909Y014458D01*
X042854Y014458D02*
X043130Y014458D01*
D12*
X038957Y020087D02*
X038957Y020334D01*
X039080Y020211D02*
X038834Y020211D01*
X039182Y020719D02*
X039182Y020966D01*
X039305Y020842D02*
X039059Y020842D01*
D13*
X038323Y020808D03*
X038323Y020336D03*
X039816Y020336D03*
X039816Y020808D03*
D14*
X039816Y020572D03*
X038323Y020572D03*
D15*
X042105Y024815D02*
X042148Y024735D01*
X042147Y024736D02*
X042101Y024709D01*
X042057Y024678D01*
X042015Y024645D01*
X041975Y024608D01*
X041939Y024569D01*
X041905Y024527D01*
X041874Y024483D01*
X041846Y024437D01*
X041822Y024389D01*
X041801Y024340D01*
X041784Y024289D01*
X041770Y024237D01*
X041760Y024184D01*
X041754Y024131D01*
X041752Y024077D01*
X041663Y024077D01*
X041662Y024077D01*
X041664Y024133D01*
X041670Y024190D01*
X041680Y024245D01*
X041693Y024300D01*
X041710Y024354D01*
X041731Y024406D01*
X041755Y024457D01*
X041782Y024507D01*
X041813Y024554D01*
X041847Y024599D01*
X041883Y024642D01*
X041923Y024683D01*
X041965Y024720D01*
X042010Y024755D01*
X042056Y024787D01*
X042105Y024815D01*
X042109Y024807D01*
X042061Y024779D01*
X042015Y024748D01*
X041971Y024713D01*
X041929Y024676D01*
X041890Y024636D01*
X041854Y024594D01*
X041820Y024549D01*
X041790Y024502D01*
X041763Y024453D01*
X041739Y024403D01*
X041719Y024351D01*
X041702Y024298D01*
X041689Y024243D01*
X041679Y024188D01*
X041673Y024133D01*
X041671Y024077D01*
X041680Y024077D01*
X041682Y024132D01*
X041688Y024187D01*
X041698Y024242D01*
X041711Y024295D01*
X041727Y024348D01*
X041748Y024399D01*
X041771Y024449D01*
X041798Y024498D01*
X041828Y024544D01*
X041861Y024588D01*
X041897Y024630D01*
X041935Y024670D01*
X041977Y024706D01*
X042020Y024740D01*
X042066Y024771D01*
X042113Y024799D01*
X042118Y024791D01*
X042071Y024764D01*
X042025Y024733D01*
X041982Y024700D01*
X041942Y024663D01*
X041903Y024624D01*
X041868Y024583D01*
X041835Y024539D01*
X041806Y024493D01*
X041779Y024445D01*
X041756Y024396D01*
X041736Y024345D01*
X041719Y024293D01*
X041706Y024240D01*
X041697Y024186D01*
X041691Y024132D01*
X041689Y024077D01*
X041698Y024077D01*
X041700Y024131D01*
X041706Y024185D01*
X041715Y024238D01*
X041728Y024290D01*
X041744Y024342D01*
X041764Y024392D01*
X041787Y024441D01*
X041813Y024488D01*
X041843Y024534D01*
X041875Y024577D01*
X041910Y024618D01*
X041948Y024657D01*
X041988Y024693D01*
X042031Y024726D01*
X042075Y024756D01*
X042122Y024783D01*
X042126Y024776D01*
X042080Y024749D01*
X042036Y024719D01*
X041994Y024686D01*
X041954Y024650D01*
X041917Y024612D01*
X041882Y024571D01*
X041850Y024528D01*
X041821Y024484D01*
X041795Y024437D01*
X041772Y024389D01*
X041753Y024339D01*
X041737Y024288D01*
X041724Y024236D01*
X041715Y024183D01*
X041709Y024130D01*
X041707Y024077D01*
X041716Y024077D01*
X041718Y024130D01*
X041724Y024182D01*
X041733Y024234D01*
X041745Y024286D01*
X041761Y024336D01*
X041781Y024385D01*
X041803Y024433D01*
X041829Y024479D01*
X041857Y024523D01*
X041889Y024566D01*
X041923Y024606D01*
X041960Y024644D01*
X042000Y024679D01*
X042041Y024711D01*
X042085Y024741D01*
X042130Y024768D01*
X042135Y024760D01*
X042087Y024731D01*
X042041Y024700D01*
X041997Y024665D01*
X041956Y024627D01*
X041918Y024587D01*
X041883Y024544D01*
X041851Y024498D01*
X041823Y024450D01*
X041797Y024401D01*
X041776Y024349D01*
X041758Y024297D01*
X041744Y024243D01*
X041734Y024188D01*
X041727Y024133D01*
X041725Y024077D01*
X041734Y024077D01*
X041736Y024132D01*
X041743Y024187D01*
X041753Y024241D01*
X041767Y024294D01*
X041784Y024346D01*
X041806Y024397D01*
X041830Y024446D01*
X041859Y024493D01*
X041890Y024538D01*
X041925Y024581D01*
X041963Y024621D01*
X042003Y024658D01*
X042046Y024693D01*
X042091Y024724D01*
X042139Y024752D01*
X042143Y024744D01*
X042096Y024716D01*
X042051Y024685D01*
X042009Y024651D01*
X041969Y024614D01*
X041932Y024575D01*
X041898Y024533D01*
X041866Y024488D01*
X041838Y024442D01*
X041814Y024393D01*
X041793Y024343D01*
X041775Y024291D01*
X041761Y024239D01*
X041751Y024185D01*
X041745Y024131D01*
X041743Y024077D01*
X043351Y024076D02*
X043261Y024076D01*
X043262Y024077D02*
X043260Y024129D01*
X043254Y024181D01*
X043245Y024233D01*
X043232Y024283D01*
X043216Y024333D01*
X043196Y024381D01*
X043173Y024428D01*
X043147Y024473D01*
X043117Y024517D01*
X043085Y024558D01*
X043050Y024597D01*
X043012Y024633D01*
X042972Y024666D01*
X042930Y024697D01*
X042886Y024725D01*
X042930Y024803D01*
X042931Y024803D01*
X042977Y024774D01*
X043022Y024742D01*
X043064Y024707D01*
X043104Y024670D01*
X043142Y024630D01*
X043177Y024587D01*
X043209Y024543D01*
X043238Y024496D01*
X043264Y024448D01*
X043287Y024398D01*
X043306Y024346D01*
X043322Y024294D01*
X043335Y024241D01*
X043344Y024186D01*
X043350Y024132D01*
X043352Y024077D01*
X043343Y024077D01*
X043341Y024131D01*
X043335Y024185D01*
X043326Y024239D01*
X043314Y024292D01*
X043298Y024344D01*
X043278Y024394D01*
X043256Y024444D01*
X043230Y024492D01*
X043201Y024538D01*
X043170Y024582D01*
X043135Y024624D01*
X043098Y024663D01*
X043058Y024700D01*
X043016Y024735D01*
X042972Y024767D01*
X042926Y024795D01*
X042922Y024788D01*
X042967Y024759D01*
X043011Y024728D01*
X043052Y024694D01*
X043092Y024657D01*
X043128Y024618D01*
X043162Y024576D01*
X043194Y024533D01*
X043222Y024487D01*
X043248Y024440D01*
X043270Y024391D01*
X043289Y024341D01*
X043305Y024289D01*
X043317Y024237D01*
X043326Y024184D01*
X043332Y024131D01*
X043334Y024077D01*
X043325Y024077D01*
X043323Y024134D01*
X043316Y024190D01*
X043306Y024246D01*
X043292Y024301D01*
X043275Y024354D01*
X043253Y024407D01*
X043228Y024458D01*
X043200Y024507D01*
X043168Y024554D01*
X043133Y024598D01*
X043095Y024640D01*
X043054Y024680D01*
X043011Y024716D01*
X042965Y024750D01*
X042917Y024780D01*
X042913Y024772D01*
X042960Y024742D01*
X043006Y024709D01*
X043048Y024673D01*
X043089Y024634D01*
X043126Y024593D01*
X043161Y024548D01*
X043192Y024502D01*
X043220Y024454D01*
X043245Y024403D01*
X043266Y024351D01*
X043284Y024298D01*
X043298Y024244D01*
X043308Y024189D01*
X043314Y024133D01*
X043316Y024077D01*
X043307Y024077D01*
X043305Y024132D01*
X043299Y024187D01*
X043289Y024242D01*
X043275Y024296D01*
X043258Y024348D01*
X043237Y024400D01*
X043212Y024449D01*
X043185Y024497D01*
X043154Y024543D01*
X043119Y024587D01*
X043082Y024628D01*
X043042Y024666D01*
X043000Y024702D01*
X042955Y024735D01*
X042908Y024764D01*
X042904Y024756D01*
X042950Y024727D01*
X042994Y024695D01*
X043036Y024660D01*
X043076Y024622D01*
X043113Y024581D01*
X043146Y024538D01*
X043177Y024492D01*
X043204Y024445D01*
X043229Y024396D01*
X043249Y024345D01*
X043266Y024293D01*
X043280Y024240D01*
X043290Y024186D01*
X043296Y024132D01*
X043298Y024077D01*
X043289Y024077D01*
X043287Y024131D01*
X043281Y024185D01*
X043271Y024238D01*
X043258Y024291D01*
X043241Y024342D01*
X043220Y024392D01*
X043197Y024441D01*
X043169Y024488D01*
X043139Y024533D01*
X043106Y024575D01*
X043069Y024615D01*
X043030Y024653D01*
X042989Y024688D01*
X042945Y024720D01*
X042899Y024748D01*
X042895Y024741D01*
X042940Y024712D01*
X042983Y024681D01*
X043024Y024646D01*
X043063Y024609D01*
X043099Y024569D01*
X043132Y024527D01*
X043162Y024483D01*
X043189Y024437D01*
X043212Y024389D01*
X043232Y024339D01*
X043249Y024288D01*
X043262Y024236D01*
X043272Y024184D01*
X043278Y024130D01*
X043280Y024077D01*
X043271Y024077D01*
X043269Y024130D01*
X043263Y024182D01*
X043254Y024234D01*
X043241Y024286D01*
X043224Y024336D01*
X043204Y024385D01*
X043181Y024432D01*
X043154Y024478D01*
X043124Y024522D01*
X043092Y024564D01*
X043056Y024603D01*
X043018Y024640D01*
X042978Y024674D01*
X042935Y024705D01*
X042890Y024733D01*
X041883Y024067D02*
X041933Y024067D01*
X041932Y024067D02*
X041934Y024022D01*
X041940Y023978D01*
X041949Y023934D01*
X041961Y023891D01*
X041977Y023849D01*
X041996Y023809D01*
X042018Y023770D01*
X042043Y023733D01*
X042070Y023698D01*
X042101Y023665D01*
X042134Y023635D01*
X042169Y023607D01*
X042140Y023567D01*
X042140Y023566D01*
X042101Y023596D01*
X042066Y023629D01*
X042033Y023665D01*
X042002Y023703D01*
X041975Y023744D01*
X041951Y023786D01*
X041931Y023830D01*
X041914Y023876D01*
X041900Y023922D01*
X041890Y023970D01*
X041884Y024018D01*
X041882Y024067D01*
X041891Y024067D01*
X041893Y024019D01*
X041899Y023972D01*
X041909Y023925D01*
X041922Y023878D01*
X041939Y023834D01*
X041959Y023790D01*
X041983Y023748D01*
X042010Y023709D01*
X042039Y023671D01*
X042072Y023636D01*
X042107Y023603D01*
X042145Y023574D01*
X042150Y023581D01*
X042113Y023610D01*
X042078Y023642D01*
X042046Y023677D01*
X042017Y023714D01*
X041991Y023753D01*
X041967Y023794D01*
X041947Y023837D01*
X041931Y023881D01*
X041918Y023927D01*
X041908Y023973D01*
X041902Y024020D01*
X041900Y024067D01*
X041909Y024067D01*
X041911Y024021D01*
X041917Y023974D01*
X041926Y023929D01*
X041939Y023884D01*
X041956Y023841D01*
X041975Y023798D01*
X041998Y023758D01*
X042024Y023719D01*
X042053Y023683D01*
X042085Y023649D01*
X042119Y023617D01*
X042155Y023588D01*
X042161Y023596D01*
X042125Y023624D01*
X042091Y023655D01*
X042060Y023689D01*
X042031Y023725D01*
X042006Y023763D01*
X041983Y023802D01*
X041964Y023844D01*
X041948Y023887D01*
X041935Y023931D01*
X041926Y023976D01*
X041920Y024021D01*
X041918Y024067D01*
X041927Y024067D01*
X041929Y024022D01*
X041935Y023977D01*
X041944Y023933D01*
X041956Y023890D01*
X041972Y023847D01*
X041991Y023807D01*
X042013Y023767D01*
X042039Y023730D01*
X042067Y023695D01*
X042097Y023661D01*
X042130Y023631D01*
X042166Y023603D01*
X043056Y023431D02*
X042998Y023499D01*
X042999Y023499D02*
X043038Y023535D01*
X043075Y023575D01*
X043109Y023616D01*
X043140Y023660D01*
X043168Y023706D01*
X043192Y023754D01*
X043213Y023804D01*
X043230Y023855D01*
X043244Y023907D01*
X043254Y023960D01*
X043260Y024013D01*
X043262Y024067D01*
X043351Y024068D01*
X043352Y024067D01*
X043350Y024011D01*
X043344Y023956D01*
X043335Y023901D01*
X043321Y023847D01*
X043305Y023794D01*
X043285Y023742D01*
X043261Y023691D01*
X043235Y023643D01*
X043205Y023596D01*
X043172Y023551D01*
X043136Y023508D01*
X043098Y023468D01*
X043057Y023430D01*
X043051Y023437D01*
X043091Y023474D01*
X043130Y023514D01*
X043165Y023556D01*
X043197Y023601D01*
X043227Y023647D01*
X043253Y023695D01*
X043277Y023745D01*
X043296Y023797D01*
X043313Y023849D01*
X043326Y023903D01*
X043335Y023957D01*
X043341Y024012D01*
X043343Y024067D01*
X043334Y024067D01*
X043332Y024013D01*
X043326Y023958D01*
X043317Y023905D01*
X043304Y023852D01*
X043288Y023800D01*
X043268Y023749D01*
X043245Y023700D01*
X043219Y023652D01*
X043190Y023606D01*
X043158Y023562D01*
X043123Y023520D01*
X043085Y023481D01*
X043045Y023444D01*
X043039Y023451D01*
X043079Y023487D01*
X043116Y023526D01*
X043151Y023567D01*
X043183Y023611D01*
X043212Y023656D01*
X043237Y023704D01*
X043260Y023752D01*
X043279Y023803D01*
X043295Y023854D01*
X043308Y023907D01*
X043317Y023960D01*
X043323Y024013D01*
X043325Y024067D01*
X043316Y024067D01*
X043314Y024014D01*
X043308Y023961D01*
X043299Y023908D01*
X043287Y023857D01*
X043271Y023806D01*
X043252Y023756D01*
X043229Y023708D01*
X043204Y023661D01*
X043175Y023616D01*
X043144Y023573D01*
X043110Y023532D01*
X043073Y023494D01*
X043033Y023458D01*
X043028Y023465D01*
X043066Y023500D01*
X043103Y023538D01*
X043137Y023579D01*
X043168Y023621D01*
X043196Y023665D01*
X043221Y023712D01*
X043243Y023759D01*
X043262Y023809D01*
X043278Y023859D01*
X043290Y023910D01*
X043299Y023962D01*
X043305Y024014D01*
X043307Y024067D01*
X043298Y024067D01*
X043296Y024015D01*
X043290Y023963D01*
X043282Y023912D01*
X043269Y023861D01*
X043254Y023812D01*
X043235Y023763D01*
X043213Y023716D01*
X043188Y023670D01*
X043160Y023626D01*
X043130Y023584D01*
X043096Y023544D01*
X043060Y023507D01*
X043022Y023471D01*
X043016Y023478D01*
X043057Y023516D01*
X043095Y023557D01*
X043130Y023600D01*
X043162Y023645D01*
X043191Y023693D01*
X043216Y023743D01*
X043238Y023794D01*
X043256Y023847D01*
X043270Y023901D01*
X043280Y023956D01*
X043287Y024011D01*
X043289Y024067D01*
X043280Y024067D01*
X043278Y024012D01*
X043271Y023957D01*
X043261Y023903D01*
X043247Y023850D01*
X043230Y023798D01*
X043208Y023747D01*
X043183Y023698D01*
X043155Y023650D01*
X043123Y023605D01*
X043088Y023563D01*
X043051Y023522D01*
X043010Y023485D01*
X043004Y023492D01*
X043044Y023529D01*
X043082Y023569D01*
X043116Y023611D01*
X043147Y023655D01*
X043175Y023702D01*
X043200Y023751D01*
X043221Y023801D01*
X043239Y023852D01*
X043253Y023905D01*
X043263Y023959D01*
X043269Y024013D01*
X043271Y024067D01*
X042129Y024568D02*
X042159Y024528D01*
X042158Y024529D02*
X042124Y024501D01*
X042093Y024471D01*
X042064Y024439D01*
X042037Y024404D01*
X042014Y024367D01*
X041993Y024329D01*
X041975Y024289D01*
X041960Y024249D01*
X041948Y024207D01*
X041939Y024164D01*
X041934Y024121D01*
X041932Y024077D01*
X041883Y024076D01*
X041882Y024077D01*
X041884Y024124D01*
X041890Y024172D01*
X041899Y024218D01*
X041912Y024264D01*
X041928Y024308D01*
X041948Y024352D01*
X041971Y024393D01*
X041997Y024433D01*
X042026Y024471D01*
X042057Y024506D01*
X042091Y024539D01*
X042128Y024569D01*
X042133Y024562D01*
X042097Y024532D01*
X042064Y024500D01*
X042032Y024465D01*
X042004Y024428D01*
X041979Y024388D01*
X041956Y024347D01*
X041937Y024305D01*
X041921Y024261D01*
X041908Y024216D01*
X041899Y024170D01*
X041893Y024124D01*
X041891Y024077D01*
X041900Y024077D01*
X041902Y024123D01*
X041908Y024169D01*
X041917Y024214D01*
X041929Y024258D01*
X041945Y024302D01*
X041964Y024343D01*
X041986Y024384D01*
X042011Y024422D01*
X042039Y024459D01*
X042070Y024493D01*
X042103Y024525D01*
X042139Y024555D01*
X042144Y024547D01*
X042109Y024519D01*
X042077Y024487D01*
X042046Y024453D01*
X042019Y024417D01*
X041994Y024379D01*
X041972Y024339D01*
X041953Y024298D01*
X041938Y024255D01*
X041926Y024212D01*
X041917Y024167D01*
X041911Y024122D01*
X041909Y024077D01*
X041918Y024077D01*
X041920Y024122D01*
X041926Y024166D01*
X041934Y024210D01*
X041946Y024253D01*
X041962Y024295D01*
X041980Y024335D01*
X042002Y024375D01*
X042026Y024412D01*
X042053Y024447D01*
X042083Y024481D01*
X042115Y024512D01*
X042150Y024540D01*
X042155Y024533D01*
X042121Y024505D01*
X042089Y024475D01*
X042060Y024442D01*
X042033Y024407D01*
X042009Y024370D01*
X041988Y024331D01*
X041970Y024291D01*
X041955Y024250D01*
X041943Y024208D01*
X041934Y024165D01*
X041929Y024121D01*
X041927Y024077D01*
X041663Y024068D02*
X041753Y024068D01*
X041752Y024067D02*
X041754Y024013D01*
X041761Y023959D01*
X041771Y023906D01*
X041784Y023853D01*
X041802Y023802D01*
X041823Y023752D01*
X041848Y023703D01*
X041876Y023657D01*
X041908Y023613D01*
X041942Y023571D01*
X041980Y023532D01*
X042020Y023495D01*
X041963Y023427D01*
X041962Y023426D01*
X041920Y023464D01*
X041881Y023504D01*
X041845Y023547D01*
X041812Y023592D01*
X041781Y023639D01*
X041754Y023688D01*
X041730Y023739D01*
X041710Y023792D01*
X041693Y023845D01*
X041680Y023900D01*
X041670Y023955D01*
X041664Y024011D01*
X041662Y024067D01*
X041671Y024067D01*
X041673Y024011D01*
X041679Y023956D01*
X041689Y023902D01*
X041702Y023848D01*
X041718Y023795D01*
X041739Y023743D01*
X041762Y023692D01*
X041789Y023644D01*
X041819Y023597D01*
X041852Y023552D01*
X041888Y023510D01*
X041927Y023470D01*
X041968Y023433D01*
X041974Y023440D01*
X041933Y023477D01*
X041895Y023516D01*
X041859Y023558D01*
X041826Y023602D01*
X041797Y023648D01*
X041770Y023697D01*
X041747Y023746D01*
X041727Y023798D01*
X041710Y023850D01*
X041697Y023903D01*
X041688Y023957D01*
X041682Y024012D01*
X041680Y024067D01*
X041689Y024067D01*
X041691Y024013D01*
X041697Y023959D01*
X041706Y023905D01*
X041719Y023852D01*
X041735Y023800D01*
X041755Y023750D01*
X041778Y023701D01*
X041804Y023653D01*
X041834Y023607D01*
X041866Y023564D01*
X041901Y023522D01*
X041939Y023483D01*
X041979Y023447D01*
X041985Y023454D01*
X041945Y023490D01*
X041908Y023528D01*
X041873Y023569D01*
X041841Y023612D01*
X041812Y023658D01*
X041786Y023705D01*
X041763Y023753D01*
X041744Y023803D01*
X041728Y023855D01*
X041715Y023907D01*
X041706Y023960D01*
X041700Y024013D01*
X041698Y024067D01*
X041707Y024067D01*
X041709Y024014D01*
X041715Y023961D01*
X041724Y023909D01*
X041736Y023857D01*
X041752Y023806D01*
X041772Y023757D01*
X041794Y023709D01*
X041820Y023662D01*
X041849Y023618D01*
X041880Y023575D01*
X041915Y023534D01*
X041952Y023496D01*
X041991Y023461D01*
X041997Y023468D01*
X041958Y023503D01*
X041921Y023540D01*
X041887Y023581D01*
X041856Y023623D01*
X041828Y023667D01*
X041802Y023713D01*
X041780Y023760D01*
X041761Y023809D01*
X041745Y023860D01*
X041733Y023911D01*
X041724Y023962D01*
X041718Y024015D01*
X041716Y024067D01*
X041725Y024067D01*
X041727Y024015D01*
X041733Y023964D01*
X041741Y023912D01*
X041754Y023862D01*
X041769Y023812D01*
X041788Y023764D01*
X041810Y023717D01*
X041835Y023672D01*
X041863Y023628D01*
X041894Y023586D01*
X041928Y023547D01*
X041964Y023509D01*
X042003Y023474D01*
X042008Y023481D01*
X041970Y023516D01*
X041934Y023553D01*
X041901Y023592D01*
X041871Y023633D01*
X041843Y023676D01*
X041818Y023721D01*
X041796Y023768D01*
X041778Y023815D01*
X041762Y023864D01*
X041750Y023914D01*
X041741Y023965D01*
X041736Y024016D01*
X041734Y024067D01*
X041743Y024067D01*
X041745Y024012D01*
X041752Y023958D01*
X041762Y023904D01*
X041776Y023850D01*
X041794Y023799D01*
X041815Y023748D01*
X041840Y023699D01*
X041869Y023652D01*
X041901Y023607D01*
X041935Y023565D01*
X041973Y023525D01*
X042014Y023488D01*
X043131Y024077D02*
X043081Y024077D01*
X043082Y024077D02*
X043080Y024124D01*
X043074Y024170D01*
X043064Y024215D01*
X043050Y024260D01*
X043033Y024303D01*
X043013Y024345D01*
X042989Y024385D01*
X042962Y024424D01*
X042932Y024459D01*
X042899Y024492D01*
X042864Y024523D01*
X042894Y024562D01*
X042895Y024562D01*
X042930Y024532D01*
X042963Y024499D01*
X042994Y024464D01*
X043021Y024427D01*
X043046Y024388D01*
X043068Y024347D01*
X043087Y024304D01*
X043103Y024260D01*
X043115Y024215D01*
X043124Y024170D01*
X043130Y024123D01*
X043132Y024077D01*
X043123Y024077D01*
X043121Y024123D01*
X043115Y024168D01*
X043107Y024213D01*
X043094Y024258D01*
X043079Y024301D01*
X043060Y024343D01*
X043039Y024383D01*
X043014Y024422D01*
X042987Y024459D01*
X042957Y024493D01*
X042924Y024525D01*
X042889Y024555D01*
X042884Y024548D01*
X042918Y024519D01*
X042950Y024487D01*
X042980Y024453D01*
X043007Y024417D01*
X043031Y024379D01*
X043052Y024339D01*
X043071Y024297D01*
X043086Y024255D01*
X043098Y024211D01*
X043107Y024167D01*
X043112Y024122D01*
X043114Y024077D01*
X043105Y024077D01*
X043103Y024125D01*
X043096Y024174D01*
X043086Y024221D01*
X043072Y024268D01*
X043054Y024313D01*
X043033Y024356D01*
X043008Y024398D01*
X042980Y024438D01*
X042949Y024475D01*
X042915Y024509D01*
X042878Y024541D01*
X042873Y024534D01*
X042909Y024503D01*
X042942Y024469D01*
X042973Y024432D01*
X043001Y024393D01*
X043025Y024352D01*
X043046Y024309D01*
X043064Y024265D01*
X043077Y024219D01*
X043087Y024172D01*
X043094Y024125D01*
X043096Y024077D01*
X043087Y024077D01*
X043085Y024124D01*
X043079Y024171D01*
X043069Y024217D01*
X043055Y024262D01*
X043038Y024305D01*
X043017Y024348D01*
X042993Y024388D01*
X042966Y024427D01*
X042936Y024463D01*
X042903Y024496D01*
X042867Y024527D01*
X042894Y023582D02*
X042863Y023622D01*
X042864Y023621D02*
X042899Y023652D01*
X042932Y023685D01*
X042962Y023720D01*
X042989Y023759D01*
X043013Y023799D01*
X043033Y023841D01*
X043050Y023884D01*
X043064Y023929D01*
X043074Y023974D01*
X043080Y024020D01*
X043082Y024067D01*
X043131Y024067D01*
X043132Y024067D01*
X043130Y024021D01*
X043124Y023974D01*
X043115Y023929D01*
X043103Y023884D01*
X043087Y023840D01*
X043068Y023797D01*
X043046Y023756D01*
X043021Y023717D01*
X042994Y023680D01*
X042963Y023645D01*
X042930Y023612D01*
X042895Y023582D01*
X042889Y023589D01*
X042924Y023619D01*
X042957Y023651D01*
X042987Y023685D01*
X043014Y023722D01*
X043039Y023761D01*
X043060Y023801D01*
X043079Y023843D01*
X043094Y023886D01*
X043107Y023931D01*
X043115Y023976D01*
X043121Y024021D01*
X043123Y024067D01*
X043114Y024067D01*
X043112Y024022D01*
X043107Y023977D01*
X043098Y023933D01*
X043086Y023889D01*
X043071Y023847D01*
X043052Y023805D01*
X043031Y023765D01*
X043007Y023727D01*
X042980Y023691D01*
X042950Y023657D01*
X042918Y023625D01*
X042884Y023596D01*
X042878Y023603D01*
X042915Y023635D01*
X042949Y023669D01*
X042980Y023706D01*
X043008Y023746D01*
X043033Y023788D01*
X043054Y023831D01*
X043072Y023876D01*
X043086Y023923D01*
X043096Y023970D01*
X043103Y024019D01*
X043105Y024067D01*
X043096Y024067D01*
X043094Y024019D01*
X043087Y023972D01*
X043077Y023925D01*
X043064Y023879D01*
X043046Y023835D01*
X043025Y023792D01*
X043001Y023751D01*
X042973Y023712D01*
X042942Y023675D01*
X042909Y023641D01*
X042873Y023610D01*
X042867Y023617D01*
X042903Y023648D01*
X042936Y023681D01*
X042966Y023717D01*
X042993Y023756D01*
X043017Y023796D01*
X043038Y023839D01*
X043055Y023882D01*
X043069Y023927D01*
X043079Y023973D01*
X043085Y024020D01*
X043087Y024067D01*
X042105Y026815D02*
X042148Y026735D01*
X042147Y026736D02*
X042101Y026709D01*
X042057Y026678D01*
X042015Y026645D01*
X041975Y026608D01*
X041939Y026569D01*
X041905Y026527D01*
X041874Y026483D01*
X041846Y026437D01*
X041822Y026389D01*
X041801Y026340D01*
X041784Y026289D01*
X041770Y026237D01*
X041760Y026184D01*
X041754Y026131D01*
X041752Y026077D01*
X041663Y026077D01*
X041662Y026077D01*
X041664Y026133D01*
X041670Y026190D01*
X041680Y026245D01*
X041693Y026300D01*
X041710Y026354D01*
X041731Y026406D01*
X041755Y026457D01*
X041782Y026507D01*
X041813Y026554D01*
X041847Y026599D01*
X041883Y026642D01*
X041923Y026683D01*
X041965Y026720D01*
X042010Y026755D01*
X042056Y026787D01*
X042105Y026815D01*
X042109Y026807D01*
X042061Y026779D01*
X042015Y026748D01*
X041971Y026713D01*
X041929Y026676D01*
X041890Y026636D01*
X041854Y026594D01*
X041820Y026549D01*
X041790Y026502D01*
X041763Y026453D01*
X041739Y026403D01*
X041719Y026351D01*
X041702Y026298D01*
X041689Y026243D01*
X041679Y026188D01*
X041673Y026133D01*
X041671Y026077D01*
X041680Y026077D01*
X041682Y026132D01*
X041688Y026187D01*
X041698Y026242D01*
X041711Y026295D01*
X041727Y026348D01*
X041748Y026399D01*
X041771Y026449D01*
X041798Y026498D01*
X041828Y026544D01*
X041861Y026588D01*
X041897Y026630D01*
X041935Y026670D01*
X041977Y026706D01*
X042020Y026740D01*
X042066Y026771D01*
X042113Y026799D01*
X042118Y026791D01*
X042071Y026764D01*
X042025Y026733D01*
X041982Y026700D01*
X041942Y026663D01*
X041903Y026624D01*
X041868Y026583D01*
X041835Y026539D01*
X041806Y026493D01*
X041779Y026445D01*
X041756Y026396D01*
X041736Y026345D01*
X041719Y026293D01*
X041706Y026240D01*
X041697Y026186D01*
X041691Y026132D01*
X041689Y026077D01*
X041698Y026077D01*
X041700Y026131D01*
X041706Y026185D01*
X041715Y026238D01*
X041728Y026290D01*
X041744Y026342D01*
X041764Y026392D01*
X041787Y026441D01*
X041813Y026488D01*
X041843Y026534D01*
X041875Y026577D01*
X041910Y026618D01*
X041948Y026657D01*
X041988Y026693D01*
X042031Y026726D01*
X042075Y026756D01*
X042122Y026783D01*
X042126Y026776D01*
X042080Y026749D01*
X042036Y026719D01*
X041994Y026686D01*
X041954Y026650D01*
X041917Y026612D01*
X041882Y026571D01*
X041850Y026528D01*
X041821Y026484D01*
X041795Y026437D01*
X041772Y026389D01*
X041753Y026339D01*
X041737Y026288D01*
X041724Y026236D01*
X041715Y026183D01*
X041709Y026130D01*
X041707Y026077D01*
X041716Y026077D01*
X041718Y026130D01*
X041724Y026182D01*
X041733Y026234D01*
X041745Y026286D01*
X041761Y026336D01*
X041781Y026385D01*
X041803Y026433D01*
X041829Y026479D01*
X041857Y026523D01*
X041889Y026566D01*
X041923Y026606D01*
X041960Y026644D01*
X042000Y026679D01*
X042041Y026711D01*
X042085Y026741D01*
X042130Y026768D01*
X042135Y026760D01*
X042087Y026731D01*
X042041Y026700D01*
X041997Y026665D01*
X041956Y026627D01*
X041918Y026587D01*
X041883Y026544D01*
X041851Y026498D01*
X041823Y026450D01*
X041797Y026401D01*
X041776Y026349D01*
X041758Y026297D01*
X041744Y026243D01*
X041734Y026188D01*
X041727Y026133D01*
X041725Y026077D01*
X041734Y026077D01*
X041736Y026132D01*
X041743Y026187D01*
X041753Y026241D01*
X041767Y026294D01*
X041784Y026346D01*
X041806Y026397D01*
X041830Y026446D01*
X041859Y026493D01*
X041890Y026538D01*
X041925Y026581D01*
X041963Y026621D01*
X042003Y026658D01*
X042046Y026693D01*
X042091Y026724D01*
X042139Y026752D01*
X042143Y026744D01*
X042096Y026716D01*
X042051Y026685D01*
X042009Y026651D01*
X041969Y026614D01*
X041932Y026575D01*
X041898Y026533D01*
X041866Y026488D01*
X041838Y026442D01*
X041814Y026393D01*
X041793Y026343D01*
X041775Y026291D01*
X041761Y026239D01*
X041751Y026185D01*
X041745Y026131D01*
X041743Y026077D01*
X043351Y026076D02*
X043261Y026076D01*
X043262Y026077D02*
X043260Y026129D01*
X043254Y026181D01*
X043245Y026233D01*
X043232Y026283D01*
X043216Y026333D01*
X043196Y026381D01*
X043173Y026428D01*
X043147Y026473D01*
X043117Y026517D01*
X043085Y026558D01*
X043050Y026597D01*
X043012Y026633D01*
X042972Y026666D01*
X042930Y026697D01*
X042886Y026725D01*
X042930Y026803D01*
X042931Y026803D01*
X042977Y026774D01*
X043022Y026742D01*
X043064Y026707D01*
X043104Y026670D01*
X043142Y026630D01*
X043177Y026587D01*
X043209Y026543D01*
X043238Y026496D01*
X043264Y026448D01*
X043287Y026398D01*
X043306Y026346D01*
X043322Y026294D01*
X043335Y026241D01*
X043344Y026186D01*
X043350Y026132D01*
X043352Y026077D01*
X043343Y026077D01*
X043341Y026131D01*
X043335Y026185D01*
X043326Y026239D01*
X043314Y026292D01*
X043298Y026344D01*
X043278Y026394D01*
X043256Y026444D01*
X043230Y026492D01*
X043201Y026538D01*
X043170Y026582D01*
X043135Y026624D01*
X043098Y026663D01*
X043058Y026700D01*
X043016Y026735D01*
X042972Y026767D01*
X042926Y026795D01*
X042922Y026788D01*
X042967Y026759D01*
X043011Y026728D01*
X043052Y026694D01*
X043092Y026657D01*
X043128Y026618D01*
X043162Y026576D01*
X043194Y026533D01*
X043222Y026487D01*
X043248Y026440D01*
X043270Y026391D01*
X043289Y026341D01*
X043305Y026289D01*
X043317Y026237D01*
X043326Y026184D01*
X043332Y026131D01*
X043334Y026077D01*
X043325Y026077D01*
X043323Y026134D01*
X043316Y026190D01*
X043306Y026246D01*
X043292Y026301D01*
X043275Y026354D01*
X043253Y026407D01*
X043228Y026458D01*
X043200Y026507D01*
X043168Y026554D01*
X043133Y026598D01*
X043095Y026640D01*
X043054Y026680D01*
X043011Y026716D01*
X042965Y026750D01*
X042917Y026780D01*
X042913Y026772D01*
X042960Y026742D01*
X043006Y026709D01*
X043048Y026673D01*
X043089Y026634D01*
X043126Y026593D01*
X043161Y026548D01*
X043192Y026502D01*
X043220Y026454D01*
X043245Y026403D01*
X043266Y026351D01*
X043284Y026298D01*
X043298Y026244D01*
X043308Y026189D01*
X043314Y026133D01*
X043316Y026077D01*
X043307Y026077D01*
X043305Y026132D01*
X043299Y026187D01*
X043289Y026242D01*
X043275Y026296D01*
X043258Y026348D01*
X043237Y026400D01*
X043212Y026449D01*
X043185Y026497D01*
X043154Y026543D01*
X043119Y026587D01*
X043082Y026628D01*
X043042Y026666D01*
X043000Y026702D01*
X042955Y026735D01*
X042908Y026764D01*
X042904Y026756D01*
X042950Y026727D01*
X042994Y026695D01*
X043036Y026660D01*
X043076Y026622D01*
X043113Y026581D01*
X043146Y026538D01*
X043177Y026492D01*
X043204Y026445D01*
X043229Y026396D01*
X043249Y026345D01*
X043266Y026293D01*
X043280Y026240D01*
X043290Y026186D01*
X043296Y026132D01*
X043298Y026077D01*
X043289Y026077D01*
X043287Y026131D01*
X043281Y026185D01*
X043271Y026238D01*
X043258Y026291D01*
X043241Y026342D01*
X043220Y026392D01*
X043197Y026441D01*
X043169Y026488D01*
X043139Y026533D01*
X043106Y026575D01*
X043069Y026615D01*
X043030Y026653D01*
X042989Y026688D01*
X042945Y026720D01*
X042899Y026748D01*
X042895Y026741D01*
X042940Y026712D01*
X042983Y026681D01*
X043024Y026646D01*
X043063Y026609D01*
X043099Y026569D01*
X043132Y026527D01*
X043162Y026483D01*
X043189Y026437D01*
X043212Y026389D01*
X043232Y026339D01*
X043249Y026288D01*
X043262Y026236D01*
X043272Y026184D01*
X043278Y026130D01*
X043280Y026077D01*
X043271Y026077D01*
X043269Y026130D01*
X043263Y026182D01*
X043254Y026234D01*
X043241Y026286D01*
X043224Y026336D01*
X043204Y026385D01*
X043181Y026432D01*
X043154Y026478D01*
X043124Y026522D01*
X043092Y026564D01*
X043056Y026603D01*
X043018Y026640D01*
X042978Y026674D01*
X042935Y026705D01*
X042890Y026733D01*
X041883Y026067D02*
X041933Y026067D01*
X041932Y026067D02*
X041934Y026022D01*
X041940Y025978D01*
X041949Y025934D01*
X041961Y025891D01*
X041977Y025849D01*
X041996Y025809D01*
X042018Y025770D01*
X042043Y025733D01*
X042070Y025698D01*
X042101Y025665D01*
X042134Y025635D01*
X042169Y025607D01*
X042140Y025567D01*
X042140Y025566D01*
X042101Y025596D01*
X042066Y025629D01*
X042033Y025665D01*
X042002Y025703D01*
X041975Y025744D01*
X041951Y025786D01*
X041931Y025830D01*
X041914Y025876D01*
X041900Y025922D01*
X041890Y025970D01*
X041884Y026018D01*
X041882Y026067D01*
X041891Y026067D01*
X041893Y026019D01*
X041899Y025972D01*
X041909Y025925D01*
X041922Y025878D01*
X041939Y025834D01*
X041959Y025790D01*
X041983Y025748D01*
X042010Y025709D01*
X042039Y025671D01*
X042072Y025636D01*
X042107Y025603D01*
X042145Y025574D01*
X042150Y025581D01*
X042113Y025610D01*
X042078Y025642D01*
X042046Y025677D01*
X042017Y025714D01*
X041991Y025753D01*
X041967Y025794D01*
X041947Y025837D01*
X041931Y025881D01*
X041918Y025927D01*
X041908Y025973D01*
X041902Y026020D01*
X041900Y026067D01*
X041909Y026067D01*
X041911Y026021D01*
X041917Y025974D01*
X041926Y025929D01*
X041939Y025884D01*
X041956Y025841D01*
X041975Y025798D01*
X041998Y025758D01*
X042024Y025719D01*
X042053Y025683D01*
X042085Y025649D01*
X042119Y025617D01*
X042155Y025588D01*
X042161Y025596D01*
X042125Y025624D01*
X042091Y025655D01*
X042060Y025689D01*
X042031Y025725D01*
X042006Y025763D01*
X041983Y025802D01*
X041964Y025844D01*
X041948Y025887D01*
X041935Y025931D01*
X041926Y025976D01*
X041920Y026021D01*
X041918Y026067D01*
X041927Y026067D01*
X041929Y026022D01*
X041935Y025977D01*
X041944Y025933D01*
X041956Y025890D01*
X041972Y025847D01*
X041991Y025807D01*
X042013Y025767D01*
X042039Y025730D01*
X042067Y025695D01*
X042097Y025661D01*
X042130Y025631D01*
X042166Y025603D01*
X043056Y025431D02*
X042998Y025499D01*
X042999Y025499D02*
X043038Y025535D01*
X043075Y025575D01*
X043109Y025616D01*
X043140Y025660D01*
X043168Y025706D01*
X043192Y025754D01*
X043213Y025804D01*
X043230Y025855D01*
X043244Y025907D01*
X043254Y025960D01*
X043260Y026013D01*
X043262Y026067D01*
X043351Y026068D01*
X043352Y026067D01*
X043350Y026011D01*
X043344Y025956D01*
X043335Y025901D01*
X043321Y025847D01*
X043305Y025794D01*
X043285Y025742D01*
X043261Y025691D01*
X043235Y025643D01*
X043205Y025596D01*
X043172Y025551D01*
X043136Y025508D01*
X043098Y025468D01*
X043057Y025430D01*
X043051Y025437D01*
X043091Y025474D01*
X043130Y025514D01*
X043165Y025556D01*
X043197Y025601D01*
X043227Y025647D01*
X043253Y025695D01*
X043277Y025745D01*
X043296Y025797D01*
X043313Y025849D01*
X043326Y025903D01*
X043335Y025957D01*
X043341Y026012D01*
X043343Y026067D01*
X043334Y026067D01*
X043332Y026013D01*
X043326Y025958D01*
X043317Y025905D01*
X043304Y025852D01*
X043288Y025800D01*
X043268Y025749D01*
X043245Y025700D01*
X043219Y025652D01*
X043190Y025606D01*
X043158Y025562D01*
X043123Y025520D01*
X043085Y025481D01*
X043045Y025444D01*
X043039Y025451D01*
X043079Y025487D01*
X043116Y025526D01*
X043151Y025567D01*
X043183Y025611D01*
X043212Y025656D01*
X043237Y025704D01*
X043260Y025752D01*
X043279Y025803D01*
X043295Y025854D01*
X043308Y025907D01*
X043317Y025960D01*
X043323Y026013D01*
X043325Y026067D01*
X043316Y026067D01*
X043314Y026014D01*
X043308Y025961D01*
X043299Y025908D01*
X043287Y025857D01*
X043271Y025806D01*
X043252Y025756D01*
X043229Y025708D01*
X043204Y025661D01*
X043175Y025616D01*
X043144Y025573D01*
X043110Y025532D01*
X043073Y025494D01*
X043033Y025458D01*
X043028Y025465D01*
X043066Y025500D01*
X043103Y025538D01*
X043137Y025579D01*
X043168Y025621D01*
X043196Y025665D01*
X043221Y025712D01*
X043243Y025759D01*
X043262Y025809D01*
X043278Y025859D01*
X043290Y025910D01*
X043299Y025962D01*
X043305Y026014D01*
X043307Y026067D01*
X043298Y026067D01*
X043296Y026015D01*
X043290Y025963D01*
X043282Y025912D01*
X043269Y025861D01*
X043254Y025812D01*
X043235Y025763D01*
X043213Y025716D01*
X043188Y025670D01*
X043160Y025626D01*
X043130Y025584D01*
X043096Y025544D01*
X043060Y025507D01*
X043022Y025471D01*
X043016Y025478D01*
X043057Y025516D01*
X043095Y025557D01*
X043130Y025600D01*
X043162Y025645D01*
X043191Y025693D01*
X043216Y025743D01*
X043238Y025794D01*
X043256Y025847D01*
X043270Y025901D01*
X043280Y025956D01*
X043287Y026011D01*
X043289Y026067D01*
X043280Y026067D01*
X043278Y026012D01*
X043271Y025957D01*
X043261Y025903D01*
X043247Y025850D01*
X043230Y025798D01*
X043208Y025747D01*
X043183Y025698D01*
X043155Y025650D01*
X043123Y025605D01*
X043088Y025563D01*
X043051Y025522D01*
X043010Y025485D01*
X043004Y025492D01*
X043044Y025529D01*
X043082Y025569D01*
X043116Y025611D01*
X043147Y025655D01*
X043175Y025702D01*
X043200Y025751D01*
X043221Y025801D01*
X043239Y025852D01*
X043253Y025905D01*
X043263Y025959D01*
X043269Y026013D01*
X043271Y026067D01*
X042129Y026568D02*
X042159Y026528D01*
X042158Y026529D02*
X042124Y026501D01*
X042093Y026471D01*
X042064Y026439D01*
X042037Y026404D01*
X042014Y026367D01*
X041993Y026329D01*
X041975Y026289D01*
X041960Y026249D01*
X041948Y026207D01*
X041939Y026164D01*
X041934Y026121D01*
X041932Y026077D01*
X041883Y026076D01*
X041882Y026077D01*
X041884Y026124D01*
X041890Y026172D01*
X041899Y026218D01*
X041912Y026264D01*
X041928Y026308D01*
X041948Y026352D01*
X041971Y026393D01*
X041997Y026433D01*
X042026Y026471D01*
X042057Y026506D01*
X042091Y026539D01*
X042128Y026569D01*
X042133Y026562D01*
X042097Y026532D01*
X042064Y026500D01*
X042032Y026465D01*
X042004Y026428D01*
X041979Y026388D01*
X041956Y026347D01*
X041937Y026305D01*
X041921Y026261D01*
X041908Y026216D01*
X041899Y026170D01*
X041893Y026124D01*
X041891Y026077D01*
X041900Y026077D01*
X041902Y026123D01*
X041908Y026169D01*
X041917Y026214D01*
X041929Y026258D01*
X041945Y026302D01*
X041964Y026343D01*
X041986Y026384D01*
X042011Y026422D01*
X042039Y026459D01*
X042070Y026493D01*
X042103Y026525D01*
X042139Y026555D01*
X042144Y026547D01*
X042109Y026519D01*
X042077Y026487D01*
X042046Y026453D01*
X042019Y026417D01*
X041994Y026379D01*
X041972Y026339D01*
X041953Y026298D01*
X041938Y026255D01*
X041926Y026212D01*
X041917Y026167D01*
X041911Y026122D01*
X041909Y026077D01*
X041918Y026077D01*
X041920Y026122D01*
X041926Y026166D01*
X041934Y026210D01*
X041946Y026253D01*
X041962Y026295D01*
X041980Y026335D01*
X042002Y026375D01*
X042026Y026412D01*
X042053Y026447D01*
X042083Y026481D01*
X042115Y026512D01*
X042150Y026540D01*
X042155Y026533D01*
X042121Y026505D01*
X042089Y026475D01*
X042060Y026442D01*
X042033Y026407D01*
X042009Y026370D01*
X041988Y026331D01*
X041970Y026291D01*
X041955Y026250D01*
X041943Y026208D01*
X041934Y026165D01*
X041929Y026121D01*
X041927Y026077D01*
X041663Y026068D02*
X041753Y026068D01*
X041752Y026067D02*
X041754Y026013D01*
X041761Y025959D01*
X041771Y025906D01*
X041784Y025853D01*
X041802Y025802D01*
X041823Y025752D01*
X041848Y025703D01*
X041876Y025657D01*
X041908Y025613D01*
X041942Y025571D01*
X041980Y025532D01*
X042020Y025495D01*
X041963Y025427D01*
X041962Y025426D01*
X041920Y025464D01*
X041881Y025504D01*
X041845Y025547D01*
X041812Y025592D01*
X041781Y025639D01*
X041754Y025688D01*
X041730Y025739D01*
X041710Y025792D01*
X041693Y025845D01*
X041680Y025900D01*
X041670Y025955D01*
X041664Y026011D01*
X041662Y026067D01*
X041671Y026067D01*
X041673Y026011D01*
X041679Y025956D01*
X041689Y025902D01*
X041702Y025848D01*
X041718Y025795D01*
X041739Y025743D01*
X041762Y025692D01*
X041789Y025644D01*
X041819Y025597D01*
X041852Y025552D01*
X041888Y025510D01*
X041927Y025470D01*
X041968Y025433D01*
X041974Y025440D01*
X041933Y025477D01*
X041895Y025516D01*
X041859Y025558D01*
X041826Y025602D01*
X041797Y025648D01*
X041770Y025697D01*
X041747Y025746D01*
X041727Y025798D01*
X041710Y025850D01*
X041697Y025903D01*
X041688Y025957D01*
X041682Y026012D01*
X041680Y026067D01*
X041689Y026067D01*
X041691Y026013D01*
X041697Y025959D01*
X041706Y025905D01*
X041719Y025852D01*
X041735Y025800D01*
X041755Y025750D01*
X041778Y025701D01*
X041804Y025653D01*
X041834Y025607D01*
X041866Y025564D01*
X041901Y025522D01*
X041939Y025483D01*
X041979Y025447D01*
X041985Y025454D01*
X041945Y025490D01*
X041908Y025528D01*
X041873Y025569D01*
X041841Y025612D01*
X041812Y025658D01*
X041786Y025705D01*
X041763Y025753D01*
X041744Y025803D01*
X041728Y025855D01*
X041715Y025907D01*
X041706Y025960D01*
X041700Y026013D01*
X041698Y026067D01*
X041707Y026067D01*
X041709Y026014D01*
X041715Y025961D01*
X041724Y025909D01*
X041736Y025857D01*
X041752Y025806D01*
X041772Y025757D01*
X041794Y025709D01*
X041820Y025662D01*
X041849Y025618D01*
X041880Y025575D01*
X041915Y025534D01*
X041952Y025496D01*
X041991Y025461D01*
X041997Y025468D01*
X041958Y025503D01*
X041921Y025540D01*
X041887Y025581D01*
X041856Y025623D01*
X041828Y025667D01*
X041802Y025713D01*
X041780Y025760D01*
X041761Y025809D01*
X041745Y025860D01*
X041733Y025911D01*
X041724Y025962D01*
X041718Y026015D01*
X041716Y026067D01*
X041725Y026067D01*
X041727Y026015D01*
X041733Y025964D01*
X041741Y025912D01*
X041754Y025862D01*
X041769Y025812D01*
X041788Y025764D01*
X041810Y025717D01*
X041835Y025672D01*
X041863Y025628D01*
X041894Y025586D01*
X041928Y025547D01*
X041964Y025509D01*
X042003Y025474D01*
X042008Y025481D01*
X041970Y025516D01*
X041934Y025553D01*
X041901Y025592D01*
X041871Y025633D01*
X041843Y025676D01*
X041818Y025721D01*
X041796Y025768D01*
X041778Y025815D01*
X041762Y025864D01*
X041750Y025914D01*
X041741Y025965D01*
X041736Y026016D01*
X041734Y026067D01*
X041743Y026067D01*
X041745Y026012D01*
X041752Y025958D01*
X041762Y025904D01*
X041776Y025850D01*
X041794Y025799D01*
X041815Y025748D01*
X041840Y025699D01*
X041869Y025652D01*
X041901Y025607D01*
X041935Y025565D01*
X041973Y025525D01*
X042014Y025488D01*
X043131Y026077D02*
X043081Y026077D01*
X043082Y026077D02*
X043080Y026124D01*
X043074Y026170D01*
X043064Y026215D01*
X043050Y026260D01*
X043033Y026303D01*
X043013Y026345D01*
X042989Y026385D01*
X042962Y026424D01*
X042932Y026459D01*
X042899Y026492D01*
X042864Y026523D01*
X042894Y026562D01*
X042895Y026562D01*
X042930Y026532D01*
X042963Y026499D01*
X042994Y026464D01*
X043021Y026427D01*
X043046Y026388D01*
X043068Y026347D01*
X043087Y026304D01*
X043103Y026260D01*
X043115Y026215D01*
X043124Y026170D01*
X043130Y026123D01*
X043132Y026077D01*
X043123Y026077D01*
X043121Y026123D01*
X043115Y026168D01*
X043107Y026213D01*
X043094Y026258D01*
X043079Y026301D01*
X043060Y026343D01*
X043039Y026383D01*
X043014Y026422D01*
X042987Y026459D01*
X042957Y026493D01*
X042924Y026525D01*
X042889Y026555D01*
X042884Y026548D01*
X042918Y026519D01*
X042950Y026487D01*
X042980Y026453D01*
X043007Y026417D01*
X043031Y026379D01*
X043052Y026339D01*
X043071Y026297D01*
X043086Y026255D01*
X043098Y026211D01*
X043107Y026167D01*
X043112Y026122D01*
X043114Y026077D01*
X043105Y026077D01*
X043103Y026125D01*
X043096Y026174D01*
X043086Y026221D01*
X043072Y026268D01*
X043054Y026313D01*
X043033Y026356D01*
X043008Y026398D01*
X042980Y026438D01*
X042949Y026475D01*
X042915Y026509D01*
X042878Y026541D01*
X042873Y026534D01*
X042909Y026503D01*
X042942Y026469D01*
X042973Y026432D01*
X043001Y026393D01*
X043025Y026352D01*
X043046Y026309D01*
X043064Y026265D01*
X043077Y026219D01*
X043087Y026172D01*
X043094Y026125D01*
X043096Y026077D01*
X043087Y026077D01*
X043085Y026124D01*
X043079Y026171D01*
X043069Y026217D01*
X043055Y026262D01*
X043038Y026305D01*
X043017Y026348D01*
X042993Y026388D01*
X042966Y026427D01*
X042936Y026463D01*
X042903Y026496D01*
X042867Y026527D01*
X042894Y025582D02*
X042863Y025622D01*
X042864Y025621D02*
X042899Y025652D01*
X042932Y025685D01*
X042962Y025720D01*
X042989Y025759D01*
X043013Y025799D01*
X043033Y025841D01*
X043050Y025884D01*
X043064Y025929D01*
X043074Y025974D01*
X043080Y026020D01*
X043082Y026067D01*
X043131Y026067D01*
X043132Y026067D01*
X043130Y026021D01*
X043124Y025974D01*
X043115Y025929D01*
X043103Y025884D01*
X043087Y025840D01*
X043068Y025797D01*
X043046Y025756D01*
X043021Y025717D01*
X042994Y025680D01*
X042963Y025645D01*
X042930Y025612D01*
X042895Y025582D01*
X042889Y025589D01*
X042924Y025619D01*
X042957Y025651D01*
X042987Y025685D01*
X043014Y025722D01*
X043039Y025761D01*
X043060Y025801D01*
X043079Y025843D01*
X043094Y025886D01*
X043107Y025931D01*
X043115Y025976D01*
X043121Y026021D01*
X043123Y026067D01*
X043114Y026067D01*
X043112Y026022D01*
X043107Y025977D01*
X043098Y025933D01*
X043086Y025889D01*
X043071Y025847D01*
X043052Y025805D01*
X043031Y025765D01*
X043007Y025727D01*
X042980Y025691D01*
X042950Y025657D01*
X042918Y025625D01*
X042884Y025596D01*
X042878Y025603D01*
X042915Y025635D01*
X042949Y025669D01*
X042980Y025706D01*
X043008Y025746D01*
X043033Y025788D01*
X043054Y025831D01*
X043072Y025876D01*
X043086Y025923D01*
X043096Y025970D01*
X043103Y026019D01*
X043105Y026067D01*
X043096Y026067D01*
X043094Y026019D01*
X043087Y025972D01*
X043077Y025925D01*
X043064Y025879D01*
X043046Y025835D01*
X043025Y025792D01*
X043001Y025751D01*
X042973Y025712D01*
X042942Y025675D01*
X042909Y025641D01*
X042873Y025610D01*
X042867Y025617D01*
X042903Y025648D01*
X042936Y025681D01*
X042966Y025717D01*
X042993Y025756D01*
X043017Y025796D01*
X043038Y025839D01*
X043055Y025882D01*
X043069Y025927D01*
X043079Y025973D01*
X043085Y026020D01*
X043087Y026067D01*
D16*
X008609Y005181D02*
X003491Y005181D01*
X003491Y005180D02*
X003461Y005184D01*
X003431Y005192D01*
X003402Y005203D01*
X003374Y005218D01*
X003349Y005236D01*
X003326Y005257D01*
X003306Y005281D01*
X003289Y005307D01*
X003275Y005334D01*
X003264Y005364D01*
X003257Y005394D01*
X003254Y005425D01*
X003255Y005456D01*
X003255Y007385D01*
X003293Y007387D01*
X003330Y007393D01*
X003367Y007402D01*
X003402Y007415D01*
X003437Y007432D01*
X003469Y007452D01*
X003499Y007475D01*
X003526Y007501D01*
X003551Y007530D01*
X003572Y007561D01*
X003591Y007594D01*
X003606Y007629D01*
X003617Y007665D01*
X003625Y007702D01*
X003629Y007740D01*
X003629Y007778D01*
X003625Y007816D01*
X003617Y007853D01*
X003606Y007889D01*
X003591Y007924D01*
X003572Y007957D01*
X003551Y007988D01*
X003526Y008017D01*
X003499Y008043D01*
X003469Y008066D01*
X003437Y008086D01*
X003402Y008103D01*
X003367Y008116D01*
X003330Y008125D01*
X003293Y008131D01*
X003255Y008133D01*
X003255Y009354D01*
X003293Y009356D01*
X003330Y009362D01*
X003367Y009371D01*
X003402Y009384D01*
X003437Y009401D01*
X003469Y009421D01*
X003499Y009444D01*
X003526Y009470D01*
X003551Y009499D01*
X003572Y009530D01*
X003591Y009563D01*
X003606Y009598D01*
X003617Y009634D01*
X003625Y009671D01*
X003629Y009709D01*
X003629Y009747D01*
X003625Y009785D01*
X003617Y009822D01*
X003606Y009858D01*
X003591Y009893D01*
X003572Y009926D01*
X003551Y009957D01*
X003526Y009986D01*
X003499Y010012D01*
X003469Y010035D01*
X003437Y010055D01*
X003402Y010072D01*
X003367Y010085D01*
X003330Y010094D01*
X003293Y010100D01*
X003255Y010102D01*
X003255Y011322D01*
X003293Y011324D01*
X003330Y011330D01*
X003367Y011339D01*
X003402Y011352D01*
X003437Y011369D01*
X003469Y011389D01*
X003499Y011412D01*
X003526Y011438D01*
X003551Y011467D01*
X003572Y011498D01*
X003591Y011531D01*
X003606Y011566D01*
X003617Y011602D01*
X003625Y011639D01*
X003629Y011677D01*
X003629Y011715D01*
X003625Y011753D01*
X003617Y011790D01*
X003606Y011826D01*
X003591Y011861D01*
X003572Y011894D01*
X003551Y011925D01*
X003526Y011954D01*
X003499Y011980D01*
X003469Y012003D01*
X003437Y012023D01*
X003402Y012040D01*
X003367Y012053D01*
X003330Y012062D01*
X003293Y012068D01*
X003255Y012070D01*
X003255Y013960D01*
X003259Y013990D01*
X003267Y014020D01*
X003278Y014049D01*
X003293Y014077D01*
X003311Y014102D01*
X003332Y014125D01*
X003356Y014145D01*
X003382Y014162D01*
X003409Y014176D01*
X003439Y014187D01*
X003469Y014194D01*
X003500Y014197D01*
X003531Y014196D01*
X003530Y014196D02*
X008649Y014196D01*
X008679Y014192D01*
X008709Y014184D01*
X008738Y014173D01*
X008766Y014158D01*
X008791Y014140D01*
X008814Y014119D01*
X008834Y014095D01*
X008851Y014069D01*
X008865Y014042D01*
X008876Y014012D01*
X008883Y013982D01*
X008886Y013951D01*
X008885Y013920D01*
X008885Y013921D02*
X008885Y012070D01*
X008847Y012068D01*
X008810Y012062D01*
X008773Y012053D01*
X008738Y012040D01*
X008703Y012023D01*
X008671Y012003D01*
X008641Y011980D01*
X008614Y011954D01*
X008589Y011925D01*
X008568Y011894D01*
X008549Y011861D01*
X008534Y011826D01*
X008523Y011790D01*
X008515Y011753D01*
X008511Y011715D01*
X008511Y011677D01*
X008515Y011639D01*
X008523Y011602D01*
X008534Y011566D01*
X008549Y011531D01*
X008568Y011498D01*
X008589Y011467D01*
X008614Y011438D01*
X008641Y011412D01*
X008671Y011389D01*
X008703Y011369D01*
X008738Y011352D01*
X008773Y011339D01*
X008810Y011330D01*
X008847Y011324D01*
X008885Y011322D01*
X008885Y010102D01*
X008847Y010100D01*
X008810Y010094D01*
X008773Y010085D01*
X008738Y010072D01*
X008703Y010055D01*
X008671Y010035D01*
X008641Y010012D01*
X008614Y009986D01*
X008589Y009957D01*
X008568Y009926D01*
X008549Y009893D01*
X008534Y009858D01*
X008523Y009822D01*
X008515Y009785D01*
X008511Y009747D01*
X008511Y009709D01*
X008515Y009671D01*
X008523Y009634D01*
X008534Y009598D01*
X008549Y009563D01*
X008568Y009530D01*
X008589Y009499D01*
X008614Y009470D01*
X008641Y009444D01*
X008671Y009421D01*
X008703Y009401D01*
X008738Y009384D01*
X008773Y009371D01*
X008810Y009362D01*
X008847Y009356D01*
X008885Y009354D01*
X008885Y008133D01*
X008847Y008131D01*
X008810Y008125D01*
X008773Y008116D01*
X008738Y008103D01*
X008703Y008086D01*
X008671Y008066D01*
X008641Y008043D01*
X008614Y008017D01*
X008589Y007988D01*
X008568Y007957D01*
X008549Y007924D01*
X008534Y007889D01*
X008523Y007853D01*
X008515Y007816D01*
X008511Y007778D01*
X008511Y007740D01*
X008515Y007702D01*
X008523Y007665D01*
X008534Y007629D01*
X008549Y007594D01*
X008568Y007561D01*
X008589Y007530D01*
X008614Y007501D01*
X008641Y007475D01*
X008671Y007452D01*
X008703Y007432D01*
X008738Y007415D01*
X008773Y007402D01*
X008810Y007393D01*
X008847Y007387D01*
X008885Y007385D01*
X008885Y005417D01*
X008885Y005416D02*
X008881Y005386D01*
X008873Y005356D01*
X008862Y005327D01*
X008847Y005299D01*
X008829Y005274D01*
X008808Y005251D01*
X008784Y005231D01*
X008758Y005214D01*
X008731Y005200D01*
X008701Y005189D01*
X008671Y005182D01*
X008640Y005179D01*
X008609Y005180D01*
X007930Y006873D02*
X007932Y006898D01*
X007938Y006923D01*
X007947Y006947D01*
X007960Y006969D01*
X007977Y006989D01*
X007996Y007006D01*
X008017Y007020D01*
X008041Y007030D01*
X008065Y007037D01*
X008091Y007040D01*
X008116Y007039D01*
X008141Y007034D01*
X008165Y007025D01*
X008188Y007013D01*
X008208Y006998D01*
X008226Y006979D01*
X008241Y006958D01*
X008252Y006935D01*
X008260Y006911D01*
X008264Y006886D01*
X008264Y006860D01*
X008260Y006835D01*
X008252Y006811D01*
X008241Y006788D01*
X008226Y006767D01*
X008208Y006748D01*
X008188Y006733D01*
X008165Y006721D01*
X008141Y006712D01*
X008116Y006707D01*
X008091Y006706D01*
X008065Y006709D01*
X008041Y006716D01*
X008017Y006726D01*
X007996Y006740D01*
X007977Y006757D01*
X007960Y006777D01*
X007947Y006799D01*
X007938Y006823D01*
X007932Y006848D01*
X007930Y006873D01*
X009678Y008524D02*
X009678Y012274D01*
X014678Y012274D01*
X014678Y008524D01*
X009678Y008524D01*
X007467Y010102D02*
X004712Y010102D01*
X004712Y012070D01*
X007467Y012070D01*
X007467Y010102D01*
X005558Y013409D02*
X005560Y013455D01*
X005566Y013500D01*
X005576Y013545D01*
X005589Y013588D01*
X005606Y013631D01*
X005627Y013671D01*
X005651Y013710D01*
X005679Y013746D01*
X005710Y013780D01*
X005743Y013812D01*
X005779Y013840D01*
X005817Y013865D01*
X005857Y013887D01*
X005899Y013905D01*
X005942Y013919D01*
X005987Y013930D01*
X006032Y013937D01*
X006078Y013940D01*
X006123Y013939D01*
X006169Y013934D01*
X006214Y013925D01*
X006257Y013913D01*
X006300Y013896D01*
X006341Y013876D01*
X006380Y013853D01*
X006418Y013826D01*
X006452Y013796D01*
X006484Y013764D01*
X006513Y013728D01*
X006539Y013691D01*
X006562Y013651D01*
X006581Y013610D01*
X006596Y013567D01*
X006608Y013522D01*
X006616Y013477D01*
X006620Y013432D01*
X006620Y013386D01*
X006616Y013341D01*
X006608Y013296D01*
X006596Y013251D01*
X006581Y013208D01*
X006562Y013167D01*
X006539Y013127D01*
X006513Y013090D01*
X006484Y013054D01*
X006452Y013022D01*
X006418Y012992D01*
X006380Y012965D01*
X006341Y012942D01*
X006300Y012922D01*
X006257Y012905D01*
X006214Y012893D01*
X006169Y012884D01*
X006123Y012879D01*
X006078Y012878D01*
X006032Y012881D01*
X005987Y012888D01*
X005942Y012899D01*
X005899Y012913D01*
X005857Y012931D01*
X005817Y012953D01*
X005779Y012978D01*
X005743Y013006D01*
X005710Y013038D01*
X005679Y013072D01*
X005651Y013108D01*
X005627Y013147D01*
X005606Y013187D01*
X005589Y013230D01*
X005576Y013273D01*
X005566Y013318D01*
X005560Y013363D01*
X005558Y013409D01*
X026922Y007953D02*
X026922Y007441D01*
X027591Y007441D01*
X027591Y007953D01*
X026922Y007953D01*
X027375Y007933D02*
X027375Y007461D01*
X027414Y007461D02*
X027414Y007933D01*
X027375Y007933D01*
X028318Y007780D02*
X028318Y005615D01*
X028319Y005598D01*
X028324Y005581D01*
X028331Y005566D01*
X028341Y005552D01*
X028353Y005540D01*
X028367Y005530D01*
X028382Y005523D01*
X028399Y005518D01*
X028416Y005517D01*
X028416Y005516D02*
X028574Y005516D01*
X028712Y006107D02*
X029302Y006107D01*
X029302Y007288D01*
X028712Y007288D01*
X028712Y006107D01*
X029440Y005516D02*
X029597Y005516D01*
X029598Y005516D02*
X029618Y005521D01*
X029637Y005530D01*
X029654Y005541D01*
X029669Y005556D01*
X029681Y005573D01*
X029690Y005592D01*
X029696Y005612D01*
X029698Y005633D01*
X029696Y005654D01*
X029696Y007780D01*
X029695Y007780D02*
X029694Y007797D01*
X029689Y007814D01*
X029682Y007829D01*
X029672Y007843D01*
X029660Y007855D01*
X029646Y007865D01*
X029631Y007872D01*
X029614Y007877D01*
X029597Y007878D01*
X029440Y007878D01*
X028574Y007878D02*
X028416Y007878D01*
X028399Y007877D01*
X028382Y007872D01*
X028367Y007865D01*
X028353Y007855D01*
X028341Y007843D01*
X028331Y007829D01*
X028324Y007814D01*
X028319Y007797D01*
X028318Y007780D01*
X036200Y007002D02*
X036200Y008892D01*
X038168Y008892D01*
X038168Y007002D01*
X036200Y007002D01*
X036121Y005979D02*
X041712Y005979D01*
X041712Y010782D01*
X036121Y010782D01*
X036121Y005979D01*
X038719Y007002D02*
X038719Y008892D01*
X040688Y008892D01*
X040688Y007002D01*
X038719Y007002D01*
X038641Y009286D02*
X037617Y009286D01*
X037617Y010231D01*
X038641Y010231D01*
X038641Y009286D01*
X038180Y023706D02*
X039834Y023706D01*
X039834Y025438D01*
X038180Y025438D01*
X038180Y023706D01*
X041677Y024952D02*
X041987Y024952D01*
X041827Y025092D02*
X041827Y024802D01*
X041827Y026802D02*
X041827Y027092D01*
X041677Y026952D02*
X041987Y026952D01*
D17*
X018957Y006072D03*
X016807Y006072D03*
X015082Y005822D03*
X012932Y005822D03*
D18*
X022224Y005685D02*
X023035Y005685D01*
X023035Y006709D02*
X022224Y006709D01*
X027017Y022082D02*
X027017Y022535D01*
X027017Y022082D02*
X029497Y022082D01*
X029497Y022535D01*
X029497Y024110D02*
X029497Y024562D01*
X027017Y024562D01*
X027017Y024110D01*
X026578Y024478D02*
X026401Y024478D01*
X026578Y024478D02*
X026578Y022667D01*
X026401Y022667D01*
X025613Y022667D02*
X025436Y022667D01*
X025436Y024478D01*
X025613Y024478D01*
X025613Y023966D02*
X026401Y023966D01*
D19*
X022345Y006197D03*
D20*
X020507Y006317D02*
X020257Y006317D01*
X020007Y006317D01*
X020007Y006567D02*
X020257Y006567D01*
X020507Y006567D01*
D21*
X019382Y007872D03*
X019382Y010022D03*
D22*
X008735Y012409D02*
X008275Y012409D01*
X008275Y012256D02*
X008275Y012563D01*
X008582Y012256D02*
X008735Y012409D01*
X003235Y012563D02*
X003158Y012409D01*
X003005Y012256D01*
X003005Y012486D01*
X002928Y012563D01*
X002852Y012563D01*
X002775Y012486D01*
X002775Y012333D01*
X002852Y012256D01*
X003005Y012256D01*
X041102Y009252D02*
X041562Y009252D01*
X041332Y009021D01*
X041332Y009328D01*
X041485Y008868D02*
X041178Y008561D01*
X041102Y008638D01*
X041102Y008791D01*
X041178Y008868D01*
X041485Y008868D01*
X041562Y008791D01*
X041562Y008638D01*
X041485Y008561D01*
X041178Y008561D01*
X041332Y008408D02*
X041255Y008331D01*
X041255Y008101D01*
X041102Y008101D02*
X041562Y008101D01*
X041562Y008331D01*
X041485Y008408D01*
X041332Y008408D01*
X041255Y007947D02*
X041178Y007947D01*
X041102Y007870D01*
X041102Y007717D01*
X041178Y007640D01*
X041102Y007487D02*
X041102Y007180D01*
X041562Y007180D01*
X041562Y007487D01*
X041485Y007640D02*
X041409Y007640D01*
X041332Y007717D01*
X041332Y007870D01*
X041255Y007947D01*
X041485Y007947D02*
X041562Y007870D01*
X041562Y007717D01*
X041485Y007640D01*
X041332Y007333D02*
X041332Y007180D01*
D23*
X013428Y011274D03*
D24*
X011944Y012681D02*
X011944Y013547D01*
X011943Y013560D01*
X011938Y013573D01*
X011931Y013584D01*
X011922Y013593D01*
X011911Y013600D01*
X011898Y013605D01*
X011885Y013606D01*
X011038Y013606D01*
X011019Y013606D01*
X011006Y013605D01*
X010993Y013600D01*
X010982Y013593D01*
X010973Y013584D01*
X010966Y013573D01*
X010961Y013560D01*
X010960Y013547D01*
X010960Y012701D01*
X010960Y012681D01*
X010961Y012668D01*
X010966Y012655D01*
X010973Y012644D01*
X010982Y012635D01*
X010993Y012628D01*
X011006Y012623D01*
X011019Y012622D01*
X011865Y012622D01*
X011885Y012622D01*
X011898Y012623D01*
X011911Y012628D01*
X011922Y012635D01*
X011931Y012644D01*
X011938Y012655D01*
X011943Y012668D01*
X011944Y012681D01*
X011039Y012917D02*
X011041Y012929D01*
X011046Y012940D01*
X011055Y012949D01*
X011066Y012954D01*
X011078Y012956D01*
X011090Y012954D01*
X011101Y012949D01*
X011110Y012940D01*
X011115Y012929D01*
X011117Y012917D01*
X011115Y012905D01*
X011110Y012894D01*
X011101Y012885D01*
X011090Y012880D01*
X011078Y012878D01*
X011066Y012880D01*
X011055Y012885D01*
X011046Y012894D01*
X011041Y012905D01*
X011039Y012917D01*
D25*
X011019Y012721D02*
X011020Y012711D01*
X011024Y012701D01*
X011030Y012693D01*
X011039Y012687D01*
X011048Y012683D01*
X011058Y012682D01*
X011846Y012682D02*
X011856Y012683D01*
X011865Y012687D01*
X011874Y012693D01*
X011880Y012701D01*
X011884Y012711D01*
X011885Y012721D01*
X011885Y013508D02*
X011884Y013518D01*
X011880Y013527D01*
X011874Y013536D01*
X011866Y013542D01*
X011856Y013546D01*
X011846Y013547D01*
X011058Y013547D02*
X011048Y013546D01*
X011039Y013542D01*
X011030Y013536D01*
X011024Y013527D01*
X011020Y013518D01*
X011019Y013508D01*
D26*
X038377Y023903D03*
M02*
