G75*
G70*
%OFA0B0*%
%FSLAX24Y24*%
%IPPOS*%
%LPD*%
%AMOC8*
5,1,8,0,0,1.08239X$1,22.5*
%
%ADD10R,0.1680X0.0680*%
%ADD11C,0.0520*%
%ADD12R,0.0592X0.0710*%
%ADD13R,0.0710X0.0592*%
%ADD14OC8,0.0680*%
%ADD15C,0.0740*%
%ADD16R,0.0550X0.0300*%
%ADD17R,0.0300X0.0550*%
%ADD18R,0.0592X0.0671*%
%ADD19R,0.0395X0.0552*%
%ADD20R,0.0217X0.0630*%
%ADD21R,0.0631X0.0237*%
%ADD22R,0.0828X0.0867*%
%ADD23R,0.0828X0.0946*%
%ADD24R,0.0552X0.0552*%
%ADD25C,0.0680*%
%ADD26OC8,0.0740*%
%ADD27R,0.0671X0.0592*%
%ADD28R,0.0552X0.0395*%
%ADD29R,0.0710X0.0986*%
%ADD30OC8,0.0600*%
%ADD31R,0.0474X0.0631*%
%ADD32R,0.0474X0.0395*%
%ADD33R,0.0828X0.1419*%
%ADD34R,0.0789X0.1025*%
%ADD35R,0.0631X0.0474*%
%ADD36R,0.0474X0.0671*%
%ADD37C,0.0940*%
%ADD38C,0.0702*%
%ADD39C,0.1630*%
%ADD40C,0.0612*%
%ADD41R,0.0218X0.0277*%
%ADD42R,0.0592X0.0356*%
%ADD43OC8,0.0780*%
%ADD44C,0.0640*%
%ADD45C,0.0900*%
%ADD46C,0.0700*%
%ADD47R,0.0631X0.0395*%
%ADD48C,0.0660*%
%ADD49R,0.0671X0.1025*%
%ADD50R,0.0870X0.0670*%
%ADD51R,0.0870X0.1580*%
%ADD52OC8,0.1080*%
%ADD53R,0.0659X0.0580*%
%ADD54R,0.0867X0.0867*%
%ADD55C,0.0476*%
D10*
X042632Y007572D03*
X042632Y009572D03*
D11*
X024132Y011102D02*
X024132Y011542D01*
X022132Y011542D02*
X022132Y011102D01*
D12*
X021988Y012072D03*
X022776Y012072D03*
X023488Y012072D03*
X024276Y012072D03*
X039738Y018572D03*
X040526Y018572D03*
X023776Y023697D03*
X022988Y023697D03*
D13*
X025382Y025554D03*
X025382Y026341D03*
X029429Y026273D03*
X029429Y025486D03*
X033632Y025841D03*
X033632Y025054D03*
X036257Y025554D03*
X036257Y026341D03*
X023007Y011466D03*
X023007Y010679D03*
X017382Y006591D03*
X017382Y005804D03*
X013632Y005804D03*
X013632Y006591D03*
X011757Y006591D03*
X011757Y005804D03*
X010309Y012594D03*
X010309Y013381D03*
X035257Y006591D03*
X035257Y005804D03*
D14*
X034257Y006072D03*
X033257Y006072D03*
X032257Y006072D03*
X031257Y006072D03*
X030257Y006072D03*
X030257Y007072D03*
X031257Y007072D03*
X032257Y007072D03*
X033257Y007072D03*
X034257Y007072D03*
D15*
X025257Y009072D03*
X025257Y010072D03*
X015436Y007716D03*
X015436Y012924D03*
X002044Y012924D03*
X002044Y007716D03*
D16*
X026561Y011210D03*
X026561Y011525D03*
X026561Y011840D03*
X026561Y012155D03*
X026561Y012470D03*
X026561Y012785D03*
X026561Y013100D03*
X026561Y013415D03*
X026561Y013730D03*
X026561Y014045D03*
X026561Y014360D03*
X026561Y014675D03*
X026561Y014990D03*
X026561Y015305D03*
X026561Y015620D03*
X026561Y015934D03*
X032703Y015934D03*
X032703Y015620D03*
X032703Y015305D03*
X032703Y014990D03*
X032703Y014675D03*
X032703Y014360D03*
X032703Y014045D03*
X032703Y013730D03*
X032703Y013415D03*
X032703Y013100D03*
X032703Y012785D03*
X032703Y012470D03*
X032703Y012155D03*
X032703Y011840D03*
X032703Y011525D03*
X032703Y011210D03*
D17*
X031994Y010501D03*
X031679Y010501D03*
X031364Y010501D03*
X031049Y010501D03*
X030734Y010501D03*
X030419Y010501D03*
X030104Y010501D03*
X029789Y010501D03*
X029474Y010501D03*
X029159Y010501D03*
X028844Y010501D03*
X028529Y010501D03*
X028215Y010501D03*
X027900Y010501D03*
X027585Y010501D03*
X027270Y010501D03*
X027270Y016643D03*
X027585Y016643D03*
X027900Y016643D03*
X028215Y016643D03*
X028529Y016643D03*
X028844Y016643D03*
X029159Y016643D03*
X029474Y016643D03*
X029789Y016643D03*
X030104Y016643D03*
X030419Y016643D03*
X030734Y016643D03*
X031049Y016643D03*
X031364Y016643D03*
X031679Y016643D03*
X031994Y016643D03*
D18*
X037758Y019822D03*
X038506Y019822D03*
X039383Y019822D03*
X040131Y019822D03*
X031006Y022072D03*
X030258Y022072D03*
X030258Y026197D03*
X031006Y026197D03*
X031758Y026197D03*
X032506Y026197D03*
X020841Y025947D03*
X020172Y025947D03*
X041508Y012947D03*
X042256Y012947D03*
X033006Y007947D03*
X032258Y007947D03*
D19*
X037402Y018572D03*
X038111Y018572D03*
X042027Y018822D03*
X042736Y018822D03*
D20*
X040420Y017762D03*
X040164Y017762D03*
X039908Y017762D03*
X039652Y017762D03*
X039397Y017762D03*
X039141Y017762D03*
X038885Y017762D03*
X038629Y017762D03*
X038373Y017762D03*
X038117Y017762D03*
X037861Y017762D03*
X037605Y017762D03*
X037349Y017762D03*
X037093Y017762D03*
X037093Y014883D03*
X037349Y014883D03*
X037605Y014883D03*
X037861Y014883D03*
X038117Y014883D03*
X038373Y014883D03*
X038629Y014883D03*
X038885Y014883D03*
X039141Y014883D03*
X039397Y014883D03*
X039652Y014883D03*
X039908Y014883D03*
X040164Y014883D03*
X040420Y014883D03*
D21*
X041260Y015560D03*
X041260Y015816D03*
X041260Y016072D03*
X041260Y016328D03*
X041260Y016584D03*
D22*
X042382Y016564D03*
X042382Y015580D03*
D23*
X042382Y014497D03*
X042382Y017647D03*
D24*
X040170Y020572D03*
X039343Y020572D03*
X038795Y020572D03*
X037968Y020572D03*
D25*
X035257Y023822D03*
X035257Y024822D03*
X035257Y025822D03*
D26*
X042507Y025572D03*
X042507Y024572D03*
X042507Y023572D03*
X042507Y026572D03*
D27*
X041507Y026196D03*
X041507Y025448D03*
X041507Y024571D03*
X041507Y023823D03*
X039757Y026073D03*
X039757Y026821D03*
X038882Y026821D03*
X038882Y026073D03*
X038007Y026073D03*
X037132Y026073D03*
X037132Y026821D03*
X038007Y026821D03*
X037132Y025071D03*
X037132Y024323D03*
X031882Y022821D03*
X031882Y022073D03*
X031507Y024573D03*
X031507Y025321D03*
X030382Y019946D03*
X030382Y019198D03*
X033132Y017907D03*
X033132Y017238D03*
X026132Y008157D03*
X026132Y007488D03*
X026132Y006532D03*
X026132Y005863D03*
X018132Y005823D03*
X018132Y006571D03*
X012507Y007448D03*
X012507Y008196D03*
X010132Y008196D03*
X010132Y007448D03*
X010757Y006571D03*
X010757Y005823D03*
X014382Y012698D03*
X014382Y013446D03*
X012632Y013198D03*
X012632Y013946D03*
D28*
X040632Y013427D03*
X040632Y012718D03*
D29*
X029007Y007937D03*
X029007Y005457D03*
D30*
X020257Y005447D03*
X019382Y006072D03*
X019382Y007447D03*
X020257Y007447D03*
X016382Y006072D03*
X015507Y005822D03*
X012507Y005822D03*
X019382Y010447D03*
D31*
X024757Y007255D03*
X025131Y006389D03*
X024383Y006389D03*
X026883Y006630D03*
X027631Y006630D03*
X027257Y005764D03*
X009881Y005764D03*
X009133Y005764D03*
X009507Y006630D03*
X030258Y022889D03*
X031006Y022889D03*
X030632Y023755D03*
D32*
X027651Y007697D03*
X026863Y007697D03*
D33*
X023400Y007572D03*
X021864Y007572D03*
D34*
X021835Y006197D03*
X023429Y006197D03*
D35*
X011690Y007822D03*
X010824Y007448D03*
X010824Y008196D03*
X030324Y020698D03*
X030324Y021446D03*
X031190Y021072D03*
X033949Y017946D03*
X034815Y017572D03*
X033949Y017198D03*
X030815Y024573D03*
X029949Y024947D03*
X030815Y025321D03*
D36*
X036672Y010861D03*
X037460Y010861D03*
X038247Y010861D03*
X039034Y010861D03*
X039822Y010861D03*
X040609Y010861D03*
X041397Y010861D03*
X041397Y005900D03*
X040609Y005900D03*
X039822Y005900D03*
X039034Y005900D03*
X038247Y005900D03*
X037460Y005900D03*
X036672Y005900D03*
D37*
X020452Y010323D03*
X016318Y007170D03*
D38*
X008799Y007721D02*
X008799Y007799D01*
X008877Y007799D01*
X008877Y007721D01*
X008799Y007721D01*
X008800Y009689D02*
X008800Y009767D01*
X008878Y009767D01*
X008878Y009689D01*
X008800Y009689D01*
X008800Y011657D02*
X008800Y011735D01*
X008878Y011735D01*
X008878Y011657D01*
X008800Y011657D01*
X003257Y011659D02*
X003257Y011737D01*
X003335Y011737D01*
X003335Y011659D01*
X003257Y011659D01*
X003255Y009764D02*
X003255Y009686D01*
X003255Y009764D02*
X003333Y009764D01*
X003333Y009686D01*
X003255Y009686D01*
X003260Y007798D02*
X003260Y007720D01*
X003260Y007798D02*
X003338Y007798D01*
X003338Y007720D01*
X003260Y007720D01*
D39*
X013678Y009399D03*
D40*
X010087Y008865D02*
X010019Y008865D01*
X010019Y008933D01*
X010087Y008933D01*
X010087Y008865D01*
X010087Y009865D02*
X010019Y009865D01*
X010019Y009933D01*
X010087Y009933D01*
X010087Y009865D01*
X010087Y010865D02*
X010019Y010865D01*
X010019Y010933D01*
X010087Y010933D01*
X010087Y010865D01*
X010087Y011865D02*
X010019Y011865D01*
X010019Y011933D01*
X010087Y011933D01*
X010087Y011865D01*
D41*
X011068Y012711D03*
X011324Y012711D03*
X011580Y012711D03*
X011836Y012711D03*
X011836Y013518D03*
X011580Y013518D03*
X011324Y013518D03*
X011068Y013518D03*
D42*
X037924Y023822D03*
X037924Y024322D03*
X037924Y024822D03*
X037924Y025322D03*
X040090Y025322D03*
X040090Y024822D03*
X040090Y024322D03*
X040090Y023822D03*
D43*
X019507Y023947D03*
X019507Y022947D03*
X019507Y021947D03*
X019507Y020947D03*
X019507Y024947D03*
X019507Y025947D03*
D44*
X035507Y021572D03*
X035507Y020572D03*
X035507Y019572D03*
X035507Y018572D03*
X035507Y017572D03*
X035507Y016572D03*
X035507Y015572D03*
X035507Y014572D03*
X035507Y013572D03*
X035507Y012572D03*
X035507Y011572D03*
X035507Y010572D03*
D45*
X041523Y020069D03*
X041523Y022825D03*
D46*
X042507Y022432D03*
X042507Y020463D03*
D47*
X027787Y025107D03*
X027787Y026287D03*
D48*
X026209Y025807D02*
X026209Y025587D01*
X026209Y025807D02*
X027065Y025807D01*
X027065Y025587D01*
X026209Y025587D01*
D49*
X027174Y023322D03*
X029340Y023322D03*
D50*
X024622Y024537D03*
X024622Y025437D03*
X024622Y026337D03*
D51*
X022142Y025447D03*
D52*
X036902Y021947D03*
X039862Y021947D03*
D53*
X026007Y022726D03*
X026007Y024419D03*
D54*
X000974Y004415D03*
X000974Y027643D03*
X043100Y027643D03*
X043100Y004415D03*
D55*
X040007Y008572D03*
X040507Y008947D03*
X040007Y009447D03*
X039382Y009947D03*
X039007Y009572D03*
X036444Y012072D03*
X037132Y013072D03*
X037132Y014072D03*
X039382Y013697D03*
X040007Y013697D03*
X041632Y013697D03*
X040507Y012197D03*
X034882Y011072D03*
X034132Y011572D03*
X031257Y012572D03*
X031007Y013550D03*
X029882Y013072D03*
X029757Y014072D03*
X029632Y014697D03*
X031007Y014572D03*
X031632Y014572D03*
X033382Y014822D03*
X034007Y014697D03*
X031007Y015947D03*
X027234Y013550D03*
X028507Y013072D03*
X028507Y012072D03*
X028882Y011072D03*
X030382Y011572D03*
X031239Y009572D03*
X032007Y009072D03*
X032382Y008572D03*
X031007Y008197D03*
X030007Y008197D03*
X028007Y008697D03*
X027007Y008697D03*
X028007Y005697D03*
X025132Y005697D03*
X033757Y009072D03*
X025882Y014697D03*
X021382Y015947D03*
X020382Y015947D03*
X020382Y015322D03*
X019507Y014572D03*
X019507Y013197D03*
X020882Y012572D03*
X021382Y013072D03*
X020382Y011572D03*
X015507Y006572D03*
X014257Y006572D03*
X009547Y008413D03*
X009547Y013350D03*
X020757Y022197D03*
X020132Y023197D03*
X021507Y023947D03*
X020132Y024947D03*
X020757Y025447D03*
X021507Y026572D03*
X028507Y026447D03*
X032132Y024197D03*
X033757Y024197D03*
X032507Y022822D03*
X035507Y022822D03*
X036632Y020072D03*
X034007Y018947D03*
X033382Y019572D03*
X031632Y019072D03*
X031199Y020072D03*
X040632Y023822D03*
X040632Y026197D03*
X033757Y026447D03*
X041632Y018697D03*
M02*
