%
M48
M72
T01C0.0197
T02C0.0236
T03C0.0315
T04C0.0320
T05C0.0400
T06C0.0472
%
T01
X974Y1319
X14206Y3566
X15456Y3566
X21581Y7941
X20331Y8691
X20081Y9191
X19831Y9691
X21456Y10191
X20581Y10566
X19831Y11316
X19956Y12566
X20706Y12566
X21456Y12565
X23456Y13566
X24581Y13941
X24081Y15066
X21331Y13941
X25831Y12316
X27581Y10441
X28456Y9941
X29831Y9941
X30581Y10441
X29706Y10941
X30706Y11441
X31581Y11441
X33331Y11441
X33831Y11066
X34956Y11316
X35581Y11316
X36081Y11691
X35581Y12066
X36081Y12441
X36081Y13191
X35456Y13191
X34831Y13191
X32456Y13816
X31956Y14691
X31706Y15191
X33081Y16441
X33581Y17691
X33581Y19191
X31831Y19676
X31831Y19691
X30081Y19191
X30706Y17691
X28706Y17191
X24581Y18066
X21081Y20191
X19831Y20191
X19706Y20566
X19706Y21066
X19706Y21566
X20081Y21566
X19706Y22066
X19706Y22566
X20081Y22566
X19706Y23066
X20081Y23566
X31831Y23441
X34831Y21941
X35831Y21941
X36456Y23816
X39706Y22316
X40831Y21441
X40831Y23316
X41331Y23816
X43100Y24547
X36831Y17191
X36831Y16566
X36831Y15941
X42581Y15816
X36831Y10941
X37206Y10441
X36831Y9941
X34956Y8941
X34206Y8441
X34581Y7941
X36831Y6441
X38206Y6441
X40081Y5441
X41581Y5441
X38206Y4441
X36831Y3691
X38206Y2357
X43100Y1319
X40581Y8316
X40081Y9066
X42581Y10441
X31206Y9441
X30706Y8441
X28831Y7941
X27831Y8316
X28456Y8941
X28081Y5566
X25331Y4191
X23831Y2941
X25081Y2566
X27956Y2566
X974Y24547
T02
X10423Y17264
T03
X15443Y9783
X20452Y7227
X15443Y4665
X16318Y4074
X2057Y4665
X2057Y9783
X42507Y17367
X42507Y19336
T04
X42456Y20441
X42456Y21441
X42456Y22441
X42456Y23441
X19331Y7441
X20706Y5816
X19331Y4441
X19456Y2816
X20706Y2816
X16456Y2816
X15456Y2816
X12456Y2816
T05
X34064Y4450
X35064Y4450
X35064Y5450
X34064Y5450
X34064Y6450
X35064Y6450
X38331Y18586
X34831Y18816
X34831Y20941
X34831Y23066
X38331Y21546
T06
X41523Y19729
X41523Y16973
M30
