G75*
G70*
%OFA0B0*%
%FSLAX24Y24*%
%IPPOS*%
%LPD*%
%AMOC8*
5,1,8,0,0,1.08239X$1,22.5*
%
%ADD10C,0.0039*%
%ADD11C,0.0160*%
%ADD12R,0.7749X0.1575*%
%ADD13C,0.0030*%
%ADD14C,0.0060*%
%ADD15C,0.0000*%
%ADD16C,0.0040*%
%ADD17R,0.0079X0.0039*%
%ADD18R,0.0039X0.0039*%
%ADD19R,0.0118X0.0039*%
%ADD20R,0.0236X0.0039*%
%ADD21R,0.0157X0.0039*%
%ADD22R,0.0512X0.0039*%
%ADD23R,0.0197X0.0039*%
%ADD24R,0.0315X0.0039*%
%ADD25R,0.0354X0.0039*%
%ADD26R,0.0276X0.0039*%
%ADD27R,0.0394X0.0039*%
%ADD28R,0.0472X0.0039*%
%ADD29R,0.0433X0.0039*%
%ADD30R,0.0551X0.0039*%
%ADD31R,0.0591X0.0039*%
%ADD32R,0.1417X0.0039*%
%ADD33R,0.1457X0.0039*%
%ADD34R,0.1496X0.0039*%
%ADD35R,0.0669X0.0039*%
%ADD36R,0.0709X0.0039*%
%ADD37R,0.0827X0.0039*%
%ADD38R,0.1732X0.0039*%
%ADD39R,0.1535X0.0039*%
%ADD40R,0.1260X0.0039*%
%ADD41R,0.0945X0.0039*%
%ADD42R,0.0630X0.0039*%
%ADD43R,0.0984X0.0039*%
%ADD44R,0.0866X0.0039*%
%ADD45R,0.1102X0.0039*%
%ADD46R,0.0906X0.0039*%
%ADD47R,0.0787X0.0039*%
%ADD48R,0.1181X0.0039*%
%ADD49R,0.0748X0.0039*%
%ADD50R,0.1575X0.0039*%
%ADD51R,0.1378X0.0039*%
%ADD52R,0.1339X0.0039*%
%ADD53R,0.1024X0.0039*%
%ADD54R,0.1220X0.0039*%
%ADD55R,0.1063X0.0039*%
%ADD56R,0.2283X0.0039*%
%ADD57R,0.2244X0.0039*%
%ADD58R,0.2205X0.0039*%
%ADD59R,0.2165X0.0039*%
%ADD60R,0.2362X0.0039*%
%ADD61R,0.2402X0.0039*%
%ADD62R,0.2441X0.0039*%
%ADD63R,0.2520X0.0039*%
%ADD64R,0.2559X0.0039*%
%ADD65R,0.2598X0.0039*%
%ADD66R,0.2638X0.0039*%
%ADD67R,0.0200X0.0150*%
%ADD68C,0.0080*%
%ADD69R,0.0266X0.0965*%
%ADD70R,0.0150X0.0200*%
%ADD71C,0.0050*%
%ADD72C,0.0240*%
D10*
X000569Y000913D02*
X043482Y000913D01*
X043482Y001701D01*
X043482Y024909D01*
X043494Y024941D02*
X000581Y024941D01*
X000569Y024909D02*
X000569Y001701D01*
X043482Y001701D01*
X019281Y011358D02*
X001171Y011358D01*
X001171Y023169D01*
X019281Y023169D01*
X019281Y011358D01*
X000569Y001701D02*
X000569Y000913D01*
X000581Y024153D02*
X043494Y024153D01*
D11*
X008848Y017264D02*
X008850Y017343D01*
X008856Y017422D01*
X008866Y017501D01*
X008880Y017579D01*
X008897Y017656D01*
X008919Y017732D01*
X008944Y017807D01*
X008974Y017880D01*
X009006Y017952D01*
X009043Y018023D01*
X009083Y018091D01*
X009126Y018157D01*
X009172Y018221D01*
X009222Y018283D01*
X009275Y018342D01*
X009330Y018398D01*
X009389Y018452D01*
X009450Y018502D01*
X009513Y018550D01*
X009579Y018594D01*
X009647Y018635D01*
X009717Y018672D01*
X009788Y018706D01*
X009862Y018736D01*
X009936Y018762D01*
X010012Y018784D01*
X010089Y018803D01*
X010167Y018818D01*
X010245Y018829D01*
X010324Y018836D01*
X010403Y018839D01*
X010482Y018838D01*
X010561Y018833D01*
X010640Y018824D01*
X010718Y018811D01*
X010795Y018794D01*
X010872Y018774D01*
X010947Y018749D01*
X011021Y018721D01*
X011094Y018689D01*
X011164Y018654D01*
X011233Y018615D01*
X011300Y018572D01*
X011365Y018526D01*
X011427Y018478D01*
X011487Y018426D01*
X011544Y018371D01*
X011598Y018313D01*
X011649Y018253D01*
X011697Y018190D01*
X011742Y018125D01*
X011784Y018057D01*
X011822Y017988D01*
X011856Y017917D01*
X011887Y017844D01*
X011915Y017769D01*
X011938Y017694D01*
X011958Y017617D01*
X011974Y017540D01*
X011986Y017461D01*
X011994Y017383D01*
X011998Y017304D01*
X011998Y017224D01*
X011994Y017145D01*
X011986Y017067D01*
X011974Y016988D01*
X011958Y016911D01*
X011938Y016834D01*
X011915Y016759D01*
X011887Y016684D01*
X011856Y016611D01*
X011822Y016540D01*
X011784Y016471D01*
X011742Y016403D01*
X011697Y016338D01*
X011649Y016275D01*
X011598Y016215D01*
X011544Y016157D01*
X011487Y016102D01*
X011427Y016050D01*
X011365Y016002D01*
X011300Y015956D01*
X011233Y015913D01*
X011164Y015874D01*
X011094Y015839D01*
X011021Y015807D01*
X010947Y015779D01*
X010872Y015754D01*
X010795Y015734D01*
X010718Y015717D01*
X010640Y015704D01*
X010561Y015695D01*
X010482Y015690D01*
X010403Y015689D01*
X010324Y015692D01*
X010245Y015699D01*
X010167Y015710D01*
X010089Y015725D01*
X010012Y015744D01*
X009936Y015766D01*
X009862Y015792D01*
X009788Y015822D01*
X009717Y015856D01*
X009647Y015893D01*
X009579Y015934D01*
X009513Y015978D01*
X009450Y016026D01*
X009389Y016076D01*
X009330Y016130D01*
X009275Y016186D01*
X009222Y016245D01*
X009172Y016307D01*
X009126Y016371D01*
X009083Y016437D01*
X009043Y016505D01*
X009006Y016576D01*
X008974Y016648D01*
X008944Y016721D01*
X008919Y016796D01*
X008897Y016872D01*
X008880Y016949D01*
X008866Y017027D01*
X008856Y017106D01*
X008850Y017185D01*
X008848Y017264D01*
D12*
X004729Y003114D03*
D13*
X003975Y002295D02*
X003975Y002234D01*
X003975Y002110D02*
X003975Y001863D01*
X004036Y001863D02*
X003913Y001863D01*
X003913Y002110D02*
X003975Y002110D01*
X003791Y002110D02*
X003729Y002110D01*
X003606Y001987D01*
X003484Y001987D02*
X003484Y002049D01*
X003423Y002110D01*
X003299Y002110D01*
X003238Y002049D01*
X003238Y001925D01*
X003299Y001863D01*
X003423Y001863D01*
X003484Y001987D02*
X003238Y001987D01*
X003116Y001925D02*
X003054Y001987D01*
X002931Y001987D01*
X002869Y002049D01*
X002931Y002110D01*
X003116Y002110D01*
X003116Y001925D02*
X003054Y001863D01*
X002869Y001863D01*
X003606Y001863D02*
X003606Y002110D01*
X004158Y001925D02*
X004220Y001987D01*
X004405Y001987D01*
X004405Y002049D02*
X004405Y001863D01*
X004220Y001863D01*
X004158Y001925D01*
X004220Y002110D02*
X004344Y002110D01*
X004405Y002049D01*
X004527Y002234D02*
X004588Y002234D01*
X004588Y001863D01*
X004527Y001863D02*
X004650Y001863D01*
X005141Y001863D02*
X005141Y002110D01*
X005326Y002110D01*
X005387Y002049D01*
X005387Y001863D01*
X005509Y001925D02*
X005509Y002110D01*
X005509Y001925D02*
X005571Y001863D01*
X005756Y001863D01*
X005756Y002110D01*
X005877Y002110D02*
X005877Y001863D01*
X006001Y001863D02*
X006001Y002049D01*
X006062Y002110D01*
X006124Y002049D01*
X006124Y001863D01*
X006245Y001863D02*
X006431Y001863D01*
X006492Y001925D01*
X006492Y002049D01*
X006431Y002110D01*
X006245Y002110D01*
X006245Y002234D02*
X006245Y001863D01*
X006001Y002049D02*
X005939Y002110D01*
X005877Y002110D01*
X006614Y002049D02*
X006614Y001925D01*
X006676Y001863D01*
X006799Y001863D01*
X006861Y001987D02*
X006614Y001987D01*
X006614Y002049D02*
X006676Y002110D01*
X006799Y002110D01*
X006861Y002049D01*
X006861Y001987D01*
X006982Y001987D02*
X007106Y002110D01*
X007167Y002110D01*
X006982Y002110D02*
X006982Y001863D01*
X006955Y023598D02*
X006955Y023844D01*
X007141Y023844D01*
X007202Y023783D01*
X007202Y023598D01*
X007324Y023598D02*
X007447Y023598D01*
X007385Y023598D02*
X007385Y023844D01*
X007324Y023844D01*
X007385Y023968D02*
X007385Y024030D01*
X007569Y023844D02*
X007693Y023844D01*
X007631Y023906D02*
X007631Y023659D01*
X007693Y023598D01*
X007815Y023659D02*
X007876Y023598D01*
X008000Y023598D01*
X008062Y023659D01*
X008062Y023783D01*
X008000Y023844D01*
X007876Y023844D01*
X007815Y023783D01*
X007815Y023659D01*
X008183Y023598D02*
X008183Y023844D01*
X008183Y023721D02*
X008307Y023844D01*
X008368Y023844D01*
X008490Y023659D02*
X008552Y023659D01*
X008552Y023598D01*
X008490Y023598D01*
X008490Y023659D01*
X008674Y023659D02*
X008736Y023598D01*
X008921Y023598D01*
X009042Y023659D02*
X009104Y023598D01*
X009228Y023598D01*
X009289Y023659D01*
X009289Y023783D01*
X009228Y023844D01*
X009104Y023844D01*
X009042Y023783D01*
X009042Y023659D01*
X008921Y023844D02*
X008736Y023844D01*
X008674Y023783D01*
X008674Y023659D01*
X009411Y023598D02*
X009411Y023844D01*
X009473Y023844D01*
X009534Y023783D01*
X009596Y023844D01*
X009658Y023783D01*
X009658Y023598D01*
X009534Y023598D02*
X009534Y023783D01*
X006834Y023783D02*
X006772Y023844D01*
X006649Y023844D01*
X006587Y023783D01*
X006587Y023659D01*
X006649Y023598D01*
X006772Y023598D01*
X006834Y023659D01*
X006834Y023783D01*
X006466Y023783D02*
X006466Y023598D01*
X006342Y023598D02*
X006342Y023783D01*
X006404Y023844D01*
X006466Y023783D01*
X006342Y023783D02*
X006280Y023844D01*
X006219Y023844D01*
X006219Y023598D01*
X006097Y023598D02*
X005912Y023598D01*
X005850Y023659D01*
X005850Y023783D01*
X005912Y023844D01*
X006097Y023844D01*
X006097Y023968D02*
X006097Y023598D01*
X005729Y023598D02*
X005729Y023783D01*
X005667Y023844D01*
X005544Y023844D01*
X005544Y023721D02*
X005729Y023721D01*
X005729Y023598D02*
X005544Y023598D01*
X005482Y023659D01*
X005544Y023721D01*
X005360Y023844D02*
X005299Y023844D01*
X005175Y023721D01*
X005175Y023598D02*
X005175Y023844D01*
X005054Y023844D02*
X005054Y023598D01*
X004869Y023598D01*
X004807Y023659D01*
X004807Y023844D01*
X004684Y023659D02*
X004684Y023598D01*
X004623Y023598D01*
X004623Y023659D01*
X004684Y023659D01*
X004501Y023659D02*
X004501Y023844D01*
X004501Y023659D02*
X004440Y023598D01*
X004378Y023659D01*
X004316Y023598D01*
X004254Y023659D01*
X004254Y023844D01*
X004133Y023844D02*
X004133Y023659D01*
X004071Y023598D01*
X004010Y023659D01*
X003948Y023598D01*
X003886Y023659D01*
X003886Y023844D01*
X003765Y023844D02*
X003765Y023659D01*
X003703Y023598D01*
X003641Y023659D01*
X003579Y023598D01*
X003518Y023659D01*
X003518Y023844D01*
X003396Y023968D02*
X003149Y023598D01*
X002781Y023598D02*
X003028Y023968D01*
X002659Y023844D02*
X002659Y023783D01*
X002597Y023783D01*
X002597Y023844D01*
X002659Y023844D01*
X002659Y023659D02*
X002659Y023598D01*
X002597Y023598D01*
X002597Y023659D01*
X002659Y023659D01*
X002476Y023659D02*
X002414Y023598D01*
X002229Y023598D01*
X002107Y023598D02*
X002045Y023659D01*
X002045Y023906D01*
X001983Y023844D02*
X002107Y023844D01*
X002229Y023844D02*
X002414Y023844D01*
X002476Y023783D01*
X002476Y023659D01*
X002229Y023474D02*
X002229Y023844D01*
X001861Y023844D02*
X001738Y023844D01*
X001799Y023906D02*
X001799Y023659D01*
X001861Y023598D01*
X001616Y023598D02*
X001616Y023783D01*
X001554Y023844D01*
X001431Y023844D01*
X001369Y023783D01*
X001369Y023968D02*
X001369Y023598D01*
D14*
X018931Y006841D02*
X018931Y006691D01*
X018981Y006641D01*
X018981Y005241D01*
X018931Y005191D01*
X018931Y005041D01*
X018933Y005024D01*
X018937Y005007D01*
X018944Y004991D01*
X018954Y004977D01*
X018967Y004964D01*
X018981Y004954D01*
X018997Y004947D01*
X019014Y004943D01*
X019031Y004941D01*
X019631Y004941D01*
X019648Y004943D01*
X019665Y004947D01*
X019681Y004954D01*
X019695Y004964D01*
X019708Y004977D01*
X019718Y004991D01*
X019725Y005007D01*
X019729Y005024D01*
X019731Y005041D01*
X019731Y005191D01*
X019681Y005241D01*
X019681Y006641D01*
X019731Y006691D01*
X019731Y006841D01*
X019729Y006858D01*
X019725Y006875D01*
X019718Y006891D01*
X019708Y006905D01*
X019695Y006918D01*
X019681Y006928D01*
X019665Y006935D01*
X019648Y006939D01*
X019631Y006941D01*
X019031Y006941D01*
X019014Y006939D01*
X018997Y006935D01*
X018981Y006928D01*
X018967Y006918D01*
X018954Y006905D01*
X018944Y006891D01*
X018937Y006875D01*
X018933Y006858D01*
X018931Y006841D01*
X020406Y005316D02*
X021006Y005316D01*
X021023Y005314D01*
X021040Y005310D01*
X021056Y005303D01*
X021070Y005293D01*
X021083Y005280D01*
X021093Y005266D01*
X021100Y005250D01*
X021104Y005233D01*
X021106Y005216D01*
X021106Y005066D01*
X021056Y005016D01*
X021056Y003616D01*
X021106Y003566D01*
X021106Y003416D01*
X021104Y003399D01*
X021100Y003382D01*
X021093Y003366D01*
X021083Y003352D01*
X021070Y003339D01*
X021056Y003329D01*
X021040Y003322D01*
X021023Y003318D01*
X021006Y003316D01*
X020406Y003316D01*
X020389Y003318D01*
X020372Y003322D01*
X020356Y003329D01*
X020342Y003339D01*
X020329Y003352D01*
X020319Y003366D01*
X020312Y003382D01*
X020308Y003399D01*
X020306Y003416D01*
X020306Y003566D01*
X020356Y003616D01*
X020356Y005016D01*
X020306Y005066D01*
X020306Y005216D01*
X020308Y005233D01*
X020312Y005250D01*
X020319Y005266D01*
X020329Y005280D01*
X020342Y005293D01*
X020356Y005303D01*
X020372Y005310D01*
X020389Y005314D01*
X020406Y005316D01*
X018856Y003216D02*
X018706Y003216D01*
X018656Y003166D01*
X017256Y003166D01*
X017206Y003216D01*
X017056Y003216D01*
X017039Y003214D01*
X017022Y003210D01*
X017006Y003203D01*
X016992Y003193D01*
X016979Y003180D01*
X016969Y003166D01*
X016962Y003150D01*
X016958Y003133D01*
X016956Y003116D01*
X016956Y002516D01*
X016958Y002499D01*
X016962Y002482D01*
X016969Y002466D01*
X016979Y002452D01*
X016992Y002439D01*
X017006Y002429D01*
X017022Y002422D01*
X017039Y002418D01*
X017056Y002416D01*
X017206Y002416D01*
X017256Y002466D01*
X018656Y002466D01*
X018706Y002416D01*
X018856Y002416D01*
X018873Y002418D01*
X018890Y002422D01*
X018906Y002429D01*
X018920Y002439D01*
X018933Y002452D01*
X018943Y002466D01*
X018950Y002482D01*
X018954Y002499D01*
X018956Y002516D01*
X018956Y003116D01*
X018954Y003133D01*
X018950Y003150D01*
X018943Y003166D01*
X018933Y003180D01*
X018920Y003193D01*
X018906Y003203D01*
X018890Y003210D01*
X018873Y003214D01*
X018856Y003216D01*
X014956Y003116D02*
X014956Y002516D01*
X014954Y002499D01*
X014950Y002482D01*
X014943Y002466D01*
X014933Y002452D01*
X014920Y002439D01*
X014906Y002429D01*
X014890Y002422D01*
X014873Y002418D01*
X014856Y002416D01*
X014706Y002416D01*
X014656Y002466D01*
X013256Y002466D01*
X013206Y002416D01*
X013056Y002416D01*
X013039Y002418D01*
X013022Y002422D01*
X013006Y002429D01*
X012992Y002439D01*
X012979Y002452D01*
X012969Y002466D01*
X012962Y002482D01*
X012958Y002499D01*
X012956Y002516D01*
X012956Y003116D01*
X012958Y003133D01*
X012962Y003150D01*
X012969Y003166D01*
X012979Y003180D01*
X012992Y003193D01*
X013006Y003203D01*
X013022Y003210D01*
X013039Y003214D01*
X013056Y003216D01*
X013206Y003216D01*
X013256Y003166D01*
X014656Y003166D01*
X014706Y003216D01*
X014856Y003216D01*
X014873Y003214D01*
X014890Y003210D01*
X014906Y003203D01*
X014920Y003193D01*
X014933Y003180D01*
X014943Y003166D01*
X014950Y003150D01*
X014954Y003133D01*
X014956Y003116D01*
X033564Y004200D02*
X033564Y004700D01*
X033814Y004950D01*
X033564Y005200D01*
X033564Y005700D01*
X033814Y005950D01*
X033564Y006200D01*
X033564Y006700D01*
X033814Y006950D01*
X035314Y006950D01*
X035564Y006700D01*
X035564Y006200D01*
X035314Y005950D01*
X035564Y005700D01*
X035564Y005200D01*
X035314Y004950D01*
X035564Y004700D01*
X035564Y004200D01*
X035314Y003950D01*
X033814Y003950D01*
X033564Y004200D01*
X035634Y003005D02*
X035634Y002685D01*
X035741Y002578D01*
X036061Y002578D01*
X036061Y003005D01*
X036279Y002792D02*
X036599Y002792D01*
X036706Y002898D01*
X036706Y003112D01*
X036599Y003219D01*
X036279Y003219D01*
X036279Y002578D01*
X036492Y002792D02*
X036706Y002578D01*
X036923Y002578D02*
X036923Y003005D01*
X037137Y003219D01*
X037350Y003005D01*
X037350Y002578D01*
X037568Y002578D02*
X037888Y002578D01*
X037995Y002685D01*
X037995Y003112D01*
X037888Y003219D01*
X037568Y003219D01*
X037568Y002578D01*
X037350Y002898D02*
X036923Y002898D01*
X038212Y002578D02*
X038212Y003219D01*
X038426Y003005D01*
X038639Y003219D01*
X038639Y002578D01*
X038857Y002685D02*
X038857Y002898D01*
X038964Y003005D01*
X039177Y003005D01*
X039284Y002898D01*
X039284Y002685D01*
X039177Y002578D01*
X038964Y002578D01*
X038857Y002685D01*
X039502Y002578D02*
X039502Y003005D01*
X039822Y003005D01*
X039929Y002898D01*
X039929Y002578D01*
X040146Y002578D02*
X040360Y002578D01*
X040253Y002578D02*
X040253Y003005D01*
X040146Y003005D01*
X040253Y003219D02*
X040253Y003325D01*
X040683Y003112D02*
X040683Y002685D01*
X040789Y002578D01*
X041006Y002685D02*
X041006Y002898D01*
X041112Y003005D01*
X041326Y003005D01*
X041433Y002898D01*
X041433Y002685D01*
X041326Y002578D01*
X041112Y002578D01*
X041006Y002685D01*
X040789Y003005D02*
X040576Y003005D01*
X041650Y003005D02*
X041650Y002578D01*
X041650Y002792D02*
X041864Y003005D01*
X041970Y003005D01*
X042187Y002898D02*
X042614Y002898D01*
X042832Y002578D02*
X043152Y002578D01*
X043259Y002685D01*
X043259Y003112D01*
X043152Y003219D01*
X042832Y003219D01*
X042832Y002578D01*
X041890Y012056D02*
X041671Y012056D01*
X041890Y012056D02*
X041890Y012376D01*
X040990Y012056D02*
X040771Y012056D01*
X040771Y012376D01*
X037831Y020066D02*
X037833Y020110D01*
X037839Y020154D01*
X037849Y020197D01*
X037862Y020239D01*
X037879Y020280D01*
X037900Y020319D01*
X037924Y020356D01*
X037951Y020391D01*
X037981Y020423D01*
X038014Y020453D01*
X038050Y020479D01*
X038087Y020503D01*
X038127Y020522D01*
X038168Y020539D01*
X038211Y020551D01*
X038254Y020560D01*
X038298Y020565D01*
X038342Y020566D01*
X038386Y020563D01*
X038430Y020556D01*
X038473Y020545D01*
X038515Y020531D01*
X038555Y020513D01*
X038594Y020491D01*
X038630Y020467D01*
X038664Y020439D01*
X038696Y020408D01*
X038725Y020374D01*
X038751Y020338D01*
X038773Y020300D01*
X038792Y020260D01*
X038807Y020218D01*
X038819Y020176D01*
X038827Y020132D01*
X038831Y020088D01*
X038831Y020044D01*
X038827Y020000D01*
X038819Y019956D01*
X038807Y019914D01*
X038792Y019872D01*
X038773Y019832D01*
X038751Y019794D01*
X038725Y019758D01*
X038696Y019724D01*
X038664Y019693D01*
X038630Y019665D01*
X038594Y019641D01*
X038555Y019619D01*
X038515Y019601D01*
X038473Y019587D01*
X038430Y019576D01*
X038386Y019569D01*
X038342Y019566D01*
X038298Y019567D01*
X038254Y019572D01*
X038211Y019581D01*
X038168Y019593D01*
X038127Y019610D01*
X038087Y019629D01*
X038050Y019653D01*
X038014Y019679D01*
X037981Y019709D01*
X037951Y019741D01*
X037924Y019776D01*
X037900Y019813D01*
X037879Y019852D01*
X037862Y019893D01*
X037849Y019935D01*
X037839Y019978D01*
X037833Y020022D01*
X037831Y020066D01*
X035931Y020066D02*
X035934Y020184D01*
X035943Y020301D01*
X035957Y020418D01*
X035977Y020534D01*
X036003Y020649D01*
X036034Y020763D01*
X036071Y020875D01*
X036114Y020984D01*
X036161Y021092D01*
X036214Y021197D01*
X036272Y021300D01*
X036335Y021399D01*
X036403Y021496D01*
X036476Y021589D01*
X036553Y021678D01*
X036634Y021763D01*
X036719Y021844D01*
X036808Y021921D01*
X036901Y021994D01*
X036998Y022062D01*
X037097Y022125D01*
X037200Y022183D01*
X037305Y022236D01*
X037413Y022283D01*
X037522Y022326D01*
X037634Y022363D01*
X037748Y022394D01*
X037863Y022420D01*
X037979Y022440D01*
X038096Y022454D01*
X038213Y022463D01*
X038331Y022466D01*
X038449Y022463D01*
X038566Y022454D01*
X038683Y022440D01*
X038799Y022420D01*
X038914Y022394D01*
X039028Y022363D01*
X039140Y022326D01*
X039249Y022283D01*
X039357Y022236D01*
X039462Y022183D01*
X039565Y022125D01*
X039664Y022062D01*
X039761Y021994D01*
X039854Y021921D01*
X039943Y021844D01*
X040028Y021763D01*
X040109Y021678D01*
X040186Y021589D01*
X040259Y021496D01*
X040327Y021399D01*
X040390Y021300D01*
X040448Y021197D01*
X040501Y021092D01*
X040548Y020984D01*
X040591Y020875D01*
X040628Y020763D01*
X040659Y020649D01*
X040685Y020534D01*
X040705Y020418D01*
X040719Y020301D01*
X040728Y020184D01*
X040731Y020066D01*
X040728Y019948D01*
X040719Y019831D01*
X040705Y019714D01*
X040685Y019598D01*
X040659Y019483D01*
X040628Y019369D01*
X040591Y019257D01*
X040548Y019148D01*
X040501Y019040D01*
X040448Y018935D01*
X040390Y018832D01*
X040327Y018733D01*
X040259Y018636D01*
X040186Y018543D01*
X040109Y018454D01*
X040028Y018369D01*
X039943Y018288D01*
X039854Y018211D01*
X039761Y018138D01*
X039664Y018070D01*
X039565Y018007D01*
X039462Y017949D01*
X039357Y017896D01*
X039249Y017849D01*
X039140Y017806D01*
X039028Y017769D01*
X038914Y017738D01*
X038799Y017712D01*
X038683Y017692D01*
X038566Y017678D01*
X038449Y017669D01*
X038331Y017666D01*
X038213Y017669D01*
X038096Y017678D01*
X037979Y017692D01*
X037863Y017712D01*
X037748Y017738D01*
X037634Y017769D01*
X037522Y017806D01*
X037413Y017849D01*
X037305Y017896D01*
X037200Y017949D01*
X037097Y018007D01*
X036998Y018070D01*
X036901Y018138D01*
X036808Y018211D01*
X036719Y018288D01*
X036634Y018369D01*
X036553Y018454D01*
X036476Y018543D01*
X036403Y018636D01*
X036335Y018733D01*
X036272Y018832D01*
X036214Y018935D01*
X036161Y019040D01*
X036114Y019148D01*
X036071Y019257D01*
X036034Y019369D01*
X036003Y019483D01*
X035977Y019598D01*
X035957Y019714D01*
X035943Y019831D01*
X035934Y019948D01*
X035931Y020066D01*
D15*
X010305Y017264D02*
X010307Y017285D01*
X010313Y017305D01*
X010322Y017325D01*
X010334Y017342D01*
X010349Y017356D01*
X010367Y017368D01*
X010387Y017376D01*
X010407Y017381D01*
X010428Y017382D01*
X010449Y017379D01*
X010469Y017373D01*
X010488Y017362D01*
X010505Y017349D01*
X010518Y017333D01*
X010529Y017315D01*
X010537Y017295D01*
X010541Y017275D01*
X010541Y017253D01*
X010537Y017233D01*
X010529Y017213D01*
X010518Y017195D01*
X010505Y017179D01*
X010488Y017166D01*
X010469Y017155D01*
X010449Y017149D01*
X010428Y017146D01*
X010407Y017147D01*
X010387Y017152D01*
X010367Y017160D01*
X010349Y017172D01*
X010334Y017186D01*
X010322Y017203D01*
X010313Y017223D01*
X010307Y017243D01*
X010305Y017264D01*
D16*
X029411Y004405D02*
X029641Y004405D01*
X029718Y004328D01*
X029718Y004022D01*
X029641Y003945D01*
X029411Y003945D01*
X029411Y004405D01*
X030102Y004252D02*
X030255Y004405D01*
X030255Y003945D01*
X030102Y003945D02*
X030409Y003945D01*
X030562Y003945D02*
X030639Y003945D01*
X030639Y004022D01*
X030562Y004022D01*
X030562Y003945D01*
X030792Y004022D02*
X031099Y004328D01*
X031099Y004022D01*
X031023Y003945D01*
X030869Y003945D01*
X030792Y004022D01*
X030792Y004328D01*
X030869Y004405D01*
X031023Y004405D01*
X031099Y004328D01*
X031483Y004252D02*
X031636Y004405D01*
X031636Y003945D01*
X031483Y003945D02*
X031790Y003945D01*
X031943Y004022D02*
X032250Y004328D01*
X032250Y004022D01*
X032174Y003945D01*
X032020Y003945D01*
X031943Y004022D01*
X031943Y004328D01*
X032020Y004405D01*
X032174Y004405D01*
X032250Y004328D01*
X032404Y004328D02*
X032480Y004405D01*
X032634Y004405D01*
X032711Y004328D01*
X032711Y004252D01*
X032404Y003945D01*
X032711Y003945D01*
X031329Y003945D02*
X031253Y003945D01*
X031253Y004022D01*
X031329Y004022D01*
X031329Y003945D01*
X029948Y003945D02*
X029872Y003945D01*
X029872Y004022D01*
X029948Y004022D01*
X029948Y003945D01*
D17*
X029770Y004540D03*
X030006Y004580D03*
X030006Y004619D03*
X030006Y004737D03*
X030439Y004737D03*
X030439Y004540D03*
X031108Y004540D03*
X031108Y004658D03*
X031856Y004658D03*
X031856Y004540D03*
X032053Y004658D03*
X031581Y005564D03*
X031581Y005603D03*
X031581Y005643D03*
X031581Y005682D03*
X031541Y005761D03*
X031541Y005800D03*
X031502Y005840D03*
X031502Y005879D03*
X031463Y005918D03*
X031463Y005958D03*
X031423Y005997D03*
X031384Y006036D03*
X031344Y006076D03*
X030478Y005879D03*
X030400Y005840D03*
X030281Y005761D03*
X030242Y005721D03*
X030203Y005682D03*
X030163Y005643D03*
X030163Y005603D03*
X030163Y005564D03*
X032289Y006036D03*
X029222Y019862D03*
X028711Y020020D03*
X027687Y020020D03*
X025285Y020256D03*
X024537Y020886D03*
X023671Y020768D03*
X023356Y020335D03*
X023986Y020335D03*
X022805Y020886D03*
X022057Y020256D03*
X022411Y022027D03*
X022057Y022461D03*
X025285Y022461D03*
D18*
X024439Y021713D03*
X024518Y020925D03*
X023652Y020807D03*
X022903Y021752D03*
X022037Y022500D03*
X022037Y020216D03*
X032388Y005997D03*
X031561Y005721D03*
X030144Y004816D03*
X030222Y004737D03*
X030183Y004698D03*
X030183Y004658D03*
X030262Y004658D03*
X030262Y004698D03*
X030301Y004580D03*
X030301Y004540D03*
X030419Y004580D03*
X030419Y004619D03*
X030419Y004658D03*
X030419Y004698D03*
X030498Y004698D03*
X030537Y004658D03*
X030537Y004619D03*
X030498Y004580D03*
X030695Y004580D03*
X030695Y004619D03*
X030695Y004658D03*
X030734Y004698D03*
X030734Y004737D03*
X030774Y004658D03*
X030774Y004619D03*
X030774Y004580D03*
X030813Y004540D03*
X030852Y004580D03*
X030852Y004619D03*
X030852Y004658D03*
X030892Y004698D03*
X030892Y004737D03*
X030931Y004658D03*
X030931Y004619D03*
X030931Y004580D03*
X030931Y004540D03*
X031049Y004580D03*
X031049Y004619D03*
X031167Y004619D03*
X031167Y004580D03*
X031285Y004580D03*
X031285Y004619D03*
X031285Y004540D03*
X031403Y004540D03*
X031403Y004580D03*
X031403Y004619D03*
X031482Y004619D03*
X031482Y004580D03*
X031482Y004540D03*
X031482Y004658D03*
X031482Y004737D03*
X031640Y004737D03*
X031640Y004698D03*
X031640Y004619D03*
X031640Y004580D03*
X031640Y004540D03*
X031797Y004580D03*
X031797Y004619D03*
X031915Y004619D03*
X031915Y004580D03*
X032033Y004580D03*
X032033Y004619D03*
X032033Y004540D03*
X030695Y004540D03*
X030144Y004540D03*
X030144Y004580D03*
X030065Y004540D03*
X029986Y004540D03*
X029986Y004658D03*
X029986Y004698D03*
X030065Y004698D03*
X030065Y004658D03*
X029829Y004658D03*
X029829Y004619D03*
X029829Y004580D03*
X029711Y004580D03*
X029711Y004619D03*
X029711Y004658D03*
D19*
X030222Y004619D03*
X030459Y004973D03*
X031207Y004934D03*
X031325Y004658D03*
X031640Y004658D03*
X030537Y005918D03*
X030340Y005800D03*
X027195Y019862D03*
X025266Y020295D03*
X023652Y020335D03*
X022077Y020295D03*
X024439Y021752D03*
X025266Y022421D03*
X027195Y022461D03*
X029203Y022461D03*
X022077Y022421D03*
D20*
X022136Y022303D03*
X022884Y021831D03*
X023671Y021319D03*
X024459Y021831D03*
X025207Y022303D03*
X024655Y022618D03*
X027215Y022421D03*
X025207Y020413D03*
X024892Y019862D03*
X023986Y020374D03*
X023671Y020374D03*
X023671Y020413D03*
X023671Y020453D03*
X023671Y020492D03*
X023356Y020374D03*
X022136Y020374D03*
X030872Y005761D03*
X030872Y005721D03*
X030439Y005052D03*
X030872Y004816D03*
X029770Y004973D03*
D21*
X030045Y004855D03*
X030518Y004934D03*
X031266Y004973D03*
X032092Y006115D03*
X032211Y006076D03*
X028750Y020059D03*
X025246Y020335D03*
X024537Y020846D03*
X024459Y021791D03*
X025246Y022382D03*
X022884Y021791D03*
X022096Y022382D03*
X022805Y020846D03*
X022096Y020335D03*
D22*
X022628Y020335D03*
X024715Y020335D03*
X024478Y021949D03*
X024715Y022382D03*
X022628Y022382D03*
X027234Y022303D03*
X028218Y022657D03*
X028218Y022697D03*
X029163Y022303D03*
X029947Y005800D03*
X029907Y005761D03*
X029868Y005721D03*
X029829Y005682D03*
X029789Y005643D03*
X029750Y005603D03*
X029711Y005564D03*
X029671Y005525D03*
X029592Y005406D03*
X029553Y005328D03*
X030852Y004855D03*
X031285Y005249D03*
X031285Y005288D03*
D23*
X031285Y005013D03*
X031128Y004895D03*
X030616Y004895D03*
X030459Y005013D03*
X029947Y004895D03*
X029868Y004934D03*
X029203Y019902D03*
X027667Y020059D03*
X027195Y019902D03*
X025226Y020374D03*
X024557Y020807D03*
X022785Y020807D03*
X022116Y022342D03*
X024911Y022854D03*
X025226Y022342D03*
X029203Y022421D03*
D24*
X029183Y022382D03*
X027215Y022382D03*
X024852Y022815D03*
X024734Y022697D03*
X024695Y022657D03*
X024655Y022579D03*
X024459Y021870D03*
X024301Y021437D03*
X024340Y021398D03*
X024340Y021083D03*
X024301Y021043D03*
X023986Y020492D03*
X023986Y020453D03*
X024655Y020177D03*
X024695Y020020D03*
X024852Y019902D03*
X023002Y021083D03*
X022766Y020728D03*
X022687Y020138D03*
X022648Y020020D03*
X022608Y019980D03*
X023671Y021240D03*
X023671Y021279D03*
X023671Y021358D03*
X023671Y021398D03*
X023002Y021398D03*
X022884Y021870D03*
X022687Y022579D03*
X022648Y022697D03*
X027215Y019941D03*
X030872Y005840D03*
X030872Y005682D03*
X031305Y005091D03*
X030439Y005091D03*
X029691Y005013D03*
D25*
X029632Y005052D03*
X029553Y005091D03*
X030852Y005643D03*
X031285Y005131D03*
X027234Y019980D03*
X024793Y019941D03*
X024754Y019980D03*
X024557Y020728D03*
X023022Y021043D03*
X023022Y021437D03*
X022864Y021909D03*
X022667Y022539D03*
X022589Y022736D03*
X022549Y022776D03*
X022510Y022815D03*
X024675Y022539D03*
X024675Y022500D03*
X024754Y022736D03*
X024793Y022776D03*
X022667Y020177D03*
X022549Y019941D03*
X022510Y019902D03*
D26*
X022470Y019862D03*
X022667Y020059D03*
X022707Y020098D03*
X023337Y020413D03*
X023337Y020453D03*
X023337Y020492D03*
X022785Y020768D03*
X022982Y021122D03*
X022982Y021161D03*
X022982Y021201D03*
X022982Y021240D03*
X022982Y021279D03*
X022982Y021319D03*
X022982Y021358D03*
X024360Y021358D03*
X024360Y021319D03*
X024360Y021279D03*
X024360Y021240D03*
X024360Y021201D03*
X024360Y021161D03*
X024360Y021122D03*
X024557Y020768D03*
X024006Y020413D03*
X024636Y020138D03*
X024636Y020098D03*
X024675Y020059D03*
X022707Y022618D03*
X022667Y022657D03*
X022470Y022854D03*
X029203Y019941D03*
X031207Y006115D03*
X031049Y006076D03*
X030852Y005800D03*
X031285Y005052D03*
X031955Y006154D03*
D27*
X030951Y006036D03*
X030872Y005879D03*
X030872Y005603D03*
X030439Y005170D03*
X030439Y005131D03*
X029494Y005131D03*
X029183Y019980D03*
X029183Y022342D03*
X027215Y022342D03*
X024695Y022461D03*
X024459Y021909D03*
X023671Y021437D03*
X022766Y020689D03*
X022648Y020216D03*
X024655Y020216D03*
X022648Y022461D03*
X022648Y022500D03*
D28*
X022884Y021949D03*
X023671Y021201D03*
X024695Y020295D03*
X027215Y020020D03*
X029183Y020020D03*
X028199Y022736D03*
X028199Y022776D03*
X028199Y022815D03*
X029652Y005485D03*
X029612Y005446D03*
X029573Y005367D03*
X029533Y005288D03*
X029494Y005249D03*
X029494Y005210D03*
X029494Y005170D03*
X030439Y005210D03*
X030439Y005249D03*
X031305Y005210D03*
D29*
X031285Y005170D03*
X030852Y005564D03*
X030852Y005918D03*
X030892Y005997D03*
X024675Y020256D03*
X022667Y020256D03*
X022628Y020295D03*
X022628Y022421D03*
X024715Y022421D03*
D30*
X023671Y022027D03*
X022884Y021988D03*
X024695Y020374D03*
X027254Y020059D03*
X028199Y022500D03*
X028199Y022539D03*
X028199Y022579D03*
X028199Y022618D03*
X031108Y006351D03*
X030833Y005958D03*
X030439Y005328D03*
X030439Y005288D03*
X030006Y005840D03*
X030045Y005879D03*
D31*
X030104Y005918D03*
X030144Y005958D03*
X030222Y005997D03*
X031285Y005328D03*
X029163Y020059D03*
X029163Y022264D03*
X028218Y022461D03*
X027234Y022264D03*
X024715Y022342D03*
X024478Y021988D03*
X022628Y022342D03*
X023297Y020768D03*
X024045Y020768D03*
X022628Y020374D03*
D32*
X023671Y021673D03*
X030872Y005367D03*
D33*
X030852Y005406D03*
D34*
X030872Y005446D03*
X030872Y005485D03*
X030872Y005525D03*
X023671Y021594D03*
X023671Y021634D03*
D35*
X022628Y022303D03*
X030380Y006076D03*
X030301Y006036D03*
D36*
X030478Y006115D03*
X024695Y020689D03*
X024065Y020886D03*
X024065Y020925D03*
X023671Y021161D03*
X023277Y020925D03*
X023277Y020886D03*
D37*
X027470Y020413D03*
X027510Y020492D03*
X028888Y020492D03*
X028888Y020531D03*
X028927Y020413D03*
X030616Y006154D03*
D38*
X031148Y006194D03*
D39*
X031128Y006233D03*
X023652Y021555D03*
D40*
X023671Y021791D03*
X023671Y020728D03*
X023671Y020689D03*
X031108Y006273D03*
D41*
X031108Y006312D03*
X029065Y020177D03*
X028868Y020650D03*
X027529Y020650D03*
X027529Y020689D03*
X027490Y020768D03*
X027451Y020807D03*
X028199Y022303D03*
X024813Y020453D03*
X024734Y020571D03*
X023671Y020571D03*
X023671Y020531D03*
X022608Y020571D03*
X022529Y020453D03*
X022490Y020413D03*
X023671Y021949D03*
X024577Y022027D03*
X022529Y022264D03*
D42*
X022884Y022027D03*
X024695Y022303D03*
X024065Y020846D03*
X024065Y020807D03*
X024695Y020413D03*
X023277Y020807D03*
X023277Y020846D03*
X028199Y022382D03*
X028199Y022421D03*
D43*
X028888Y021594D03*
X029085Y020886D03*
X028888Y020728D03*
X028888Y020689D03*
X027510Y020728D03*
X027510Y021594D03*
X024833Y022264D03*
X024793Y022224D03*
X024754Y022185D03*
X024636Y022067D03*
X022707Y022067D03*
X022667Y022106D03*
X022628Y022146D03*
X022589Y022185D03*
X022549Y022224D03*
X022589Y020531D03*
X022549Y020492D03*
X024754Y020531D03*
X024793Y020492D03*
D44*
X023671Y021043D03*
X023671Y021083D03*
X022608Y020610D03*
X027333Y020138D03*
X027333Y020098D03*
X027411Y020295D03*
X027411Y020335D03*
X027451Y020374D03*
X027490Y020453D03*
X027529Y020531D03*
X027529Y020571D03*
X027411Y020846D03*
X027411Y021476D03*
X027451Y021516D03*
X028986Y021476D03*
X028986Y020846D03*
X028868Y020571D03*
X028907Y020453D03*
X028947Y020374D03*
X028986Y020335D03*
X028986Y020295D03*
X029026Y020256D03*
X029065Y020098D03*
D45*
X027608Y021634D03*
X023671Y021870D03*
X023671Y020610D03*
D46*
X024715Y020610D03*
X027352Y020216D03*
X027352Y020177D03*
X027392Y020256D03*
X027510Y020610D03*
X028888Y020610D03*
X028927Y020768D03*
X028966Y020807D03*
X029045Y020216D03*
X029085Y020138D03*
X028966Y021516D03*
X028927Y021555D03*
X027470Y021555D03*
D47*
X028199Y022342D03*
X024734Y020650D03*
X023671Y021122D03*
X022608Y020650D03*
X023671Y021988D03*
D48*
X023671Y021831D03*
X023671Y020650D03*
X027136Y021083D03*
X027136Y021122D03*
X027136Y021161D03*
X027136Y021201D03*
X027136Y021240D03*
X027215Y020925D03*
X029183Y020925D03*
X029262Y021043D03*
X029262Y021083D03*
X029262Y021122D03*
X029262Y021161D03*
X029262Y021201D03*
X029262Y021240D03*
X029262Y021279D03*
X028199Y022264D03*
D49*
X024085Y020965D03*
X023258Y020965D03*
D50*
X023671Y021004D03*
X023671Y021476D03*
X023671Y021516D03*
D51*
X023652Y021713D03*
D52*
X023671Y021752D03*
D53*
X023671Y021909D03*
X024695Y022106D03*
X024734Y022146D03*
X027333Y020886D03*
D54*
X027155Y020965D03*
X027155Y021004D03*
X027155Y021043D03*
X027155Y021279D03*
X027155Y021319D03*
X027155Y021358D03*
X027195Y021398D03*
X029203Y021398D03*
X029242Y021358D03*
X029242Y021319D03*
X029242Y021004D03*
X029242Y020965D03*
D55*
X029124Y021437D03*
X028809Y021634D03*
X027313Y021437D03*
D56*
X028199Y021673D03*
X028199Y021909D03*
D57*
X028218Y021870D03*
X028218Y021713D03*
D58*
X028199Y021752D03*
X028199Y021831D03*
D59*
X028218Y021791D03*
D60*
X028199Y021949D03*
D61*
X028218Y021988D03*
D62*
X028199Y022027D03*
D63*
X028199Y022067D03*
D64*
X028218Y022106D03*
D65*
X028199Y022146D03*
X028199Y022224D03*
D66*
X028218Y022185D03*
D67*
X019331Y007016D03*
X020706Y005391D03*
X019331Y004866D03*
X020706Y003241D03*
D68*
X023423Y004179D02*
X024234Y004179D01*
X024234Y005203D02*
X023423Y005203D01*
X023427Y005679D02*
X024238Y005679D01*
X024238Y006703D02*
X023427Y006703D01*
X023386Y007140D02*
X024197Y007140D01*
X024197Y008163D02*
X023386Y008163D01*
X041719Y017564D02*
X041719Y019139D01*
X042113Y019788D02*
X043294Y019788D01*
X043294Y016914D01*
X042113Y016914D01*
D69*
X023507Y007652D03*
X024117Y006191D03*
X023544Y004691D03*
D70*
X019031Y002816D03*
X016881Y002816D03*
X015031Y002816D03*
X012881Y002816D03*
D71*
X014940Y004275D02*
X014940Y010180D01*
X002538Y010180D01*
X002538Y004275D01*
X014940Y004275D01*
X014933Y004318D01*
X014930Y004363D01*
X014931Y004407D01*
X014936Y004451D01*
X014945Y004495D01*
X014958Y004537D01*
X014974Y004578D01*
X014994Y004618D01*
X015017Y004656D01*
X015044Y004691D01*
X015073Y004724D01*
X015106Y004755D01*
X015141Y004782D01*
X015178Y004806D01*
X015217Y004827D01*
X015258Y004844D01*
X015300Y004857D01*
X015344Y004867D01*
X015388Y004873D01*
X015432Y004875D01*
X015476Y004873D01*
X015520Y004867D01*
X015564Y004857D01*
X015606Y004844D01*
X015647Y004827D01*
X015686Y004806D01*
X015723Y004782D01*
X015758Y004755D01*
X015791Y004724D01*
X015820Y004691D01*
X015847Y004656D01*
X015870Y004618D01*
X015890Y004578D01*
X015906Y004537D01*
X015919Y004495D01*
X015928Y004451D01*
X015933Y004407D01*
X015934Y004363D01*
X015931Y004318D01*
X015924Y004275D01*
X015924Y010180D01*
X016908Y010180D01*
X016908Y008999D01*
X018877Y008999D01*
X019074Y008802D01*
X018877Y008605D01*
X016908Y008605D01*
X016908Y008212D01*
X017696Y008212D01*
X017696Y007227D01*
X017696Y006243D01*
X016908Y006243D01*
X016908Y004275D01*
X015924Y004275D01*
X016908Y006243D02*
X016908Y008212D01*
X016908Y008605D02*
X016908Y008999D01*
X015924Y010180D02*
X015931Y010137D01*
X015934Y010092D01*
X015933Y010048D01*
X015928Y010004D01*
X015919Y009960D01*
X015906Y009918D01*
X015890Y009877D01*
X015870Y009837D01*
X015847Y009799D01*
X015820Y009764D01*
X015791Y009731D01*
X015758Y009700D01*
X015723Y009673D01*
X015686Y009649D01*
X015647Y009628D01*
X015606Y009611D01*
X015564Y009598D01*
X015520Y009588D01*
X015476Y009582D01*
X015432Y009580D01*
X015388Y009582D01*
X015344Y009588D01*
X015300Y009598D01*
X015258Y009611D01*
X015217Y009628D01*
X015178Y009649D01*
X015141Y009673D01*
X015106Y009700D01*
X015073Y009731D01*
X015044Y009764D01*
X015017Y009799D01*
X014994Y009837D01*
X014974Y009877D01*
X014958Y009918D01*
X014945Y009960D01*
X014936Y010004D01*
X014931Y010048D01*
X014930Y010092D01*
X014933Y010137D01*
X014940Y010180D01*
X019844Y009295D02*
X020237Y009295D01*
X020237Y010673D01*
X034214Y010673D01*
X034214Y009295D01*
X020237Y009295D01*
X019844Y009295D02*
X019844Y024059D01*
X034607Y024059D01*
X034607Y009295D01*
X034214Y009295D01*
X034214Y010673D02*
X034214Y023665D01*
X020237Y023665D01*
X020237Y010673D01*
X032939Y006414D02*
X033089Y006264D01*
X032939Y006414D02*
X033389Y006414D01*
X033389Y006264D02*
X033389Y006565D01*
X034839Y003715D02*
X034914Y003564D01*
X035064Y003414D01*
X035064Y003640D01*
X035139Y003715D01*
X035214Y003715D01*
X035289Y003640D01*
X035289Y003489D01*
X035214Y003414D01*
X035064Y003414D01*
X039207Y009559D02*
X039207Y016803D01*
X039837Y016803D01*
X039837Y009559D01*
X039207Y009559D01*
X002538Y010180D02*
X002545Y010137D01*
X002548Y010092D01*
X002547Y010048D01*
X002542Y010004D01*
X002533Y009960D01*
X002520Y009918D01*
X002504Y009877D01*
X002484Y009837D01*
X002461Y009799D01*
X002434Y009764D01*
X002405Y009731D01*
X002372Y009700D01*
X002337Y009673D01*
X002300Y009649D01*
X002261Y009628D01*
X002220Y009611D01*
X002178Y009598D01*
X002134Y009588D01*
X002090Y009582D01*
X002046Y009580D01*
X002002Y009582D01*
X001958Y009588D01*
X001914Y009598D01*
X001872Y009611D01*
X001831Y009628D01*
X001792Y009649D01*
X001755Y009673D01*
X001720Y009700D01*
X001687Y009731D01*
X001658Y009764D01*
X001631Y009799D01*
X001608Y009837D01*
X001588Y009877D01*
X001572Y009918D01*
X001559Y009960D01*
X001550Y010004D01*
X001545Y010048D01*
X001544Y010092D01*
X001547Y010137D01*
X001554Y010180D01*
X001554Y004275D01*
X000964Y004275D01*
X000964Y010180D01*
X001554Y010180D01*
X001554Y004275D02*
X001547Y004318D01*
X001544Y004363D01*
X001545Y004407D01*
X001550Y004451D01*
X001559Y004495D01*
X001572Y004537D01*
X001588Y004578D01*
X001608Y004618D01*
X001631Y004656D01*
X001658Y004691D01*
X001687Y004724D01*
X001720Y004755D01*
X001755Y004782D01*
X001792Y004806D01*
X001831Y004827D01*
X001872Y004844D01*
X001914Y004857D01*
X001958Y004867D01*
X002002Y004873D01*
X002046Y004875D01*
X002090Y004873D01*
X002134Y004867D01*
X002178Y004857D01*
X002220Y004844D01*
X002261Y004827D01*
X002300Y004806D01*
X002337Y004782D01*
X002372Y004755D01*
X002405Y004724D01*
X002434Y004691D01*
X002461Y004656D01*
X002484Y004618D01*
X002504Y004578D01*
X002520Y004537D01*
X002533Y004495D01*
X002542Y004451D01*
X002547Y004407D01*
X002548Y004363D01*
X002545Y004318D01*
X002538Y004275D01*
D72*
X017696Y007227D02*
X020255Y007227D01*
M02*
