G75*
G70*
%OFA0B0*%
%FSLAX24Y24*%
%IPPOS*%
%LPD*%
%AMOC8*
5,1,8,0,0,1.08239X$1,22.5*
%
%ADD10R,0.1600X0.0600*%
%ADD11R,0.0512X0.0630*%
%ADD12R,0.0630X0.0512*%
%ADD13R,0.0470X0.0220*%
%ADD14R,0.0220X0.0470*%
%ADD15R,0.0591X0.0512*%
%ADD16R,0.0472X0.0315*%
%ADD17R,0.0315X0.0472*%
%ADD18R,0.0137X0.0550*%
%ADD19R,0.0551X0.0157*%
%ADD20R,0.0748X0.0787*%
%ADD21R,0.0748X0.0866*%
%ADD22R,0.0472X0.0472*%
%ADD23R,0.0512X0.0591*%
%ADD24R,0.0630X0.0906*%
%ADD25R,0.0394X0.0551*%
%ADD26R,0.0394X0.0315*%
%ADD27R,0.0551X0.0394*%
%ADD28R,0.0394X0.0591*%
%ADD29C,0.0630*%
%ADD30C,0.0540*%
%ADD31R,0.0138X0.0197*%
%ADD32R,0.0512X0.0276*%
%ADD33R,0.0550X0.0110*%
%ADD34R,0.0220X0.0780*%
%ADD35R,0.0748X0.0433*%
%ADD36R,0.0551X0.0472*%
%ADD37R,0.0394X0.1181*%
%ADD38R,0.1181X0.0394*%
%ADD39R,0.0210X0.0780*%
%ADD40R,0.0433X0.0748*%
D10*
X042632Y004476D03*
X042632Y006476D03*
D11*
X024599Y009316D03*
X023812Y009316D03*
D12*
X023081Y009210D03*
X023081Y009922D03*
X023081Y010710D03*
X023081Y008422D03*
X017331Y003460D03*
X017331Y002672D03*
X013581Y002672D03*
X013581Y003460D03*
X011706Y003460D03*
X011706Y002672D03*
X010331Y010047D03*
X010331Y010835D03*
X021456Y014922D03*
X021456Y015710D03*
X028456Y021672D03*
X028456Y022460D03*
X033706Y022547D03*
X033706Y023335D03*
X040706Y015960D03*
X040706Y015172D03*
X042206Y003210D03*
X042206Y002422D03*
D13*
X032652Y008079D03*
X032652Y008394D03*
X032652Y008709D03*
X032652Y009024D03*
X032652Y009339D03*
X032652Y009653D03*
X032652Y009968D03*
X032652Y010283D03*
X032652Y010598D03*
X032652Y010913D03*
X032652Y011228D03*
X032652Y011543D03*
X032652Y011858D03*
X032652Y012173D03*
X032652Y012488D03*
X032652Y012803D03*
X026510Y012803D03*
X026510Y012488D03*
X026510Y012173D03*
X026510Y011858D03*
X026510Y011543D03*
X026510Y011228D03*
X026510Y010913D03*
X026510Y010598D03*
X026510Y010283D03*
X026510Y009968D03*
X026510Y009653D03*
X026510Y009339D03*
X026510Y009024D03*
X026510Y008709D03*
X026510Y008394D03*
X026510Y008079D03*
D14*
X027218Y007370D03*
X027533Y007370D03*
X027848Y007370D03*
X028163Y007370D03*
X028478Y007370D03*
X028793Y007370D03*
X029108Y007370D03*
X029423Y007370D03*
X029738Y007370D03*
X030053Y007370D03*
X030368Y007370D03*
X030683Y007370D03*
X030998Y007370D03*
X031313Y007370D03*
X031628Y007370D03*
X031943Y007370D03*
X031943Y013512D03*
X031628Y013512D03*
X031313Y013512D03*
X030998Y013512D03*
X030683Y013512D03*
X030368Y013512D03*
X030053Y013512D03*
X029738Y013512D03*
X029423Y013512D03*
X029108Y013512D03*
X028793Y013512D03*
X028478Y013512D03*
X028163Y013512D03*
X027848Y013512D03*
X027533Y013512D03*
X027218Y013512D03*
D15*
X030456Y016192D03*
X030456Y016940D03*
X032456Y019817D03*
X032456Y020565D03*
X032956Y022567D03*
X032956Y023315D03*
X035706Y022942D03*
X035706Y023690D03*
X041581Y023065D03*
X041581Y022317D03*
X041581Y021440D03*
X041581Y020692D03*
X028456Y021065D03*
X027706Y021065D03*
X026956Y021065D03*
X026956Y021692D03*
X027706Y021692D03*
X027706Y022440D03*
X026956Y022440D03*
X026956Y020317D03*
X027706Y020317D03*
X028456Y020317D03*
X021081Y022356D03*
X021081Y023026D03*
X021331Y012065D03*
X020581Y012065D03*
X020581Y011317D03*
X021331Y011317D03*
X012581Y005065D03*
X012581Y004317D03*
X010706Y003440D03*
X010706Y002692D03*
X010081Y004317D03*
X010081Y005065D03*
X018081Y003440D03*
X018081Y002692D03*
X026206Y002731D03*
X026206Y003401D03*
X026206Y004356D03*
X026206Y005026D03*
X030831Y004815D03*
X030831Y004067D03*
X040116Y009641D03*
X040116Y010389D03*
D16*
X040882Y010456D03*
X040882Y009747D03*
X039956Y015212D03*
X039956Y015920D03*
D17*
X038185Y015066D03*
X037476Y015066D03*
D18*
X037423Y014380D03*
X037167Y014380D03*
X037679Y014380D03*
X037935Y014380D03*
X038191Y014380D03*
X038447Y014380D03*
X038703Y014380D03*
X038959Y014380D03*
X039215Y014380D03*
X039470Y014380D03*
X039726Y014380D03*
X039982Y014380D03*
X040238Y014380D03*
X040494Y014380D03*
X040494Y011502D03*
X040238Y011502D03*
X039982Y011502D03*
X039726Y011502D03*
X039470Y011502D03*
X039215Y011502D03*
X038959Y011502D03*
X038703Y011502D03*
X038447Y011502D03*
X038191Y011502D03*
X037935Y011502D03*
X037679Y011502D03*
X037423Y011502D03*
X037167Y011502D03*
D19*
X041510Y012465D03*
X041510Y012720D03*
X041510Y012976D03*
X041510Y013232D03*
X041510Y013488D03*
D20*
X042632Y013468D03*
X042632Y012484D03*
D21*
X042632Y011402D03*
X042632Y014551D03*
D22*
X040244Y017441D03*
X039417Y017441D03*
X038619Y017441D03*
X037792Y017441D03*
D23*
X037832Y016691D03*
X038580Y016691D03*
X039457Y016691D03*
X040205Y016691D03*
X033290Y015316D03*
X032621Y015316D03*
X031955Y016191D03*
X031207Y016191D03*
X031207Y016941D03*
X031955Y016941D03*
X039332Y021191D03*
X040080Y021191D03*
X033705Y021816D03*
X032957Y021816D03*
D24*
X029007Y004841D03*
X029007Y002361D03*
D25*
X027206Y002633D03*
X027580Y003499D03*
X026832Y003499D03*
X025080Y003133D03*
X024332Y003133D03*
X024706Y003999D03*
X009830Y002633D03*
X009082Y002633D03*
X009456Y003499D03*
X032582Y014624D03*
X033330Y014624D03*
X032956Y013758D03*
X039706Y019633D03*
X040080Y020499D03*
X039332Y020499D03*
D26*
X027599Y004316D03*
X026812Y004316D03*
D27*
X011764Y004691D03*
X010898Y005065D03*
X010898Y004317D03*
X029514Y016192D03*
X028648Y016566D03*
X029514Y016940D03*
D28*
X036672Y007765D03*
X037460Y007765D03*
X038247Y007765D03*
X039034Y007765D03*
X039822Y007765D03*
X040609Y007765D03*
X041397Y007765D03*
X041397Y002804D03*
X040609Y002804D03*
X039822Y002804D03*
X039034Y002804D03*
X038247Y002804D03*
X037460Y002804D03*
X036672Y002804D03*
D29*
X003264Y004628D02*
X003264Y004698D01*
X003334Y004698D01*
X003334Y004628D01*
X003264Y004628D01*
X003259Y006594D02*
X003259Y006664D01*
X003329Y006664D01*
X003329Y006594D01*
X003259Y006594D01*
X003261Y008567D02*
X003261Y008637D01*
X003331Y008637D01*
X003331Y008567D01*
X003261Y008567D01*
X008804Y008565D02*
X008804Y008635D01*
X008874Y008635D01*
X008874Y008565D01*
X008804Y008565D01*
X008804Y006667D02*
X008804Y006597D01*
X008804Y006667D02*
X008874Y006667D01*
X008874Y006597D01*
X008804Y006597D01*
X008803Y004699D02*
X008803Y004629D01*
X008803Y004699D02*
X008873Y004699D01*
X008873Y004629D01*
X008803Y004629D01*
D30*
X010023Y005773D02*
X010083Y005773D01*
X010023Y005773D02*
X010023Y005833D01*
X010083Y005833D01*
X010083Y005773D01*
X010083Y006773D02*
X010023Y006773D01*
X010023Y006833D01*
X010083Y006833D01*
X010083Y006773D01*
X010083Y007773D02*
X010023Y007773D01*
X010023Y007833D01*
X010083Y007833D01*
X010083Y007773D01*
X010083Y008773D02*
X010023Y008773D01*
X010023Y008833D01*
X010083Y008833D01*
X010083Y008773D01*
D31*
X011068Y009615D03*
X011324Y009615D03*
X011580Y009615D03*
X011836Y009615D03*
X011836Y010422D03*
X011580Y010422D03*
X011324Y010422D03*
X011068Y010422D03*
D32*
X037123Y022316D03*
X037123Y022816D03*
X037123Y023316D03*
X037123Y023816D03*
X039288Y023816D03*
X039288Y023316D03*
X039288Y022816D03*
X039288Y022316D03*
D33*
X031191Y020456D03*
X031191Y020266D03*
X031191Y020066D03*
X031191Y019866D03*
X031191Y019676D03*
X029471Y019676D03*
X029471Y019866D03*
X029471Y020066D03*
X029471Y020266D03*
X029471Y020456D03*
D34*
X023706Y016286D03*
X023206Y016286D03*
X022706Y016286D03*
X022206Y016286D03*
X022206Y014346D03*
X022706Y014346D03*
X023206Y014346D03*
X023706Y014346D03*
D35*
X026456Y007413D03*
X026456Y006468D03*
D36*
X024639Y010001D03*
X023773Y010001D03*
X023773Y010631D03*
X024639Y010631D03*
D37*
X029494Y021522D03*
X031777Y021522D03*
D38*
X024625Y007013D03*
X024625Y004729D03*
D39*
X024831Y014346D03*
X025331Y014346D03*
X025831Y014346D03*
X026331Y014346D03*
X026331Y016286D03*
X025831Y016286D03*
X025331Y016286D03*
X024831Y016286D03*
D40*
X024483Y017316D03*
X025428Y017316D03*
M02*
