G75*
G70*
%OFA0B0*%
%FSLAX24Y24*%
%IPPOS*%
%LPD*%
%AMOC8*
5,1,8,0,0,1.08239X$1,22.5*
%
%ADD10C,0.0316*%
%ADD11R,0.1680X0.0680*%
%ADD12R,0.0592X0.0710*%
%ADD13R,0.0710X0.0592*%
%ADD14R,0.0550X0.0300*%
%ADD15R,0.0300X0.0550*%
%ADD16R,0.0671X0.0592*%
%ADD17R,0.0552X0.0395*%
%ADD18R,0.0395X0.0552*%
%ADD19R,0.0217X0.0630*%
%ADD20R,0.0631X0.0237*%
%ADD21R,0.0828X0.0867*%
%ADD22R,0.0828X0.0946*%
%ADD23R,0.0552X0.0552*%
%ADD24OC8,0.0740*%
%ADD25R,0.0592X0.0671*%
%ADD26R,0.0710X0.0986*%
%ADD27OC8,0.0600*%
%ADD28R,0.0474X0.0631*%
%ADD29R,0.0474X0.0395*%
%ADD30R,0.0631X0.0474*%
%ADD31R,0.0474X0.0671*%
%ADD32C,0.0940*%
%ADD33C,0.0702*%
%ADD34C,0.0612*%
%ADD35R,0.0218X0.0277*%
%ADD36R,0.0592X0.0356*%
%ADD37C,0.0900*%
%ADD38C,0.0700*%
%ADD39OC8,0.1080*%
%ADD40R,0.0630X0.0190*%
%ADD41C,0.0477*%
%ADD42C,0.0680*%
%ADD43OC8,0.0680*%
%ADD44R,0.0300X0.0860*%
%ADD45R,0.0828X0.0513*%
%ADD46R,0.0631X0.0552*%
%ADD47R,0.0474X0.1261*%
%ADD48R,0.1261X0.0474*%
%ADD49R,0.0290X0.0860*%
%ADD50R,0.0513X0.0828*%
%ADD51C,0.0780*%
%ADD52C,0.0437*%
%ADD53R,0.0867X0.0867*%
%ADD54C,0.0640*%
D10*
X010423Y017264D03*
D11*
X042632Y006476D03*
X042632Y004476D03*
D12*
X024599Y009316D03*
X023812Y009316D03*
D13*
X023081Y009210D03*
X023081Y009922D03*
X023081Y010710D03*
X023081Y008422D03*
X017331Y003460D03*
X017331Y002672D03*
X013581Y002672D03*
X013581Y003460D03*
X011706Y003460D03*
X011706Y002672D03*
X010331Y010047D03*
X010331Y010835D03*
X021456Y014922D03*
X021456Y015710D03*
X028456Y021672D03*
X028456Y022460D03*
X033706Y022547D03*
X033706Y023335D03*
X040706Y015960D03*
X040706Y015172D03*
X042206Y003210D03*
X042206Y002422D03*
D14*
X032652Y008079D03*
X032652Y008394D03*
X032652Y008709D03*
X032652Y009024D03*
X032652Y009339D03*
X032652Y009653D03*
X032652Y009968D03*
X032652Y010283D03*
X032652Y010598D03*
X032652Y010913D03*
X032652Y011228D03*
X032652Y011543D03*
X032652Y011858D03*
X032652Y012173D03*
X032652Y012488D03*
X032652Y012803D03*
X026510Y012803D03*
X026510Y012488D03*
X026510Y012173D03*
X026510Y011858D03*
X026510Y011543D03*
X026510Y011228D03*
X026510Y010913D03*
X026510Y010598D03*
X026510Y010283D03*
X026510Y009968D03*
X026510Y009653D03*
X026510Y009339D03*
X026510Y009024D03*
X026510Y008709D03*
X026510Y008394D03*
X026510Y008079D03*
D15*
X027218Y007370D03*
X027533Y007370D03*
X027848Y007370D03*
X028163Y007370D03*
X028478Y007370D03*
X028793Y007370D03*
X029108Y007370D03*
X029423Y007370D03*
X029738Y007370D03*
X030053Y007370D03*
X030368Y007370D03*
X030683Y007370D03*
X030998Y007370D03*
X031313Y007370D03*
X031628Y007370D03*
X031943Y007370D03*
X031943Y013512D03*
X031628Y013512D03*
X031313Y013512D03*
X030998Y013512D03*
X030683Y013512D03*
X030368Y013512D03*
X030053Y013512D03*
X029738Y013512D03*
X029423Y013512D03*
X029108Y013512D03*
X028793Y013512D03*
X028478Y013512D03*
X028163Y013512D03*
X027848Y013512D03*
X027533Y013512D03*
X027218Y013512D03*
D16*
X030456Y016192D03*
X030456Y016940D03*
X032456Y019817D03*
X032456Y020565D03*
X032956Y022567D03*
X032956Y023315D03*
X035706Y022942D03*
X035706Y023690D03*
X041581Y023065D03*
X041581Y022317D03*
X041581Y021440D03*
X041581Y020692D03*
X028456Y021065D03*
X027706Y021065D03*
X026956Y021065D03*
X026956Y021692D03*
X027706Y021692D03*
X027706Y022440D03*
X026956Y022440D03*
X026956Y020317D03*
X027706Y020317D03*
X028456Y020317D03*
X021081Y022356D03*
X021081Y023026D03*
X021331Y012065D03*
X020581Y012065D03*
X020581Y011317D03*
X021331Y011317D03*
X012581Y005065D03*
X012581Y004317D03*
X010706Y003440D03*
X010706Y002692D03*
X010081Y004317D03*
X010081Y005065D03*
X018081Y003440D03*
X018081Y002692D03*
X026206Y002731D03*
X026206Y003401D03*
X026206Y004356D03*
X026206Y005026D03*
X030831Y004815D03*
X030831Y004067D03*
X040116Y009641D03*
X040116Y010389D03*
D17*
X040882Y010456D03*
X040882Y009747D03*
X039956Y015212D03*
X039956Y015920D03*
D18*
X038185Y015066D03*
X037476Y015066D03*
D19*
X037423Y014380D03*
X037167Y014380D03*
X037679Y014380D03*
X037935Y014380D03*
X038191Y014380D03*
X038447Y014380D03*
X038703Y014380D03*
X038959Y014380D03*
X039215Y014380D03*
X039470Y014380D03*
X039726Y014380D03*
X039982Y014380D03*
X040238Y014380D03*
X040494Y014380D03*
X040494Y011502D03*
X040238Y011502D03*
X039982Y011502D03*
X039726Y011502D03*
X039470Y011502D03*
X039215Y011502D03*
X038959Y011502D03*
X038703Y011502D03*
X038447Y011502D03*
X038191Y011502D03*
X037935Y011502D03*
X037679Y011502D03*
X037423Y011502D03*
X037167Y011502D03*
D20*
X041510Y012465D03*
X041510Y012720D03*
X041510Y012976D03*
X041510Y013232D03*
X041510Y013488D03*
D21*
X042632Y013468D03*
X042632Y012484D03*
D22*
X042632Y011402D03*
X042632Y014551D03*
D23*
X040244Y017441D03*
X039417Y017441D03*
X038619Y017441D03*
X037792Y017441D03*
D24*
X042456Y020441D03*
X042456Y021441D03*
X042456Y022441D03*
X042456Y023441D03*
D25*
X040080Y021191D03*
X039332Y021191D03*
X033705Y021816D03*
X032957Y021816D03*
X031955Y016941D03*
X031207Y016941D03*
X031207Y016191D03*
X031955Y016191D03*
X032621Y015316D03*
X033290Y015316D03*
X037832Y016691D03*
X038580Y016691D03*
X039457Y016691D03*
X040205Y016691D03*
D26*
X029007Y004841D03*
X029007Y002361D03*
D27*
X020706Y002816D03*
X019456Y002816D03*
X019331Y004441D03*
X020706Y005816D03*
X019331Y007441D03*
X016456Y002816D03*
X015456Y002816D03*
X012456Y002816D03*
D28*
X009830Y002633D03*
X009082Y002633D03*
X009456Y003499D03*
X024332Y003133D03*
X025080Y003133D03*
X024706Y003999D03*
X026832Y003499D03*
X027580Y003499D03*
X027206Y002633D03*
X032956Y013758D03*
X033330Y014624D03*
X032582Y014624D03*
X039706Y019633D03*
X040080Y020499D03*
X039332Y020499D03*
D29*
X027599Y004316D03*
X026812Y004316D03*
D30*
X011764Y004691D03*
X010898Y005065D03*
X010898Y004317D03*
X029514Y016192D03*
X028648Y016566D03*
X029514Y016940D03*
D31*
X036672Y007765D03*
X037460Y007765D03*
X038247Y007765D03*
X039034Y007765D03*
X039822Y007765D03*
X040609Y007765D03*
X041397Y007765D03*
X041397Y002804D03*
X040609Y002804D03*
X039822Y002804D03*
X039034Y002804D03*
X038247Y002804D03*
X037460Y002804D03*
X036672Y002804D03*
D32*
X020452Y007227D03*
X016318Y004074D03*
D33*
X008799Y004625D02*
X008799Y004703D01*
X008877Y004703D01*
X008877Y004625D01*
X008799Y004625D01*
X008800Y006593D02*
X008800Y006671D01*
X008878Y006671D01*
X008878Y006593D01*
X008800Y006593D01*
X008800Y008561D02*
X008800Y008639D01*
X008878Y008639D01*
X008878Y008561D01*
X008800Y008561D01*
X003257Y008563D02*
X003257Y008641D01*
X003335Y008641D01*
X003335Y008563D01*
X003257Y008563D01*
X003255Y006668D02*
X003255Y006590D01*
X003255Y006668D02*
X003333Y006668D01*
X003333Y006590D01*
X003255Y006590D01*
X003260Y004702D02*
X003260Y004624D01*
X003260Y004702D02*
X003338Y004702D01*
X003338Y004624D01*
X003260Y004624D01*
D34*
X010019Y005769D02*
X010087Y005769D01*
X010019Y005769D02*
X010019Y005837D01*
X010087Y005837D01*
X010087Y005769D01*
X010087Y006769D02*
X010019Y006769D01*
X010019Y006837D01*
X010087Y006837D01*
X010087Y006769D01*
X010087Y007769D02*
X010019Y007769D01*
X010019Y007837D01*
X010087Y007837D01*
X010087Y007769D01*
X010087Y008769D02*
X010019Y008769D01*
X010019Y008837D01*
X010087Y008837D01*
X010087Y008769D01*
D35*
X011068Y009615D03*
X011324Y009615D03*
X011580Y009615D03*
X011836Y009615D03*
X011836Y010422D03*
X011580Y010422D03*
X011324Y010422D03*
X011068Y010422D03*
D36*
X037123Y022316D03*
X037123Y022816D03*
X037123Y023316D03*
X037123Y023816D03*
X039288Y023816D03*
X039288Y023316D03*
X039288Y022816D03*
X039288Y022316D03*
D37*
X041523Y019729D03*
X041523Y016973D03*
D38*
X042507Y017367D03*
X042507Y019336D03*
D39*
X038331Y018586D03*
X038331Y021546D03*
D40*
X031191Y020456D03*
X031191Y020266D03*
X031191Y020066D03*
X031191Y019866D03*
X031191Y019676D03*
X029471Y019676D03*
X029471Y019866D03*
X029471Y020066D03*
X029471Y020266D03*
X029471Y020456D03*
D41*
X019706Y020566D03*
X019706Y021066D03*
X019706Y021566D03*
X019706Y022066D03*
X019706Y022566D03*
X019706Y023066D03*
D42*
X034064Y006450D03*
D43*
X035064Y006450D03*
X035064Y005450D03*
X034064Y005450D03*
X034064Y004450D03*
X035064Y004450D03*
D44*
X023706Y014346D03*
X023206Y014346D03*
X022706Y014346D03*
X022206Y014346D03*
X022206Y016286D03*
X022706Y016286D03*
X023206Y016286D03*
X023706Y016286D03*
D45*
X026456Y007413D03*
X026456Y006468D03*
D46*
X024639Y010001D03*
X023773Y010001D03*
X023773Y010631D03*
X024639Y010631D03*
D47*
X029494Y021522D03*
X031777Y021522D03*
D48*
X024625Y007013D03*
X024625Y004729D03*
D49*
X024831Y014346D03*
X025331Y014346D03*
X025831Y014346D03*
X026331Y014346D03*
X026331Y016286D03*
X025831Y016286D03*
X025331Y016286D03*
X024831Y016286D03*
D50*
X024483Y017316D03*
X025428Y017316D03*
D51*
X034831Y018816D03*
X034831Y020941D03*
X034831Y023066D03*
D52*
X034831Y021941D03*
X035831Y021941D03*
X036456Y023816D03*
X039706Y022316D03*
X040831Y021441D03*
X040831Y023316D03*
X041331Y023816D03*
X033581Y019191D03*
X031831Y019676D03*
X031831Y019691D03*
X030081Y019191D03*
X030706Y017691D03*
X028706Y017191D03*
X031706Y015191D03*
X031956Y014691D03*
X032456Y013816D03*
X034831Y013191D03*
X035456Y013191D03*
X036081Y013191D03*
X036081Y012441D03*
X035581Y012066D03*
X036081Y011691D03*
X035581Y011316D03*
X034956Y011316D03*
X033831Y011066D03*
X033331Y011441D03*
X031581Y011441D03*
X030706Y011441D03*
X029706Y010941D03*
X030581Y010441D03*
X029831Y009941D03*
X028456Y009941D03*
X027581Y010441D03*
X028456Y008941D03*
X027831Y008316D03*
X028831Y007941D03*
X030706Y008441D03*
X031206Y009441D03*
X034206Y008441D03*
X034581Y007941D03*
X034956Y008941D03*
X036831Y009941D03*
X037206Y010441D03*
X036831Y010941D03*
X040081Y009066D03*
X040581Y008316D03*
X042581Y010441D03*
X038206Y006441D03*
X036831Y006441D03*
X038206Y004441D03*
X036831Y003691D03*
X038206Y002357D03*
X040081Y005441D03*
X041581Y005441D03*
X028081Y005566D03*
X025331Y004191D03*
X023831Y002941D03*
X025081Y002566D03*
X027956Y002566D03*
X021581Y007941D03*
X020331Y008691D03*
X020081Y009191D03*
X019831Y009691D03*
X021456Y010191D03*
X020581Y010566D03*
X019831Y011316D03*
X019956Y012566D03*
X020706Y012566D03*
X021456Y012565D03*
X023456Y013566D03*
X024581Y013941D03*
X024081Y015066D03*
X021331Y013941D03*
X025831Y012316D03*
X033081Y016441D03*
X033581Y017691D03*
X036831Y017191D03*
X036831Y016566D03*
X036831Y015941D03*
X042581Y015816D03*
X031831Y023441D03*
X024581Y018066D03*
X021081Y020191D03*
X019831Y020191D03*
X020081Y021566D03*
X020081Y022566D03*
X020081Y023566D03*
X015456Y003566D03*
X014206Y003566D03*
D53*
X000974Y001319D03*
X000974Y024547D03*
X043100Y024547D03*
X043100Y001319D03*
D54*
X015443Y004665D03*
X015443Y009783D03*
X002057Y009783D03*
X002057Y004665D03*
M02*
