G75*
G70*
%OFA0B0*%
%FSLAX24Y24*%
%IPPOS*%
%LPD*%
%AMOC8*
5,1,8,0,0,1.08239X$1,22.5*
%
%ADD10R,0.0630X0.0512*%
%ADD11R,0.0591X0.0512*%
%ADD12R,0.0709X0.0945*%
%ADD13R,0.0787X0.0591*%
%ADD14R,0.0394X0.1181*%
%ADD15R,0.1929X0.0197*%
%ADD16R,0.0512X0.0591*%
%ADD17R,0.0394X0.0551*%
D10*
X035706Y022922D03*
X035706Y023710D03*
D11*
X037081Y023690D03*
X037956Y023690D03*
X038706Y023690D03*
X039456Y023690D03*
X039456Y022942D03*
X038706Y022942D03*
X037956Y022942D03*
X037081Y022942D03*
D12*
X024590Y007652D03*
X022996Y007652D03*
X023033Y006191D03*
X024628Y006191D03*
X024628Y004691D03*
X023033Y004691D03*
D13*
X022081Y006350D03*
X022081Y007531D03*
X025581Y006031D03*
X025581Y004850D03*
X023081Y003781D03*
X023081Y002600D03*
D14*
X034411Y018744D03*
X034411Y020909D03*
X034411Y023074D03*
D15*
X039522Y015858D03*
X039522Y015543D03*
X039522Y015228D03*
X039522Y014913D03*
X039522Y014598D03*
X039522Y014283D03*
X039522Y013968D03*
X039522Y013653D03*
X039522Y013339D03*
X039522Y013024D03*
X039522Y012709D03*
X039522Y012394D03*
X039522Y012079D03*
X039522Y011764D03*
X039522Y011449D03*
X039522Y011134D03*
X039522Y010819D03*
X039522Y010504D03*
D16*
X040996Y011066D03*
X041665Y011066D03*
X041665Y013566D03*
X040996Y013566D03*
X038165Y013691D03*
X037496Y013691D03*
D17*
X040957Y012749D03*
X041705Y012749D03*
X041331Y011883D03*
M02*
