G75*
G70*
%OFA0B0*%
%FSLAX24Y24*%
%IPPOS*%
%LPD*%
%AMOC8*
5,1,8,0,0,1.08239X$1,22.5*
%
%ADD10R,0.1600X0.0600*%
%ADD11OC8,0.0660*%
%ADD12R,0.0630X0.0512*%
%ADD13R,0.0591X0.0512*%
%ADD14OC8,0.0520*%
%ADD15R,0.0709X0.0945*%
%ADD16R,0.0787X0.0591*%
%ADD17R,0.0394X0.1181*%
%ADD18C,0.0860*%
%ADD19C,0.0866*%
%ADD20C,0.0669*%
%ADD21OC8,0.1000*%
%ADD22C,0.0397*%
%ADD23R,0.1929X0.0197*%
%ADD24C,0.0600*%
%ADD25OC8,0.0600*%
%ADD26R,0.0512X0.0591*%
%ADD27R,0.0394X0.0551*%
%ADD28C,0.0700*%
%ADD29C,0.0357*%
%ADD30C,0.0160*%
%ADD31C,0.0180*%
%ADD32C,0.0120*%
%ADD33R,0.0787X0.0787*%
%ADD34C,0.0560*%
D10*
X042632Y004476D03*
X042632Y005476D03*
X042632Y006476D03*
D11*
X042456Y020441D03*
X042456Y021441D03*
X042456Y022441D03*
X042456Y023441D03*
D12*
X035706Y023710D03*
X035706Y022922D03*
D13*
X037081Y022942D03*
X037956Y022942D03*
X038706Y022942D03*
X039456Y022942D03*
X039456Y023690D03*
X038706Y023690D03*
X037956Y023690D03*
X037081Y023690D03*
D14*
X019331Y007441D03*
X020706Y005816D03*
X019331Y004441D03*
X019456Y002816D03*
X020706Y002816D03*
X016456Y002816D03*
X015456Y002816D03*
X012456Y002816D03*
D15*
X023033Y004691D03*
X024628Y004691D03*
X024628Y006191D03*
X023033Y006191D03*
X022996Y007652D03*
X024590Y007652D03*
D16*
X022081Y007531D03*
X022081Y006350D03*
X025581Y006031D03*
X025581Y004850D03*
X023081Y003781D03*
X023081Y002600D03*
D17*
X034411Y018744D03*
X034411Y020909D03*
X034411Y023074D03*
D18*
X020452Y007227D03*
X016318Y004074D03*
D19*
X041523Y016973D03*
X041523Y019729D03*
D20*
X042507Y019336D03*
X042507Y017367D03*
D21*
X038331Y018586D03*
X038331Y021546D03*
D22*
X019706Y021566D03*
X019706Y022066D03*
X019706Y022566D03*
X019706Y023066D03*
X019706Y021066D03*
X019706Y020566D03*
D23*
X039522Y015858D03*
X039522Y015543D03*
X039522Y015228D03*
X039522Y014913D03*
X039522Y014598D03*
X039522Y014283D03*
X039522Y013968D03*
X039522Y013653D03*
X039522Y013339D03*
X039522Y013024D03*
X039522Y012709D03*
X039522Y012394D03*
X039522Y012079D03*
X039522Y011764D03*
X039522Y011449D03*
X039522Y011134D03*
X039522Y010819D03*
X039522Y010504D03*
D24*
X034064Y006450D03*
D25*
X035064Y006450D03*
X035064Y005450D03*
X034064Y005450D03*
X034064Y004450D03*
X035064Y004450D03*
D26*
X040996Y011066D03*
X041665Y011066D03*
X041665Y013566D03*
X040996Y013566D03*
X038165Y013691D03*
X037496Y013691D03*
D27*
X040957Y012749D03*
X041705Y012749D03*
X041331Y011883D03*
D28*
X034831Y018816D03*
X034831Y020941D03*
X034831Y023066D03*
D29*
X034831Y021941D03*
X035831Y021941D03*
X036456Y023816D03*
X039706Y022316D03*
X040831Y021441D03*
X040831Y023316D03*
X041331Y023816D03*
X033581Y019191D03*
X031831Y019676D03*
X031831Y019691D03*
X030081Y019191D03*
X030706Y017691D03*
X028706Y017191D03*
X031706Y015191D03*
X031956Y014691D03*
X032456Y013816D03*
X034831Y013191D03*
X035456Y013191D03*
X036081Y013191D03*
X036081Y012441D03*
X035581Y012066D03*
X036081Y011691D03*
X035581Y011316D03*
X034956Y011316D03*
X033831Y011066D03*
X033331Y011441D03*
X031581Y011441D03*
X030706Y011441D03*
X029706Y010941D03*
X030581Y010441D03*
X029831Y009941D03*
X028456Y009941D03*
X027581Y010441D03*
X028456Y008941D03*
X027831Y008316D03*
X028831Y007941D03*
X030706Y008441D03*
X031206Y009441D03*
X034206Y008441D03*
X034581Y007941D03*
X034956Y008941D03*
X036831Y009941D03*
X037206Y010441D03*
X036831Y010941D03*
X040081Y009066D03*
X040581Y008316D03*
X042581Y010441D03*
X038206Y006441D03*
X036831Y006441D03*
X038206Y004441D03*
X036831Y003691D03*
X038206Y002357D03*
X040081Y005441D03*
X041581Y005441D03*
X028081Y005566D03*
X025331Y004191D03*
X023831Y002941D03*
X025081Y002566D03*
X027956Y002566D03*
X021581Y007941D03*
X020331Y008691D03*
X020081Y009191D03*
X019831Y009691D03*
X021456Y010191D03*
X020581Y010566D03*
X019831Y011316D03*
X019956Y012566D03*
X020706Y012566D03*
X021456Y012565D03*
X023456Y013566D03*
X024581Y013941D03*
X024081Y015066D03*
X021331Y013941D03*
X025831Y012316D03*
X033081Y016441D03*
X033581Y017691D03*
X036831Y017191D03*
X036831Y016566D03*
X036831Y015941D03*
X042581Y015816D03*
X031831Y023441D03*
X024581Y018066D03*
X021081Y020191D03*
X019831Y020191D03*
X020081Y021566D03*
X020081Y022566D03*
X020081Y023566D03*
X015456Y003566D03*
X014206Y003566D03*
D30*
X034956Y011316D02*
X034956Y012066D01*
X035706Y012816D01*
X037581Y012816D01*
X038318Y012079D01*
X039522Y012079D01*
X039522Y011764D02*
X038133Y011764D01*
X037456Y012441D01*
X036081Y012441D01*
X036081Y013191D02*
X037706Y013191D01*
X038188Y012709D01*
X039522Y012709D01*
X039522Y013024D02*
X040913Y013024D01*
X040996Y012941D01*
X040996Y012788D01*
X040957Y012749D01*
X041665Y012788D02*
X041705Y012749D01*
X041705Y012692D01*
X041831Y012566D01*
X042456Y012566D02*
X042581Y012691D01*
X041706Y013606D02*
X041665Y013566D01*
X041706Y013606D02*
X041706Y013941D01*
X041363Y014283D01*
X039522Y014283D01*
X039522Y013968D01*
X039522Y013653D01*
X039522Y013339D02*
X038188Y013339D01*
X038165Y013691D01*
X037496Y013691D02*
X037496Y013526D01*
X037206Y013816D01*
X039522Y014283D02*
X039522Y014598D01*
X041831Y011231D02*
X041665Y011066D01*
X041616Y005476D02*
X041581Y005441D01*
X041616Y005476D02*
X042632Y005476D01*
D31*
X041644Y004810D02*
X041642Y004801D01*
X041642Y004536D01*
X042572Y004536D01*
X042572Y004416D01*
X042692Y004416D01*
X042692Y003986D01*
X042973Y003986D01*
X042973Y002210D01*
X028432Y002210D01*
X028454Y002233D01*
X028544Y002449D01*
X028544Y002683D01*
X028454Y002899D01*
X028289Y003065D01*
X028073Y003154D01*
X027839Y003154D01*
X027625Y003066D01*
X025411Y003066D01*
X025198Y003154D01*
X024964Y003154D01*
X024747Y003065D01*
X024582Y002899D01*
X024492Y002683D01*
X024492Y002449D01*
X024582Y002233D01*
X024604Y002210D01*
X023639Y002210D01*
X023651Y002232D01*
X023664Y002280D01*
X023664Y002543D01*
X023138Y002543D01*
X023138Y002658D01*
X023664Y002658D01*
X023664Y002921D01*
X023651Y002969D01*
X023626Y003012D01*
X023591Y003048D01*
X023548Y003073D01*
X023535Y003076D01*
X023556Y003076D01*
X023707Y003139D01*
X023822Y003254D01*
X023884Y003405D01*
X023884Y004087D01*
X023926Y003986D01*
X024041Y003871D01*
X024192Y003808D01*
X024881Y003808D01*
X024997Y003692D01*
X025214Y003602D01*
X025448Y003602D01*
X025664Y003692D01*
X025829Y003858D01*
X025919Y004074D01*
X025919Y004145D01*
X026056Y004145D01*
X026207Y004207D01*
X026322Y004323D01*
X026384Y004474D01*
X026384Y005227D01*
X026322Y005378D01*
X026259Y005441D01*
X026322Y005504D01*
X026384Y005655D01*
X026384Y006408D01*
X026322Y006559D01*
X026207Y006674D01*
X026056Y006737D01*
X025392Y006737D01*
X025392Y006745D01*
X025330Y006896D01*
X025285Y006940D01*
X025292Y006947D01*
X025355Y007098D01*
X025355Y008206D01*
X025292Y008356D01*
X025177Y008472D01*
X025026Y008534D01*
X024155Y008534D01*
X024004Y008472D01*
X023889Y008356D01*
X023826Y008206D01*
X023826Y007098D01*
X023889Y006947D01*
X023933Y006902D01*
X023926Y006896D01*
X023864Y006745D01*
X023864Y005637D01*
X023926Y005486D01*
X023971Y005441D01*
X023926Y005396D01*
X023864Y005245D01*
X023864Y004208D01*
X023822Y004309D01*
X023798Y004333D01*
X023798Y005245D01*
X023735Y005396D01*
X023690Y005441D01*
X023735Y005486D01*
X023798Y005637D01*
X023798Y006745D01*
X023735Y006896D01*
X023691Y006940D01*
X023698Y006947D01*
X023760Y007098D01*
X023760Y008206D01*
X023698Y008356D01*
X023583Y008472D01*
X023432Y008534D01*
X022560Y008534D01*
X022467Y008496D01*
X022913Y008941D01*
X027867Y008941D01*
X027867Y008904D01*
X027714Y008904D01*
X027497Y008815D01*
X027332Y008649D01*
X027242Y008433D01*
X027242Y008199D01*
X027331Y007985D01*
X027331Y005716D01*
X027407Y005533D01*
X027493Y005446D01*
X027582Y005233D01*
X027747Y005067D01*
X027964Y004977D01*
X028198Y004977D01*
X028414Y005067D01*
X028579Y005233D01*
X028669Y005449D01*
X028669Y005683D01*
X028579Y005899D01*
X028414Y006065D01*
X028331Y006099D01*
X028331Y007610D01*
X028332Y007608D01*
X028497Y007442D01*
X028714Y007352D01*
X028948Y007352D01*
X029161Y007441D01*
X034250Y007441D01*
X034464Y007352D01*
X034698Y007352D01*
X034914Y007442D01*
X035079Y007608D01*
X035169Y007824D01*
X035169Y008058D01*
X035079Y008274D01*
X035001Y008352D01*
X035073Y008352D01*
X035289Y008442D01*
X035454Y008608D01*
X035544Y008824D01*
X035544Y009058D01*
X035454Y009274D01*
X035289Y009440D01*
X035286Y009441D01*
X036500Y009441D01*
X036714Y009352D01*
X036948Y009352D01*
X037164Y009442D01*
X037329Y009608D01*
X037419Y009824D01*
X037419Y010058D01*
X037329Y010274D01*
X037164Y010440D01*
X037161Y010441D01*
X037164Y010442D01*
X037206Y010484D01*
X037294Y010395D01*
X037478Y010319D01*
X038388Y010319D01*
X038405Y010289D01*
X038440Y010253D01*
X038484Y010228D01*
X038532Y010215D01*
X039522Y010215D01*
X040273Y010215D01*
X040157Y010099D01*
X040081Y009915D01*
X040081Y009654D01*
X039964Y009654D01*
X039747Y009565D01*
X039582Y009399D01*
X039492Y009183D01*
X039492Y008949D01*
X039581Y008735D01*
X039581Y005771D01*
X039492Y005558D01*
X039492Y005324D01*
X039582Y005108D01*
X039747Y004942D01*
X039964Y004852D01*
X040198Y004852D01*
X040414Y004942D01*
X040579Y005108D01*
X040669Y005324D01*
X040669Y005558D01*
X040581Y005771D01*
X040581Y007727D01*
X040698Y007727D01*
X040914Y007817D01*
X041079Y007983D01*
X041169Y008199D01*
X041169Y008433D01*
X041081Y008646D01*
X041081Y009609D01*
X041420Y009948D01*
X041496Y010132D01*
X041496Y010435D01*
X041599Y010538D01*
X041617Y010581D01*
X041627Y010581D01*
X041627Y010606D01*
X041662Y010689D01*
X041662Y011028D01*
X041703Y011028D01*
X041703Y010581D01*
X041946Y010581D01*
X041995Y010594D01*
X042038Y010619D01*
X042073Y010654D01*
X042098Y010697D01*
X042111Y010746D01*
X042111Y011028D01*
X041703Y011028D01*
X041703Y011104D01*
X042111Y011104D01*
X042111Y011386D01*
X042098Y011434D01*
X042073Y011478D01*
X042038Y011513D01*
X041995Y011538D01*
X041946Y011551D01*
X041937Y011551D01*
X041937Y012240D01*
X041920Y012283D01*
X041927Y012283D01*
X041975Y012296D01*
X042018Y012321D01*
X042054Y012357D01*
X042079Y012400D01*
X042092Y012448D01*
X042092Y012741D01*
X041713Y012741D01*
X041713Y012757D01*
X042092Y012757D01*
X042092Y013050D01*
X042079Y013098D01*
X042056Y013137D01*
X042073Y013154D01*
X042098Y013197D01*
X042111Y013246D01*
X042111Y013528D01*
X041703Y013528D01*
X041703Y013081D01*
X041713Y013081D01*
X041713Y012757D01*
X041696Y012757D01*
X041696Y012741D01*
X041563Y012741D01*
X041563Y012757D01*
X041696Y012757D01*
X041696Y013215D01*
X041662Y013215D01*
X041662Y013528D01*
X041703Y013528D01*
X041703Y013604D01*
X041662Y013604D01*
X041662Y013943D01*
X041627Y014026D01*
X041627Y014051D01*
X041617Y014051D01*
X041599Y014093D01*
X041484Y014209D01*
X041333Y014271D01*
X040676Y014271D01*
X040676Y014283D01*
X039522Y014283D01*
X039522Y014283D01*
X039522Y014257D01*
X039522Y013968D01*
X039522Y013968D01*
X039522Y014283D01*
X039522Y014283D01*
X040676Y014283D01*
X040676Y014407D01*
X040667Y014441D01*
X040669Y014447D01*
X040718Y014467D01*
X040834Y014583D01*
X040896Y014733D01*
X040896Y016038D01*
X040834Y016189D01*
X040718Y016304D01*
X040568Y016367D01*
X038475Y016367D01*
X038455Y016358D01*
X037745Y016358D01*
X037418Y016686D01*
X037338Y016878D01*
X037419Y017074D01*
X037419Y017308D01*
X037329Y017524D01*
X037164Y017690D01*
X036948Y017779D01*
X036714Y017779D01*
X036500Y017691D01*
X034169Y017691D01*
X034169Y017743D01*
X034233Y017743D01*
X034255Y017733D01*
X034453Y017722D01*
X034515Y017743D01*
X034689Y017743D01*
X034840Y017806D01*
X034955Y017921D01*
X035017Y018070D01*
X035261Y018172D01*
X035475Y018385D01*
X035591Y018665D01*
X035591Y018967D01*
X035475Y019246D01*
X035261Y019460D01*
X034982Y019576D01*
X034946Y019576D01*
X034840Y019682D01*
X034689Y019744D01*
X034132Y019744D01*
X033981Y019682D01*
X033952Y019652D01*
X033914Y019690D01*
X033698Y019779D01*
X033464Y019779D01*
X033250Y019691D01*
X030411Y019691D01*
X030198Y019779D01*
X029964Y019779D01*
X029747Y019690D01*
X029582Y019524D01*
X029492Y019308D01*
X029492Y019074D01*
X029582Y018858D01*
X029747Y018692D01*
X029964Y018602D01*
X030198Y018602D01*
X030411Y018691D01*
X033250Y018691D01*
X033464Y018602D01*
X033698Y018602D01*
X033804Y018646D01*
X033804Y018235D01*
X033698Y018279D01*
X033464Y018279D01*
X033250Y018191D01*
X031036Y018191D01*
X030823Y018279D01*
X030589Y018279D01*
X030372Y018190D01*
X030207Y018024D01*
X030117Y017808D01*
X030117Y017691D01*
X029036Y017691D01*
X028823Y017779D01*
X028589Y017779D01*
X028372Y017690D01*
X028207Y017524D01*
X028117Y017308D01*
X028117Y017074D01*
X028207Y016858D01*
X028372Y016692D01*
X028589Y016602D01*
X028823Y016602D01*
X029036Y016691D01*
X031624Y016691D01*
X030922Y015990D01*
X030782Y015849D01*
X030706Y015665D01*
X030706Y012148D01*
X030114Y012740D01*
X029930Y012816D01*
X026161Y012816D01*
X025948Y012904D01*
X025714Y012904D01*
X025497Y012815D01*
X025332Y012649D01*
X025242Y012433D01*
X025242Y012199D01*
X025332Y011983D01*
X025497Y011817D01*
X025714Y011727D01*
X025948Y011727D01*
X026161Y011816D01*
X029624Y011816D01*
X029972Y011467D01*
X029823Y011529D01*
X029589Y011529D01*
X029372Y011440D01*
X029207Y011274D01*
X029117Y011058D01*
X029117Y010824D01*
X029207Y010608D01*
X029372Y010442D01*
X029462Y010405D01*
X029332Y010274D01*
X029242Y010058D01*
X029242Y009941D01*
X029044Y009941D01*
X029044Y010058D01*
X028954Y010274D01*
X028789Y010440D01*
X028573Y010529D01*
X028339Y010529D01*
X028125Y010441D01*
X022481Y010441D01*
X022297Y010365D01*
X022157Y010224D01*
X022044Y010111D01*
X022044Y010308D01*
X021956Y010521D01*
X021956Y012065D01*
X023429Y012065D01*
X023613Y012141D01*
X024364Y012892D01*
X024505Y013033D01*
X024581Y013216D01*
X024581Y013352D01*
X024698Y013352D01*
X024914Y013442D01*
X025079Y013608D01*
X025169Y013824D01*
X025169Y014058D01*
X025081Y014271D01*
X025081Y017735D01*
X025169Y017949D01*
X025169Y018183D01*
X025079Y018399D01*
X024914Y018565D01*
X024698Y018654D01*
X024464Y018654D01*
X024247Y018565D01*
X024082Y018399D01*
X023992Y018183D01*
X023992Y017949D01*
X024081Y017735D01*
X024081Y015654D01*
X023964Y015654D01*
X023747Y015565D01*
X023582Y015399D01*
X023492Y015183D01*
X023492Y014949D01*
X023581Y014735D01*
X023581Y014151D01*
X023573Y014154D01*
X023339Y014154D01*
X023125Y014066D01*
X021916Y014066D01*
X021829Y014274D01*
X021664Y014440D01*
X021448Y014529D01*
X021214Y014529D01*
X020997Y014440D01*
X020832Y014274D01*
X020743Y014061D01*
X019836Y013153D01*
X019791Y013135D01*
X019791Y019602D01*
X019948Y019602D01*
X020161Y019691D01*
X020750Y019691D01*
X020964Y019602D01*
X021198Y019602D01*
X021414Y019692D01*
X021579Y019858D01*
X021669Y020074D01*
X021669Y020308D01*
X021579Y020524D01*
X021414Y020690D01*
X021198Y020779D01*
X020964Y020779D01*
X020750Y020691D01*
X020312Y020691D01*
X020261Y020816D01*
X020314Y020945D01*
X020314Y021187D01*
X020221Y021411D01*
X020094Y021538D01*
X020094Y021566D01*
X020094Y021594D01*
X020221Y021721D01*
X020314Y021945D01*
X020314Y022187D01*
X020221Y022411D01*
X020094Y022538D01*
X020094Y022566D01*
X020094Y022594D01*
X020221Y022721D01*
X020314Y022945D01*
X020314Y023187D01*
X020221Y023411D01*
X020050Y023582D01*
X019900Y023644D01*
X034024Y023644D01*
X034024Y023083D01*
X034291Y023083D01*
X034291Y023076D01*
X034402Y023076D01*
X034402Y023066D01*
X034024Y023066D01*
X034024Y022459D01*
X034037Y022411D01*
X034062Y022367D01*
X034097Y022332D01*
X034140Y022307D01*
X034189Y022294D01*
X034351Y022294D01*
X034332Y022274D01*
X034242Y022058D01*
X034242Y021910D01*
X034132Y021910D01*
X033981Y021847D01*
X033866Y021732D01*
X033804Y021581D01*
X033804Y020237D01*
X033866Y020086D01*
X033981Y019971D01*
X034132Y019909D01*
X034689Y019909D01*
X034840Y019971D01*
X034955Y020086D01*
X034997Y020187D01*
X035261Y020297D01*
X035475Y020510D01*
X035591Y020790D01*
X035591Y021092D01*
X035475Y021371D01*
X035669Y021371D01*
X035714Y021352D02*
X035948Y021352D01*
X036164Y021442D01*
X036329Y021608D01*
X036419Y021824D01*
X036419Y022058D01*
X036329Y022274D01*
X036269Y022335D01*
X036356Y022422D01*
X036469Y022422D01*
X036553Y022338D01*
X036704Y022276D01*
X037457Y022276D01*
X037518Y022301D01*
X037579Y022276D01*
X037774Y022276D01*
X037421Y021923D01*
X037421Y021169D01*
X037954Y020636D01*
X038708Y020636D01*
X039241Y021169D01*
X039241Y021923D01*
X038887Y022276D01*
X039038Y022276D01*
X039118Y022196D01*
X039207Y021983D01*
X039372Y021817D01*
X039589Y021727D01*
X039823Y021727D01*
X040039Y021817D01*
X040204Y021983D01*
X040294Y022199D01*
X040294Y022433D01*
X040204Y022649D01*
X040161Y022693D01*
X040161Y023279D01*
X040146Y023316D01*
X040242Y023316D01*
X040242Y023199D01*
X040331Y022985D01*
X040331Y021771D01*
X040242Y021558D01*
X040242Y021324D01*
X040332Y021108D01*
X040497Y020942D01*
X040714Y020852D01*
X040948Y020852D01*
X041164Y020942D01*
X041329Y021108D01*
X041419Y021324D01*
X041419Y021558D01*
X041331Y021771D01*
X041331Y022985D01*
X041419Y023199D01*
X041419Y023227D01*
X041448Y023227D01*
X041664Y023317D01*
X041716Y023369D01*
X041716Y023134D01*
X041909Y022941D01*
X041716Y022747D01*
X041716Y022134D01*
X041909Y021941D01*
X041716Y021747D01*
X041716Y021134D01*
X041909Y020941D01*
X041716Y020747D01*
X041716Y020562D01*
X041690Y020572D01*
X041355Y020572D01*
X041045Y020444D01*
X040808Y020207D01*
X040680Y019897D01*
X040680Y019562D01*
X040808Y019252D01*
X041045Y019015D01*
X041355Y018886D01*
X041690Y018886D01*
X041858Y018956D01*
X041876Y018914D01*
X042085Y018704D01*
X042359Y018591D01*
X042655Y018591D01*
X042929Y018704D01*
X042973Y018748D01*
X042973Y017954D01*
X042929Y017998D01*
X042655Y018112D01*
X042359Y018112D01*
X042085Y017998D01*
X041876Y017789D01*
X041858Y017747D01*
X041690Y017816D01*
X041355Y017816D01*
X041045Y017688D01*
X040808Y017451D01*
X040680Y017141D01*
X040680Y016806D01*
X040808Y016496D01*
X041045Y016259D01*
X041355Y016130D01*
X041690Y016130D01*
X042000Y016259D01*
X042237Y016496D01*
X042300Y016647D01*
X042359Y016622D01*
X042655Y016622D01*
X042929Y016736D01*
X042973Y016780D01*
X042973Y006966D01*
X042692Y006966D01*
X042692Y006536D01*
X042572Y006536D01*
X042572Y006416D01*
X041642Y006416D01*
X041642Y006151D01*
X041644Y006142D01*
X041600Y006124D01*
X041505Y006029D01*
X041464Y006029D01*
X041247Y005940D01*
X041082Y005774D01*
X040992Y005558D01*
X040992Y005324D01*
X041082Y005108D01*
X041247Y004942D01*
X041464Y004852D01*
X041576Y004852D01*
X041600Y004829D01*
X041644Y004810D01*
X041642Y004770D02*
X037331Y004770D01*
X037331Y004592D02*
X041642Y004592D01*
X041642Y004416D02*
X041642Y004151D01*
X041655Y004103D01*
X041680Y004060D01*
X041715Y004024D01*
X041758Y003999D01*
X041807Y003986D01*
X042572Y003986D01*
X042572Y004416D01*
X041642Y004416D01*
X041642Y004413D02*
X037331Y004413D01*
X037331Y004235D02*
X041642Y004235D01*
X041683Y004056D02*
X037331Y004056D01*
X037331Y004021D02*
X037331Y006110D01*
X037419Y006324D01*
X037419Y006558D01*
X037329Y006774D01*
X037164Y006940D01*
X036948Y007029D01*
X036714Y007029D01*
X036497Y006940D01*
X036332Y006774D01*
X036242Y006558D01*
X036242Y006324D01*
X036331Y006110D01*
X036331Y004021D01*
X036242Y003808D01*
X036242Y003574D01*
X036332Y003358D01*
X036497Y003192D01*
X036714Y003102D01*
X036948Y003102D01*
X037164Y003192D01*
X037329Y003358D01*
X037419Y003574D01*
X037419Y003808D01*
X037331Y004021D01*
X037390Y003878D02*
X042973Y003878D01*
X042973Y003699D02*
X037419Y003699D01*
X037397Y003521D02*
X042973Y003521D01*
X042973Y003342D02*
X037314Y003342D01*
X037096Y003164D02*
X042973Y003164D01*
X042973Y002985D02*
X028368Y002985D01*
X028493Y002807D02*
X042973Y002807D01*
X042973Y002628D02*
X028544Y002628D01*
X028544Y002450D02*
X042973Y002450D01*
X042973Y002271D02*
X028471Y002271D01*
X027956Y002566D02*
X025081Y002566D01*
X024668Y002985D02*
X023642Y002985D01*
X023664Y002807D02*
X024544Y002807D01*
X024492Y002628D02*
X023138Y002628D01*
X023081Y002600D02*
X023490Y002600D01*
X023831Y002941D01*
X023732Y003164D02*
X036565Y003164D01*
X036347Y003342D02*
X023859Y003342D01*
X023884Y003521D02*
X036264Y003521D01*
X036242Y003699D02*
X025671Y003699D01*
X025838Y003878D02*
X033632Y003878D01*
X033770Y003740D02*
X033354Y004156D01*
X033354Y004744D01*
X033560Y004950D01*
X033354Y005156D01*
X033354Y005744D01*
X033560Y005950D01*
X033462Y006048D01*
X033354Y006309D01*
X033354Y006591D01*
X033462Y006852D01*
X033662Y007052D01*
X033923Y007160D01*
X034205Y007160D01*
X034466Y007052D01*
X034564Y006954D01*
X034770Y007160D01*
X035358Y007160D01*
X035774Y006744D01*
X035774Y006156D01*
X035568Y005950D01*
X035774Y005744D01*
X035774Y005156D01*
X035412Y004794D01*
X035554Y004653D01*
X035554Y004460D01*
X035074Y004460D01*
X035074Y004440D01*
X035554Y004440D01*
X035554Y004247D01*
X035267Y003960D01*
X035074Y003960D01*
X035074Y004440D01*
X035054Y004440D01*
X035054Y003960D01*
X034861Y003960D01*
X034719Y004101D01*
X034358Y003740D01*
X033770Y003740D01*
X034496Y003878D02*
X036271Y003878D01*
X036331Y004056D02*
X035363Y004056D01*
X035542Y004235D02*
X036331Y004235D01*
X036331Y004413D02*
X035554Y004413D01*
X035554Y004592D02*
X036331Y004592D01*
X036331Y004770D02*
X035436Y004770D01*
X035567Y004949D02*
X036331Y004949D01*
X036331Y005127D02*
X035746Y005127D01*
X035774Y005306D02*
X036331Y005306D01*
X036331Y005484D02*
X035774Y005484D01*
X035774Y005663D02*
X036331Y005663D01*
X036331Y005841D02*
X035676Y005841D01*
X035638Y006020D02*
X036331Y006020D01*
X036294Y006198D02*
X035774Y006198D01*
X035774Y006377D02*
X036242Y006377D01*
X036242Y006555D02*
X035774Y006555D01*
X035774Y006734D02*
X036315Y006734D01*
X036470Y006912D02*
X035605Y006912D01*
X035427Y007091D02*
X039581Y007091D01*
X039581Y007269D02*
X028331Y007269D01*
X028331Y007091D02*
X033756Y007091D01*
X033522Y006912D02*
X028331Y006912D01*
X028331Y006734D02*
X033413Y006734D01*
X033354Y006555D02*
X028331Y006555D01*
X028331Y006377D02*
X033354Y006377D01*
X033400Y006198D02*
X028331Y006198D01*
X028459Y006020D02*
X033490Y006020D01*
X033451Y005841D02*
X028603Y005841D01*
X028669Y005663D02*
X033354Y005663D01*
X033354Y005484D02*
X028669Y005484D01*
X028610Y005306D02*
X033354Y005306D01*
X033382Y005127D02*
X028474Y005127D01*
X028081Y005566D02*
X027831Y005816D01*
X027831Y008316D01*
X027278Y008519D02*
X025063Y008519D01*
X025299Y008340D02*
X027242Y008340D01*
X027258Y008162D02*
X025355Y008162D01*
X025355Y007983D02*
X027331Y007983D01*
X027331Y007805D02*
X025355Y007805D01*
X025355Y007626D02*
X027331Y007626D01*
X027331Y007448D02*
X025355Y007448D01*
X025355Y007269D02*
X027331Y007269D01*
X027331Y007091D02*
X025352Y007091D01*
X025313Y006912D02*
X027331Y006912D01*
X027331Y006734D02*
X026063Y006734D01*
X026323Y006555D02*
X027331Y006555D01*
X027331Y006377D02*
X026384Y006377D01*
X026384Y006198D02*
X027331Y006198D01*
X027331Y006020D02*
X026384Y006020D01*
X026384Y005841D02*
X027331Y005841D01*
X027353Y005663D02*
X026384Y005663D01*
X026302Y005484D02*
X027455Y005484D01*
X027551Y005306D02*
X026352Y005306D01*
X026384Y005127D02*
X027687Y005127D01*
X026384Y004949D02*
X033559Y004949D01*
X033380Y004770D02*
X026384Y004770D01*
X026384Y004592D02*
X033354Y004592D01*
X033354Y004413D02*
X026359Y004413D01*
X026234Y004235D02*
X033354Y004235D01*
X033453Y004056D02*
X025912Y004056D01*
X025331Y004191D02*
X024831Y004691D01*
X024628Y004691D01*
X025421Y004691D01*
X025581Y004850D01*
X023864Y004770D02*
X023798Y004770D01*
X023798Y004592D02*
X023864Y004592D01*
X023864Y004413D02*
X023798Y004413D01*
X023853Y004235D02*
X023864Y004235D01*
X023884Y004056D02*
X023897Y004056D01*
X023884Y003878D02*
X024034Y003878D01*
X023884Y003699D02*
X024990Y003699D01*
X023081Y003781D02*
X023033Y003829D01*
X023033Y004691D01*
X023033Y006191D01*
X022240Y006191D01*
X022081Y006350D01*
X021277Y006377D02*
X021092Y006377D01*
X020983Y006486D02*
X020857Y006486D01*
X020928Y006515D01*
X021164Y006751D01*
X021292Y007060D01*
X021292Y007119D01*
X021339Y007004D01*
X021402Y006941D01*
X021339Y006878D01*
X021277Y006727D01*
X021277Y006192D01*
X020983Y006486D01*
X020968Y006555D02*
X021277Y006555D01*
X021280Y006734D02*
X021146Y006734D01*
X021230Y006912D02*
X021374Y006912D01*
X021303Y007091D02*
X021292Y007091D01*
X021990Y007531D02*
X021581Y007941D01*
X021035Y008162D02*
X020591Y008162D01*
X020661Y008191D02*
X021047Y008191D01*
X020992Y008058D01*
X020992Y007875D01*
X020928Y007939D01*
X020619Y008067D01*
X020285Y008067D01*
X019976Y007939D01*
X019878Y007841D01*
X019608Y008111D01*
X019053Y008111D01*
X018661Y007718D01*
X018661Y007163D01*
X019053Y006771D01*
X019608Y006771D01*
X019695Y006858D01*
X019740Y006751D01*
X019976Y006515D01*
X020285Y006387D01*
X020330Y006387D01*
X020036Y006093D01*
X020036Y005538D01*
X020428Y005146D01*
X020983Y005146D01*
X021376Y005538D01*
X021376Y005787D01*
X021455Y005707D01*
X021605Y005645D01*
X022269Y005645D01*
X022269Y005637D01*
X022331Y005486D01*
X022377Y005441D01*
X022331Y005396D01*
X022269Y005245D01*
X022269Y004137D01*
X022277Y004118D01*
X022277Y003405D01*
X022339Y003254D01*
X022455Y003139D01*
X022605Y003076D01*
X022627Y003076D01*
X022614Y003073D01*
X022570Y003048D01*
X022535Y003012D01*
X022510Y002969D01*
X022497Y002921D01*
X022497Y002658D01*
X023023Y002658D01*
X023023Y002543D01*
X022497Y002543D01*
X022497Y002280D01*
X022510Y002232D01*
X022522Y002210D01*
X021048Y002210D01*
X021376Y002538D01*
X021376Y003093D01*
X020983Y003486D01*
X020428Y003486D01*
X020081Y003138D01*
X019733Y003486D01*
X019178Y003486D01*
X018786Y003093D01*
X018786Y002538D01*
X019114Y002210D01*
X016798Y002210D01*
X017126Y002538D01*
X017126Y003093D01*
X016826Y003394D01*
X017030Y003598D01*
X017135Y003851D01*
X018257Y003851D01*
X018257Y010601D01*
X001079Y010601D01*
X001079Y010849D01*
X019331Y010849D01*
X019331Y010021D01*
X019242Y009808D01*
X019242Y009574D01*
X019332Y009358D01*
X019492Y009197D01*
X019492Y009074D01*
X019582Y008858D01*
X019742Y008697D01*
X019742Y008574D01*
X019832Y008358D01*
X019997Y008192D01*
X020214Y008102D01*
X020448Y008102D01*
X020661Y008191D01*
X020821Y007983D02*
X020992Y007983D01*
X020082Y007983D02*
X019736Y007983D01*
X020070Y008162D02*
X018257Y008162D01*
X018257Y008340D02*
X019849Y008340D01*
X019765Y008519D02*
X018257Y008519D01*
X018257Y008697D02*
X019742Y008697D01*
X019574Y008876D02*
X018257Y008876D01*
X018257Y009054D02*
X019500Y009054D01*
X019457Y009233D02*
X018257Y009233D01*
X018257Y009411D02*
X019310Y009411D01*
X019242Y009590D02*
X018257Y009590D01*
X018257Y009768D02*
X019242Y009768D01*
X019300Y009947D02*
X018257Y009947D01*
X018257Y010125D02*
X019331Y010125D01*
X019331Y010304D02*
X018257Y010304D01*
X018257Y010482D02*
X019331Y010482D01*
X019331Y010661D02*
X001079Y010661D01*
X001079Y010839D02*
X019331Y010839D01*
X019831Y011316D02*
X019831Y009691D01*
X020419Y009691D02*
X020419Y009808D01*
X020331Y010021D01*
X020331Y010033D01*
X020464Y009977D01*
X020698Y009977D01*
X020876Y010052D01*
X020957Y009858D01*
X021122Y009692D01*
X021125Y009691D01*
X020419Y009691D01*
X020419Y009768D02*
X021046Y009768D01*
X020920Y009947D02*
X020362Y009947D01*
X021456Y010191D02*
X021456Y012565D01*
X023330Y012565D01*
X024081Y013316D01*
X024081Y015066D01*
X023541Y015302D02*
X019791Y015302D01*
X019791Y015480D02*
X023663Y015480D01*
X023492Y015123D02*
X019791Y015123D01*
X019791Y014945D02*
X023494Y014945D01*
X023568Y014766D02*
X019791Y014766D01*
X019791Y014588D02*
X023581Y014588D01*
X023581Y014409D02*
X021694Y014409D01*
X021847Y014231D02*
X023581Y014231D01*
X024581Y013941D02*
X024581Y018066D01*
X025108Y017801D02*
X030117Y017801D01*
X030188Y017979D02*
X025169Y017979D01*
X025169Y018158D02*
X030340Y018158D01*
X030706Y017691D02*
X033581Y017691D01*
X033804Y018336D02*
X025106Y018336D01*
X024964Y018515D02*
X033804Y018515D01*
X034382Y018226D02*
X034411Y018744D01*
X034758Y018744D01*
X034831Y018816D01*
X035529Y018515D02*
X037421Y018515D01*
X037421Y018693D02*
X035591Y018693D01*
X035591Y018872D02*
X037421Y018872D01*
X037421Y018963D02*
X037421Y018209D01*
X037954Y017676D01*
X038708Y017676D01*
X039241Y018209D01*
X039241Y018963D01*
X038708Y019496D01*
X037954Y019496D01*
X037421Y018963D01*
X037508Y019050D02*
X035556Y019050D01*
X035482Y019229D02*
X037687Y019229D01*
X037865Y019407D02*
X035314Y019407D01*
X034936Y019586D02*
X040680Y019586D01*
X040680Y019764D02*
X033734Y019764D01*
X033428Y019764D02*
X030234Y019764D01*
X029928Y019764D02*
X021486Y019764D01*
X021615Y019943D02*
X034049Y019943D01*
X033852Y020121D02*
X021669Y020121D01*
X021669Y020300D02*
X033804Y020300D01*
X033804Y020478D02*
X021598Y020478D01*
X021447Y020657D02*
X033804Y020657D01*
X033804Y020835D02*
X020269Y020835D01*
X020314Y021014D02*
X033804Y021014D01*
X033804Y021192D02*
X020312Y021192D01*
X020238Y021371D02*
X033804Y021371D01*
X033804Y021549D02*
X020094Y021549D01*
X020094Y021566D02*
X020066Y021566D01*
X020094Y021566D01*
X020081Y021566D02*
X020081Y022566D01*
X020081Y023566D01*
X020119Y023513D02*
X034024Y023513D01*
X034024Y023334D02*
X020253Y023334D01*
X020314Y023156D02*
X034024Y023156D01*
X034024Y022977D02*
X020314Y022977D01*
X020254Y022799D02*
X034024Y022799D01*
X034024Y022620D02*
X020121Y022620D01*
X020094Y022566D02*
X020066Y022566D01*
X020066Y022566D01*
X020066Y022566D01*
X020094Y022566D01*
X020190Y022442D02*
X034028Y022442D01*
X034327Y022263D02*
X020282Y022263D01*
X020314Y022085D02*
X034253Y022085D01*
X034124Y021906D02*
X020298Y021906D01*
X020224Y021728D02*
X033865Y021728D01*
X034831Y021941D02*
X035831Y021941D01*
X036379Y021728D02*
X037421Y021728D01*
X037421Y021906D02*
X036419Y021906D01*
X036408Y022085D02*
X037583Y022085D01*
X037761Y022263D02*
X036334Y022263D01*
X036456Y022922D02*
X035706Y022922D01*
X035744Y023588D02*
X035668Y023588D01*
X035668Y023644D01*
X035744Y023644D01*
X035744Y023588D01*
X035706Y023710D02*
X035474Y023710D01*
X034831Y023066D01*
X034822Y023074D01*
X034411Y023074D01*
X034419Y023076D02*
X034821Y023076D01*
X034821Y023056D01*
X034797Y023056D01*
X034797Y023066D01*
X034419Y023066D01*
X034419Y023076D01*
X034402Y023395D02*
X034402Y023644D01*
X034419Y023644D01*
X034419Y023418D01*
X034419Y023418D01*
X034402Y023395D01*
X034402Y023513D02*
X034419Y023513D01*
X034895Y022529D02*
X034957Y022539D01*
X034995Y022551D01*
X035015Y022501D01*
X034948Y022529D01*
X034895Y022529D01*
X035405Y021441D02*
X035500Y021441D01*
X035714Y021352D01*
X035549Y021192D02*
X037421Y021192D01*
X037421Y021371D02*
X035992Y021371D01*
X036271Y021549D02*
X037421Y021549D01*
X037576Y021014D02*
X035591Y021014D01*
X035591Y020835D02*
X037754Y020835D01*
X037933Y020657D02*
X035536Y020657D01*
X035443Y020478D02*
X041128Y020478D01*
X040901Y020300D02*
X035264Y020300D01*
X034970Y020121D02*
X040772Y020121D01*
X040699Y019943D02*
X034772Y019943D01*
X033581Y019191D02*
X030081Y019191D01*
X029533Y019407D02*
X019791Y019407D01*
X019791Y019229D02*
X029492Y019229D01*
X029502Y019050D02*
X019791Y019050D01*
X019791Y018872D02*
X029576Y018872D01*
X029746Y018693D02*
X019791Y018693D01*
X019791Y018515D02*
X024197Y018515D01*
X024056Y018336D02*
X019791Y018336D01*
X019791Y018158D02*
X023992Y018158D01*
X023992Y017979D02*
X019791Y017979D01*
X019791Y017801D02*
X024054Y017801D01*
X024081Y017622D02*
X019791Y017622D01*
X019791Y017444D02*
X024081Y017444D01*
X024081Y017265D02*
X019791Y017265D01*
X019791Y017087D02*
X024081Y017087D01*
X024081Y016908D02*
X019791Y016908D01*
X019791Y016730D02*
X024081Y016730D01*
X024081Y016551D02*
X019791Y016551D01*
X019791Y016373D02*
X024081Y016373D01*
X024081Y016194D02*
X019791Y016194D01*
X019791Y016016D02*
X024081Y016016D01*
X024081Y015837D02*
X019791Y015837D01*
X019791Y015659D02*
X024081Y015659D01*
X025081Y015659D02*
X030706Y015659D01*
X030706Y015480D02*
X025081Y015480D01*
X025081Y015302D02*
X030706Y015302D01*
X030706Y015123D02*
X025081Y015123D01*
X025081Y014945D02*
X030706Y014945D01*
X030706Y014766D02*
X025081Y014766D01*
X025081Y014588D02*
X030706Y014588D01*
X030706Y014409D02*
X025081Y014409D01*
X025097Y014231D02*
X030706Y014231D01*
X030706Y014052D02*
X025169Y014052D01*
X025169Y013874D02*
X030706Y013874D01*
X030706Y013695D02*
X025116Y013695D01*
X024989Y013517D02*
X030706Y013517D01*
X030706Y013338D02*
X024581Y013338D01*
X024557Y013160D02*
X030706Y013160D01*
X030706Y012981D02*
X024453Y012981D01*
X024275Y012803D02*
X025485Y012803D01*
X025322Y012624D02*
X024096Y012624D01*
X023918Y012446D02*
X025248Y012446D01*
X025242Y012267D02*
X023739Y012267D01*
X023487Y012089D02*
X025288Y012089D01*
X025404Y011910D02*
X021956Y011910D01*
X021956Y011732D02*
X025703Y011732D01*
X025958Y011732D02*
X029708Y011732D01*
X029886Y011553D02*
X021956Y011553D01*
X021956Y011375D02*
X029307Y011375D01*
X029175Y011196D02*
X021956Y011196D01*
X021956Y011018D02*
X029117Y011018D01*
X029117Y010839D02*
X021956Y010839D01*
X021956Y010661D02*
X029185Y010661D01*
X029332Y010482D02*
X028686Y010482D01*
X028925Y010304D02*
X029361Y010304D01*
X029270Y010125D02*
X029016Y010125D01*
X029044Y009947D02*
X029242Y009947D01*
X029831Y009941D02*
X036831Y009941D01*
X037300Y010304D02*
X038396Y010304D01*
X037391Y010125D02*
X040183Y010125D01*
X040094Y009947D02*
X037419Y009947D01*
X037396Y009768D02*
X040081Y009768D01*
X039808Y009590D02*
X037312Y009590D01*
X037090Y009411D02*
X039594Y009411D01*
X039513Y009233D02*
X035472Y009233D01*
X035544Y009054D02*
X039492Y009054D01*
X039522Y008876D02*
X035544Y008876D01*
X035492Y008697D02*
X039581Y008697D01*
X039581Y008519D02*
X035366Y008519D01*
X035013Y008340D02*
X039581Y008340D01*
X039581Y008162D02*
X035126Y008162D01*
X035169Y007983D02*
X039581Y007983D01*
X039581Y007805D02*
X035161Y007805D01*
X035087Y007626D02*
X039581Y007626D01*
X039581Y007448D02*
X034920Y007448D01*
X034701Y007091D02*
X034371Y007091D01*
X034581Y007941D02*
X028831Y007941D01*
X028492Y007448D02*
X028331Y007448D01*
X029161Y008441D02*
X030117Y008441D01*
X030117Y008441D01*
X029161Y008441D01*
X029161Y008441D01*
X028456Y008941D02*
X034956Y008941D01*
X035317Y009411D02*
X036571Y009411D01*
X037206Y010441D02*
X037269Y010504D01*
X039522Y010504D01*
X039522Y010310D02*
X039522Y010215D01*
X039522Y010310D01*
X039522Y010310D01*
X039522Y010304D02*
X039522Y010304D01*
X039522Y010819D02*
X037578Y010819D01*
X037081Y011316D01*
X035581Y011316D01*
X036081Y011691D02*
X037206Y011691D01*
X037763Y011134D01*
X039522Y011134D01*
X039522Y011449D02*
X037948Y011449D01*
X037331Y012066D01*
X035581Y012066D01*
X034367Y011395D02*
X034367Y011308D01*
X034342Y011370D01*
X034367Y011395D01*
X034367Y011375D02*
X034347Y011375D01*
X034419Y011074D02*
X034422Y011066D01*
X034419Y011066D01*
X034419Y011074D01*
X033831Y011066D02*
X033831Y011566D01*
X035456Y013191D01*
X034831Y013191D02*
X033331Y011691D01*
X033331Y011441D01*
X032795Y011196D02*
X032116Y011196D01*
X032079Y011108D02*
X032169Y011324D01*
X032169Y011558D01*
X032079Y011774D01*
X031914Y011940D01*
X031706Y012026D01*
X031706Y014158D01*
X031839Y014102D01*
X031937Y014102D01*
X031867Y013933D01*
X031867Y013699D01*
X031957Y013483D01*
X032122Y013317D01*
X032339Y013227D01*
X032573Y013227D01*
X032786Y013316D01*
X034246Y013316D01*
X034243Y013311D01*
X032907Y011974D01*
X032831Y011790D01*
X032831Y011771D01*
X032742Y011558D01*
X032742Y011324D01*
X032832Y011108D01*
X032873Y011066D01*
X032038Y011066D01*
X032079Y011108D01*
X032169Y011375D02*
X032742Y011375D01*
X032742Y011553D02*
X032169Y011553D01*
X032097Y011732D02*
X032814Y011732D01*
X032880Y011910D02*
X031943Y011910D01*
X031706Y012089D02*
X033022Y012089D01*
X033200Y012267D02*
X031706Y012267D01*
X031706Y012446D02*
X033379Y012446D01*
X033557Y012624D02*
X031706Y012624D01*
X031706Y012803D02*
X033736Y012803D01*
X033914Y012981D02*
X031706Y012981D01*
X031706Y013160D02*
X034093Y013160D01*
X032456Y013816D02*
X037206Y013816D01*
X036990Y014316D02*
X032786Y014316D01*
X032573Y014404D01*
X032474Y014404D01*
X032478Y014413D01*
X038369Y014413D01*
X038367Y014407D01*
X038367Y014396D01*
X037159Y014396D01*
X037008Y014334D01*
X036990Y014316D01*
X038368Y014409D02*
X032476Y014409D01*
X032178Y014913D02*
X031956Y014691D01*
X032178Y014913D02*
X039522Y014913D01*
X039522Y015228D02*
X031743Y015228D01*
X031706Y015191D01*
X031206Y015566D02*
X031206Y011816D01*
X031581Y011441D01*
X031206Y010941D02*
X031581Y010566D01*
X036456Y010566D01*
X036831Y010941D01*
X037204Y010482D02*
X037207Y010482D01*
X034625Y009441D02*
X034625Y009441D01*
X031794Y009441D01*
X034625Y009441D01*
X034206Y008441D02*
X030706Y008441D01*
X031206Y009441D02*
X022706Y009441D01*
X021956Y008691D01*
X020331Y008691D01*
X020081Y009191D02*
X021831Y009191D01*
X022581Y009941D01*
X028456Y009941D01*
X028225Y010482D02*
X021972Y010482D01*
X022044Y010304D02*
X022237Y010304D01*
X022058Y010125D02*
X022044Y010125D01*
X020706Y010691D02*
X020706Y012566D01*
X021706Y013566D01*
X023456Y013566D01*
X023124Y013066D02*
X023123Y013065D01*
X021912Y013065D01*
X021913Y013066D01*
X023124Y013066D01*
X021331Y013941D02*
X019956Y012566D01*
X020206Y012033D02*
X020206Y011773D01*
X020164Y011815D01*
X019948Y011904D01*
X019791Y011904D01*
X019791Y011997D01*
X019839Y011977D01*
X020073Y011977D01*
X020206Y012033D01*
X020206Y011910D02*
X019791Y011910D01*
X018772Y011910D02*
X001681Y011910D01*
X001681Y011868D02*
X001681Y022660D01*
X018772Y022660D01*
X018772Y011868D01*
X001681Y011868D01*
X001681Y012089D02*
X018772Y012089D01*
X018772Y012267D02*
X001681Y012267D01*
X001681Y012446D02*
X018772Y012446D01*
X018772Y012624D02*
X001681Y012624D01*
X001681Y012803D02*
X018772Y012803D01*
X018772Y012981D02*
X001681Y012981D01*
X001681Y013160D02*
X018772Y013160D01*
X018772Y013338D02*
X001681Y013338D01*
X001681Y013517D02*
X018772Y013517D01*
X018772Y013695D02*
X001681Y013695D01*
X001681Y013874D02*
X018772Y013874D01*
X018772Y014052D02*
X001681Y014052D01*
X001681Y014231D02*
X018772Y014231D01*
X018772Y014409D02*
X001681Y014409D01*
X001681Y014588D02*
X018772Y014588D01*
X018772Y014766D02*
X001681Y014766D01*
X001681Y014945D02*
X018772Y014945D01*
X018772Y015123D02*
X010457Y015123D01*
X010423Y015119D02*
X010978Y015192D01*
X010978Y015192D01*
X011496Y015406D01*
X011940Y015747D01*
X012281Y016191D01*
X012281Y016191D01*
X012495Y016709D01*
X012568Y017264D01*
X012495Y017819D01*
X012281Y018336D01*
X012281Y018336D01*
X011940Y018780D01*
X011940Y018780D01*
X011940Y018780D01*
X011496Y019121D01*
X011496Y019121D01*
X010978Y019335D01*
X010423Y019409D01*
X009868Y019335D01*
X009351Y019121D01*
X008907Y018780D01*
X008566Y018336D01*
X008351Y017819D01*
X008351Y017819D01*
X008278Y017264D01*
X008278Y017264D01*
X008351Y016709D01*
X008351Y016709D01*
X008566Y016191D01*
X008907Y015747D01*
X009351Y015406D01*
X009868Y015192D01*
X009868Y015192D01*
X010423Y015119D01*
X010423Y015119D01*
X010389Y015123D02*
X001681Y015123D01*
X001681Y015302D02*
X009603Y015302D01*
X009351Y015406D02*
X009351Y015406D01*
X009254Y015480D02*
X001681Y015480D01*
X001681Y015659D02*
X009022Y015659D01*
X008907Y015747D02*
X008907Y015747D01*
X008907Y015747D01*
X008837Y015837D02*
X001681Y015837D01*
X001681Y016016D02*
X008700Y016016D01*
X008566Y016191D02*
X008566Y016191D01*
X008564Y016194D02*
X001681Y016194D01*
X001681Y016373D02*
X008491Y016373D01*
X008417Y016551D02*
X001681Y016551D01*
X001681Y016730D02*
X008349Y016730D01*
X008325Y016908D02*
X001681Y016908D01*
X001681Y017087D02*
X008302Y017087D01*
X008279Y017265D02*
X001681Y017265D01*
X001681Y017444D02*
X008302Y017444D01*
X008326Y017622D02*
X001681Y017622D01*
X001681Y017801D02*
X008349Y017801D01*
X008418Y017979D02*
X001681Y017979D01*
X001681Y018158D02*
X008492Y018158D01*
X008566Y018336D02*
X008566Y018336D01*
X001681Y018336D01*
X001681Y018515D02*
X008703Y018515D01*
X008840Y018693D02*
X001681Y018693D01*
X001681Y018872D02*
X009026Y018872D01*
X008907Y018780D02*
X008907Y018780D01*
X008907Y018780D01*
X009258Y019050D02*
X001681Y019050D01*
X001681Y019229D02*
X009611Y019229D01*
X009868Y019335D02*
X009868Y019335D01*
X009351Y019121D02*
X009351Y019121D01*
X010414Y019407D02*
X001681Y019407D01*
X001681Y019586D02*
X018772Y019586D01*
X018772Y019764D02*
X001681Y019764D01*
X001681Y019943D02*
X018772Y019943D01*
X018772Y020121D02*
X001681Y020121D01*
X001681Y020300D02*
X018772Y020300D01*
X018772Y020478D02*
X001681Y020478D01*
X001681Y020657D02*
X018772Y020657D01*
X018772Y020835D02*
X001681Y020835D01*
X001681Y021014D02*
X018772Y021014D01*
X018772Y021192D02*
X001681Y021192D01*
X001681Y021371D02*
X018772Y021371D01*
X018772Y021549D02*
X001681Y021549D01*
X001681Y021728D02*
X018772Y021728D01*
X018772Y021906D02*
X001681Y021906D01*
X001681Y022085D02*
X018772Y022085D01*
X018772Y022263D02*
X001681Y022263D01*
X001681Y022442D02*
X018772Y022442D01*
X018772Y022620D02*
X001681Y022620D01*
X009553Y017766D02*
X009713Y017974D01*
X009921Y018134D01*
X010163Y018234D01*
X010423Y018269D01*
X010683Y018234D01*
X010926Y018134D01*
X011134Y017974D01*
X011293Y017766D01*
X011394Y017524D01*
X011428Y017264D01*
X011394Y017004D01*
X011293Y016761D01*
X011134Y016553D01*
X010926Y016394D01*
X010683Y016293D01*
X010423Y016259D01*
X010163Y016293D01*
X009921Y016394D01*
X009713Y016553D01*
X009553Y016761D01*
X009453Y017004D01*
X009418Y017264D01*
X009453Y017524D01*
X009553Y017766D01*
X009580Y017801D02*
X010131Y017801D01*
X010079Y017779D02*
X009908Y017608D01*
X009815Y017385D01*
X009815Y017143D01*
X009908Y016919D01*
X010079Y016748D01*
X010302Y016656D01*
X010544Y016656D01*
X010768Y016748D01*
X010939Y016919D01*
X011031Y017143D01*
X011031Y017385D01*
X010939Y017608D01*
X010768Y017779D01*
X010544Y017872D01*
X010302Y017872D01*
X010079Y017779D01*
X009922Y017622D02*
X009493Y017622D01*
X009442Y017444D02*
X009840Y017444D01*
X009815Y017265D02*
X009419Y017265D01*
X009442Y017087D02*
X009838Y017087D01*
X009919Y016908D02*
X009492Y016908D01*
X009577Y016730D02*
X010123Y016730D01*
X009971Y016373D02*
X010876Y016373D01*
X011131Y016551D02*
X009715Y016551D01*
X010723Y016730D02*
X011269Y016730D01*
X011354Y016908D02*
X010928Y016908D01*
X011008Y017087D02*
X011405Y017087D01*
X011428Y017265D02*
X011031Y017265D01*
X011007Y017444D02*
X011404Y017444D01*
X011353Y017622D02*
X010925Y017622D01*
X010715Y017801D02*
X011267Y017801D01*
X011127Y017979D02*
X009719Y017979D01*
X009979Y018158D02*
X010868Y018158D01*
X012006Y018693D02*
X018772Y018693D01*
X018772Y018515D02*
X012143Y018515D01*
X012280Y018336D02*
X018772Y018336D01*
X018772Y018158D02*
X012354Y018158D01*
X012428Y017979D02*
X018772Y017979D01*
X018772Y017801D02*
X012497Y017801D01*
X012495Y017819D02*
X012495Y017819D01*
X012521Y017622D02*
X018772Y017622D01*
X018772Y017444D02*
X012544Y017444D01*
X012568Y017265D02*
X018772Y017265D01*
X018772Y017087D02*
X012545Y017087D01*
X012521Y016908D02*
X018772Y016908D01*
X018772Y016730D02*
X012498Y016730D01*
X012495Y016709D02*
X012495Y016709D01*
X012430Y016551D02*
X018772Y016551D01*
X018772Y016373D02*
X012356Y016373D01*
X012282Y016194D02*
X018772Y016194D01*
X018772Y016016D02*
X012146Y016016D01*
X012009Y015837D02*
X018772Y015837D01*
X018772Y015659D02*
X011825Y015659D01*
X011940Y015747D02*
X011940Y015747D01*
X011940Y015747D01*
X011592Y015480D02*
X018772Y015480D01*
X018772Y015302D02*
X011244Y015302D01*
X011496Y015406D02*
X011496Y015406D01*
X011820Y018872D02*
X018772Y018872D01*
X018772Y019050D02*
X011588Y019050D01*
X011236Y019229D02*
X018772Y019229D01*
X018772Y019407D02*
X010432Y019407D01*
X010423Y019409D02*
X010423Y019409D01*
X010978Y019335D02*
X010978Y019335D01*
X019468Y023644D02*
X019489Y023635D01*
X019511Y023644D01*
X019468Y023644D01*
X020066Y021566D02*
X020066Y021566D01*
X020066Y021566D01*
X019831Y020191D02*
X021081Y020191D01*
X019791Y019586D02*
X029643Y019586D01*
X031831Y019676D02*
X031831Y023441D01*
X035405Y021441D02*
X035475Y021371D01*
X034831Y020941D02*
X034799Y020909D01*
X034411Y020909D01*
X036456Y022922D02*
X036581Y022922D01*
X037061Y022922D01*
X037081Y022942D01*
X037956Y022942D01*
X038706Y022942D01*
X039456Y022942D01*
X039456Y022566D01*
X039706Y022316D01*
X040247Y022085D02*
X040331Y022085D01*
X040331Y022263D02*
X040294Y022263D01*
X040290Y022442D02*
X040331Y022442D01*
X040331Y022620D02*
X040216Y022620D01*
X040161Y022799D02*
X040331Y022799D01*
X040331Y022977D02*
X040161Y022977D01*
X040161Y023156D02*
X040260Y023156D01*
X040146Y023316D02*
X040146Y023316D01*
X040831Y023316D02*
X040831Y021441D01*
X041365Y021192D02*
X041716Y021192D01*
X041716Y021371D02*
X041419Y021371D01*
X041419Y021549D02*
X041716Y021549D01*
X041716Y021728D02*
X041349Y021728D01*
X041331Y021906D02*
X041875Y021906D01*
X041765Y022085D02*
X041331Y022085D01*
X041331Y022263D02*
X041716Y022263D01*
X041716Y022442D02*
X041331Y022442D01*
X041331Y022620D02*
X041716Y022620D01*
X041767Y022799D02*
X041331Y022799D01*
X041331Y022977D02*
X041873Y022977D01*
X041716Y023156D02*
X041401Y023156D01*
X041681Y023334D02*
X041716Y023334D01*
X041331Y023816D02*
X039582Y023816D01*
X039456Y023690D01*
X038706Y023690D01*
X037956Y023690D01*
X037955Y023690D02*
X037956Y023691D01*
X037955Y023690D02*
X037081Y023690D01*
X036456Y023816D02*
X036456Y022922D01*
X037873Y022859D02*
X037956Y022942D01*
X037924Y022895D01*
X038900Y022263D02*
X039051Y022263D01*
X039079Y022085D02*
X039164Y022085D01*
X039241Y021906D02*
X039283Y021906D01*
X039241Y021728D02*
X039588Y021728D01*
X039824Y021728D02*
X040313Y021728D01*
X040331Y021906D02*
X040128Y021906D01*
X040242Y021549D02*
X039241Y021549D01*
X039241Y021371D02*
X040242Y021371D01*
X040297Y021192D02*
X039241Y021192D01*
X039086Y021014D02*
X040425Y021014D01*
X041236Y021014D02*
X041836Y021014D01*
X041804Y020835D02*
X038907Y020835D01*
X038729Y020657D02*
X041716Y020657D01*
X040743Y019407D02*
X038796Y019407D01*
X038975Y019229D02*
X040831Y019229D01*
X041009Y019050D02*
X039153Y019050D01*
X039241Y018872D02*
X041917Y018872D01*
X042111Y018693D02*
X039241Y018693D01*
X039241Y018515D02*
X042973Y018515D01*
X042973Y018693D02*
X042902Y018693D01*
X042973Y018336D02*
X039241Y018336D01*
X039190Y018158D02*
X042973Y018158D01*
X042973Y017979D02*
X042948Y017979D01*
X042066Y017979D02*
X039011Y017979D01*
X038833Y017801D02*
X041317Y017801D01*
X040979Y017622D02*
X037231Y017622D01*
X037363Y017444D02*
X040805Y017444D01*
X040731Y017265D02*
X037419Y017265D01*
X037419Y017087D02*
X040680Y017087D01*
X040680Y016908D02*
X037351Y016908D01*
X037400Y016730D02*
X040711Y016730D01*
X040785Y016551D02*
X037552Y016551D01*
X037731Y016373D02*
X040931Y016373D01*
X040828Y016194D02*
X041200Y016194D01*
X040896Y016016D02*
X042973Y016016D01*
X042973Y016194D02*
X041845Y016194D01*
X042114Y016373D02*
X042973Y016373D01*
X042973Y016551D02*
X042260Y016551D01*
X042914Y016730D02*
X042973Y016730D01*
X042973Y015837D02*
X040896Y015837D01*
X040896Y015659D02*
X042973Y015659D01*
X042973Y015480D02*
X040896Y015480D01*
X040896Y015302D02*
X042973Y015302D01*
X042973Y015123D02*
X040896Y015123D01*
X040896Y014945D02*
X042973Y014945D01*
X042973Y014766D02*
X040896Y014766D01*
X040836Y014588D02*
X042973Y014588D01*
X042973Y014409D02*
X040675Y014409D01*
X041431Y014231D02*
X042973Y014231D01*
X042973Y014052D02*
X041616Y014052D01*
X041703Y014051D02*
X041703Y013604D01*
X042111Y013604D01*
X042111Y013886D01*
X042098Y013934D01*
X042073Y013978D01*
X042038Y014013D01*
X041995Y014038D01*
X041946Y014051D01*
X041703Y014051D01*
X041703Y013874D02*
X041662Y013874D01*
X041662Y013695D02*
X041703Y013695D01*
X041665Y013566D02*
X041665Y012788D01*
X041696Y012803D02*
X041713Y012803D01*
X041713Y012741D02*
X041713Y012525D01*
X041696Y012532D01*
X041696Y012741D01*
X041713Y012741D01*
X041713Y012624D02*
X041696Y012624D01*
X041831Y012566D02*
X042456Y012566D01*
X042581Y012691D02*
X042581Y015816D01*
X042973Y013874D02*
X042111Y013874D01*
X042111Y013695D02*
X042973Y013695D01*
X042973Y013517D02*
X042111Y013517D01*
X042111Y013338D02*
X042973Y013338D01*
X042973Y013160D02*
X042077Y013160D01*
X042092Y012981D02*
X042973Y012981D01*
X042973Y012803D02*
X042092Y012803D01*
X042092Y012624D02*
X042973Y012624D01*
X042973Y012446D02*
X042091Y012446D01*
X041926Y012267D02*
X042973Y012267D01*
X042973Y012089D02*
X041937Y012089D01*
X041937Y011910D02*
X042973Y011910D01*
X042973Y011732D02*
X041937Y011732D01*
X041937Y011553D02*
X042973Y011553D01*
X042973Y011375D02*
X042111Y011375D01*
X042111Y011196D02*
X042973Y011196D01*
X042973Y011018D02*
X042111Y011018D01*
X042111Y010839D02*
X042973Y010839D01*
X042973Y010661D02*
X042077Y010661D01*
X041703Y010661D02*
X041650Y010661D01*
X041662Y010839D02*
X041703Y010839D01*
X041703Y011018D02*
X041662Y011018D01*
X041831Y011231D02*
X041831Y012566D01*
X042581Y012691D02*
X042581Y010441D01*
X042973Y010482D02*
X041543Y010482D01*
X041496Y010304D02*
X042973Y010304D01*
X042973Y010125D02*
X041493Y010125D01*
X041419Y009947D02*
X042973Y009947D01*
X042973Y009768D02*
X041240Y009768D01*
X041081Y009590D02*
X042973Y009590D01*
X042973Y009411D02*
X041081Y009411D01*
X041081Y009233D02*
X042973Y009233D01*
X042973Y009054D02*
X041081Y009054D01*
X041081Y008876D02*
X042973Y008876D01*
X042973Y008697D02*
X041081Y008697D01*
X041133Y008519D02*
X042973Y008519D01*
X042973Y008340D02*
X041169Y008340D01*
X041154Y008162D02*
X042973Y008162D01*
X042973Y007983D02*
X041080Y007983D01*
X040885Y007805D02*
X042973Y007805D01*
X042973Y007626D02*
X040581Y007626D01*
X040581Y007448D02*
X042973Y007448D01*
X042973Y007269D02*
X040581Y007269D01*
X040581Y007091D02*
X042973Y007091D01*
X042692Y006912D02*
X042572Y006912D01*
X042572Y006966D02*
X041807Y006966D01*
X041758Y006953D01*
X041715Y006928D01*
X041680Y006893D01*
X041655Y006850D01*
X041642Y006801D01*
X041642Y006536D01*
X042572Y006536D01*
X042572Y006966D01*
X042572Y006734D02*
X042692Y006734D01*
X042692Y006555D02*
X042572Y006555D01*
X041642Y006555D02*
X040581Y006555D01*
X040581Y006377D02*
X041642Y006377D01*
X041642Y006198D02*
X040581Y006198D01*
X040581Y006020D02*
X041441Y006020D01*
X041149Y005841D02*
X040581Y005841D01*
X040626Y005663D02*
X041036Y005663D01*
X040992Y005484D02*
X040669Y005484D01*
X040662Y005306D02*
X041000Y005306D01*
X041074Y005127D02*
X040588Y005127D01*
X040421Y004949D02*
X041241Y004949D01*
X040081Y005441D02*
X040081Y009066D01*
X040581Y009816D02*
X040581Y008316D01*
X040581Y006912D02*
X041699Y006912D01*
X041642Y006734D02*
X040581Y006734D01*
X039581Y006734D02*
X037346Y006734D01*
X037419Y006555D02*
X039581Y006555D01*
X039581Y006377D02*
X037419Y006377D01*
X037367Y006198D02*
X039581Y006198D01*
X039581Y006020D02*
X037331Y006020D01*
X037331Y005841D02*
X039581Y005841D01*
X039536Y005663D02*
X037331Y005663D01*
X037331Y005484D02*
X039492Y005484D01*
X039500Y005306D02*
X037331Y005306D01*
X037331Y005127D02*
X039574Y005127D01*
X039741Y004949D02*
X037331Y004949D01*
X038206Y004441D02*
X038206Y002357D01*
X036831Y003691D02*
X036831Y006441D01*
X037191Y006912D02*
X039581Y006912D01*
X038206Y006441D02*
X038206Y004441D01*
X035074Y004413D02*
X035054Y004413D01*
X035054Y004235D02*
X035074Y004235D01*
X035074Y004056D02*
X035054Y004056D01*
X034764Y004056D02*
X034675Y004056D01*
X042572Y004056D02*
X042692Y004056D01*
X042692Y004235D02*
X042572Y004235D01*
X042572Y004413D02*
X042692Y004413D01*
X040581Y009816D02*
X040996Y010231D01*
X040996Y011066D01*
X040996Y011548D01*
X041331Y011883D01*
X040996Y012941D02*
X040996Y013566D01*
X041662Y013517D02*
X041703Y013517D01*
X041703Y013338D02*
X041662Y013338D01*
X041696Y013160D02*
X041703Y013160D01*
X041696Y012981D02*
X041713Y012981D01*
X039522Y014052D02*
X039522Y014052D01*
X039522Y014231D02*
X039522Y014231D01*
X039522Y015543D02*
X037228Y015543D01*
X036831Y015941D01*
X036282Y015728D02*
X032075Y015728D01*
X032288Y015941D01*
X032750Y015941D01*
X032964Y015852D01*
X033198Y015852D01*
X033414Y015942D01*
X033579Y016108D01*
X033669Y016324D01*
X033669Y016558D01*
X033614Y016691D01*
X036246Y016691D01*
X036242Y016683D01*
X036242Y016449D01*
X036323Y016253D01*
X036242Y016058D01*
X036242Y015824D01*
X036282Y015728D01*
X036242Y015837D02*
X032184Y015837D01*
X032081Y016441D02*
X031206Y015566D01*
X030777Y015837D02*
X025081Y015837D01*
X025081Y016016D02*
X030949Y016016D01*
X031127Y016194D02*
X025081Y016194D01*
X025081Y016373D02*
X031306Y016373D01*
X031484Y016551D02*
X025081Y016551D01*
X025081Y016730D02*
X028334Y016730D01*
X028186Y016908D02*
X025081Y016908D01*
X025081Y017087D02*
X028117Y017087D01*
X028117Y017265D02*
X025081Y017265D01*
X025081Y017444D02*
X028174Y017444D01*
X028305Y017622D02*
X025081Y017622D01*
X028706Y017191D02*
X036831Y017191D01*
X036831Y016566D02*
X037538Y015858D01*
X039522Y015858D01*
X037829Y017801D02*
X034828Y017801D01*
X034979Y017979D02*
X037650Y017979D01*
X037472Y018158D02*
X035228Y018158D01*
X035426Y018336D02*
X037421Y018336D01*
X036242Y016551D02*
X033669Y016551D01*
X033669Y016373D02*
X036274Y016373D01*
X036299Y016194D02*
X033615Y016194D01*
X033488Y016016D02*
X036242Y016016D01*
X033081Y016441D02*
X032081Y016441D01*
X031917Y014052D02*
X031706Y014052D01*
X031706Y013874D02*
X031867Y013874D01*
X031869Y013695D02*
X031706Y013695D01*
X031706Y013517D02*
X031943Y013517D01*
X032101Y013338D02*
X031706Y013338D01*
X030706Y012803D02*
X029962Y012803D01*
X030229Y012624D02*
X030706Y012624D01*
X030706Y012446D02*
X030408Y012446D01*
X030586Y012267D02*
X030706Y012267D01*
X030706Y011441D02*
X029831Y012316D01*
X025831Y012316D01*
X027581Y010441D02*
X030581Y010441D01*
X030999Y010441D02*
X030161Y010441D01*
X030161Y010441D01*
X030999Y010441D01*
X030999Y010441D01*
X031206Y010941D02*
X029706Y010941D01*
X031794Y009441D02*
X031794Y009441D01*
X027645Y008876D02*
X022848Y008876D01*
X022669Y008697D02*
X027380Y008697D01*
X024628Y007614D02*
X024590Y007652D01*
X024628Y007614D02*
X024628Y006191D01*
X025421Y006191D01*
X025581Y006031D01*
X023864Y006020D02*
X023798Y006020D01*
X023798Y006198D02*
X023864Y006198D01*
X023864Y006377D02*
X023798Y006377D01*
X023798Y006555D02*
X023864Y006555D01*
X023864Y006734D02*
X023798Y006734D01*
X023719Y006912D02*
X023923Y006912D01*
X023829Y007091D02*
X023758Y007091D01*
X023760Y007269D02*
X023826Y007269D01*
X023826Y007448D02*
X023760Y007448D01*
X023760Y007626D02*
X023826Y007626D01*
X023826Y007805D02*
X023760Y007805D01*
X023760Y007983D02*
X023826Y007983D01*
X023826Y008162D02*
X023760Y008162D01*
X023704Y008340D02*
X023882Y008340D01*
X024118Y008519D02*
X023468Y008519D01*
X022524Y008519D02*
X022491Y008519D01*
X022270Y008298D02*
X022245Y008237D01*
X022166Y008237D01*
X022239Y008267D01*
X022270Y008298D01*
X022201Y007652D02*
X022081Y007531D01*
X021990Y007531D01*
X022201Y007652D02*
X022996Y007652D01*
X021277Y006198D02*
X021271Y006198D01*
X021376Y005663D02*
X021562Y005663D01*
X021322Y005484D02*
X022333Y005484D01*
X022294Y005306D02*
X021143Y005306D01*
X020268Y005306D02*
X018257Y005306D01*
X018257Y005484D02*
X020090Y005484D01*
X020036Y005663D02*
X018257Y005663D01*
X018257Y005841D02*
X020036Y005841D01*
X020036Y006020D02*
X018257Y006020D01*
X018257Y006198D02*
X020141Y006198D01*
X020319Y006377D02*
X018257Y006377D01*
X018257Y006555D02*
X019936Y006555D01*
X019757Y006734D02*
X018257Y006734D01*
X018257Y006912D02*
X018912Y006912D01*
X018733Y007091D02*
X018257Y007091D01*
X018257Y007269D02*
X018661Y007269D01*
X018661Y007448D02*
X018257Y007448D01*
X018257Y007626D02*
X018661Y007626D01*
X018747Y007805D02*
X018257Y007805D01*
X018257Y007983D02*
X018926Y007983D01*
X023798Y005841D02*
X023864Y005841D01*
X023864Y005663D02*
X023798Y005663D01*
X023733Y005484D02*
X023928Y005484D01*
X023889Y005306D02*
X023772Y005306D01*
X023798Y005127D02*
X023864Y005127D01*
X023864Y004949D02*
X023798Y004949D01*
X022269Y004949D02*
X019770Y004949D01*
X019608Y005111D02*
X019053Y005111D01*
X018661Y004718D01*
X018661Y004163D01*
X019053Y003771D01*
X019608Y003771D01*
X020001Y004163D01*
X020001Y004718D01*
X019608Y005111D01*
X019949Y004770D02*
X022269Y004770D01*
X022269Y004592D02*
X020001Y004592D01*
X020001Y004413D02*
X022269Y004413D01*
X022269Y004235D02*
X020001Y004235D01*
X019894Y004056D02*
X022277Y004056D01*
X022277Y003878D02*
X019715Y003878D01*
X018946Y003878D02*
X018257Y003878D01*
X018257Y004056D02*
X018768Y004056D01*
X018661Y004235D02*
X018257Y004235D01*
X018257Y004413D02*
X018661Y004413D01*
X018661Y004592D02*
X018257Y004592D01*
X018257Y004770D02*
X018713Y004770D01*
X018891Y004949D02*
X018257Y004949D01*
X018257Y005127D02*
X022269Y005127D01*
X022277Y003699D02*
X017072Y003699D01*
X016953Y003521D02*
X022277Y003521D01*
X022303Y003342D02*
X021127Y003342D01*
X021305Y003164D02*
X022429Y003164D01*
X022519Y002985D02*
X021376Y002985D01*
X021376Y002807D02*
X022497Y002807D01*
X023023Y002628D02*
X021376Y002628D01*
X021287Y002450D02*
X022497Y002450D01*
X022499Y002271D02*
X021109Y002271D01*
X020364Y002210D02*
X020081Y002493D01*
X019798Y002210D01*
X020364Y002210D01*
X020303Y002271D02*
X019859Y002271D01*
X020037Y002450D02*
X020124Y002450D01*
X019053Y002271D02*
X016859Y002271D01*
X017037Y002450D02*
X018874Y002450D01*
X018786Y002628D02*
X017126Y002628D01*
X017126Y002807D02*
X018786Y002807D01*
X018786Y002985D02*
X017126Y002985D01*
X017055Y003164D02*
X018856Y003164D01*
X019035Y003342D02*
X016877Y003342D01*
X015992Y003300D02*
X015984Y003303D01*
X015975Y003283D01*
X015992Y003300D01*
X015456Y003566D02*
X014206Y003566D01*
X013661Y003342D02*
X012877Y003342D01*
X012733Y003486D02*
X012178Y003486D01*
X011786Y003093D01*
X011786Y002538D01*
X012114Y002210D01*
X001079Y002210D01*
X001079Y003851D01*
X013687Y003851D01*
X013617Y003683D01*
X013617Y003449D01*
X013707Y003233D01*
X013872Y003067D01*
X014089Y002977D01*
X014323Y002977D01*
X014536Y003066D01*
X015069Y003066D01*
X015006Y003002D01*
X015006Y002816D01*
X015456Y002816D01*
X015456Y002366D01*
X015642Y002366D01*
X015800Y002524D01*
X016114Y002210D01*
X012798Y002210D01*
X013126Y002538D01*
X013126Y003093D01*
X012733Y003486D01*
X013055Y003164D02*
X013776Y003164D01*
X014070Y002985D02*
X013126Y002985D01*
X013126Y002807D02*
X015006Y002807D01*
X015006Y002816D02*
X015006Y002629D01*
X015269Y002366D01*
X015456Y002366D01*
X015456Y002816D01*
X015456Y002816D01*
X015456Y002816D01*
X015006Y002816D01*
X015006Y002985D02*
X014342Y002985D01*
X015007Y002628D02*
X013126Y002628D01*
X013037Y002450D02*
X015185Y002450D01*
X015456Y002450D02*
X015456Y002450D01*
X015456Y002628D02*
X015456Y002628D01*
X015456Y002807D02*
X015456Y002807D01*
X015726Y002450D02*
X015874Y002450D01*
X016053Y002271D02*
X012859Y002271D01*
X012053Y002271D02*
X001079Y002271D01*
X001079Y002450D02*
X011874Y002450D01*
X011786Y002628D02*
X001079Y002628D01*
X001079Y002807D02*
X011786Y002807D01*
X011786Y002985D02*
X001079Y002985D01*
X001079Y003164D02*
X011856Y003164D01*
X012035Y003342D02*
X001079Y003342D01*
X001079Y003521D02*
X013617Y003521D01*
X013624Y003699D02*
X001079Y003699D01*
X019877Y003342D02*
X020285Y003342D01*
X020106Y003164D02*
X020055Y003164D01*
X023664Y002450D02*
X024492Y002450D01*
X024566Y002271D02*
X023662Y002271D01*
X020581Y010566D02*
X020706Y010691D01*
X019843Y013160D02*
X019791Y013160D01*
X019791Y013338D02*
X020021Y013338D01*
X020200Y013517D02*
X019791Y013517D01*
X019791Y013695D02*
X020378Y013695D01*
X020557Y013874D02*
X019791Y013874D01*
X019791Y014052D02*
X020735Y014052D01*
X020814Y014231D02*
X019791Y014231D01*
X019791Y014409D02*
X020967Y014409D01*
X036041Y013316D02*
X036830Y013316D01*
X036830Y013314D01*
X036833Y013306D01*
X036044Y013306D01*
X036044Y013308D01*
X036041Y013316D01*
X041728Y017801D02*
X041888Y017801D01*
D32*
X037956Y023690D02*
X037956Y023691D01*
D33*
X000974Y001319D03*
X000974Y024547D03*
X043100Y024547D03*
X043100Y001319D03*
D34*
X015443Y004665D03*
X015443Y009783D03*
X002057Y009783D03*
X002057Y004665D03*
M02*
