G75*
G70*
%OFA0B0*%
%FSLAX24Y24*%
%IPPOS*%
%LPD*%
%AMOC8*
5,1,8,0,0,1.08239X$1,22.5*
%
%ADD10R,0.1600X0.0600*%
%ADD11R,0.0512X0.0630*%
%ADD12R,0.0630X0.0512*%
%ADD13R,0.0470X0.0220*%
%ADD14R,0.0220X0.0470*%
%ADD15R,0.0512X0.0591*%
%ADD16R,0.0315X0.0472*%
%ADD17R,0.0137X0.0550*%
%ADD18R,0.0551X0.0157*%
%ADD19R,0.0748X0.0787*%
%ADD20R,0.0748X0.0866*%
%ADD21R,0.0472X0.0472*%
%ADD22R,0.0591X0.0512*%
%ADD23R,0.0472X0.0315*%
%ADD24R,0.0630X0.0906*%
%ADD25R,0.0394X0.0551*%
%ADD26R,0.0394X0.0315*%
%ADD27R,0.0709X0.0945*%
%ADD28R,0.0551X0.0394*%
%ADD29R,0.0394X0.0591*%
%ADD30C,0.0630*%
%ADD31C,0.0540*%
%ADD32R,0.0138X0.0197*%
%ADD33R,0.0512X0.0276*%
%ADD34R,0.0551X0.0315*%
%ADD35C,0.0600*%
%ADD36R,0.0591X0.0945*%
%ADD37R,0.0790X0.0590*%
%ADD38R,0.0790X0.1500*%
%ADD39R,0.0579X0.0500*%
%ADD40R,0.0800X0.1400*%
D10*
X042632Y007572D03*
X042632Y009572D03*
D11*
X040526Y018572D03*
X039738Y018572D03*
X024276Y012072D03*
X023488Y012072D03*
X022776Y012072D03*
X021988Y012072D03*
X022988Y023697D03*
X023776Y023697D03*
D12*
X025382Y025554D03*
X025382Y026341D03*
X029429Y026273D03*
X029429Y025486D03*
X033632Y025841D03*
X033632Y025054D03*
X036257Y025554D03*
X036257Y026341D03*
X023007Y011466D03*
X023007Y010679D03*
X017382Y006591D03*
X017382Y005804D03*
X013632Y005804D03*
X013632Y006591D03*
X011757Y006591D03*
X011757Y005804D03*
X010309Y012594D03*
X010309Y013381D03*
X035257Y006591D03*
X035257Y005804D03*
D13*
X032703Y011210D03*
X032703Y011525D03*
X032703Y011840D03*
X032703Y012155D03*
X032703Y012470D03*
X032703Y012785D03*
X032703Y013100D03*
X032703Y013415D03*
X032703Y013730D03*
X032703Y014045D03*
X032703Y014360D03*
X032703Y014675D03*
X032703Y014990D03*
X032703Y015305D03*
X032703Y015620D03*
X032703Y015934D03*
X026561Y015934D03*
X026561Y015620D03*
X026561Y015305D03*
X026561Y014990D03*
X026561Y014675D03*
X026561Y014360D03*
X026561Y014045D03*
X026561Y013730D03*
X026561Y013415D03*
X026561Y013100D03*
X026561Y012785D03*
X026561Y012470D03*
X026561Y012155D03*
X026561Y011840D03*
X026561Y011525D03*
X026561Y011210D03*
D14*
X027270Y010501D03*
X027585Y010501D03*
X027900Y010501D03*
X028215Y010501D03*
X028529Y010501D03*
X028844Y010501D03*
X029159Y010501D03*
X029474Y010501D03*
X029789Y010501D03*
X030104Y010501D03*
X030419Y010501D03*
X030734Y010501D03*
X031049Y010501D03*
X031364Y010501D03*
X031679Y010501D03*
X031994Y010501D03*
X031994Y016643D03*
X031679Y016643D03*
X031364Y016643D03*
X031049Y016643D03*
X030734Y016643D03*
X030419Y016643D03*
X030104Y016643D03*
X029789Y016643D03*
X029474Y016643D03*
X029159Y016643D03*
X028844Y016643D03*
X028529Y016643D03*
X028215Y016643D03*
X027900Y016643D03*
X027585Y016643D03*
X027270Y016643D03*
D15*
X030258Y022072D03*
X031006Y022072D03*
X031006Y026197D03*
X030258Y026197D03*
X031758Y026197D03*
X032506Y026197D03*
X037758Y019822D03*
X038506Y019822D03*
X039383Y019822D03*
X040131Y019822D03*
X041508Y012947D03*
X042256Y012947D03*
X033006Y007947D03*
X032258Y007947D03*
X020841Y025947D03*
X020172Y025947D03*
D16*
X037402Y018572D03*
X038111Y018572D03*
X042027Y018822D03*
X042736Y018822D03*
D17*
X040420Y017762D03*
X040164Y017762D03*
X039908Y017762D03*
X039652Y017762D03*
X039397Y017762D03*
X039141Y017762D03*
X038885Y017762D03*
X038629Y017762D03*
X038373Y017762D03*
X038117Y017762D03*
X037861Y017762D03*
X037605Y017762D03*
X037349Y017762D03*
X037093Y017762D03*
X037093Y014883D03*
X037349Y014883D03*
X037605Y014883D03*
X037861Y014883D03*
X038117Y014883D03*
X038373Y014883D03*
X038629Y014883D03*
X038885Y014883D03*
X039141Y014883D03*
X039397Y014883D03*
X039652Y014883D03*
X039908Y014883D03*
X040164Y014883D03*
X040420Y014883D03*
D18*
X041260Y015560D03*
X041260Y015816D03*
X041260Y016072D03*
X041260Y016328D03*
X041260Y016584D03*
D19*
X042382Y016564D03*
X042382Y015580D03*
D20*
X042382Y014497D03*
X042382Y017647D03*
D21*
X040170Y020572D03*
X039343Y020572D03*
X038795Y020572D03*
X037968Y020572D03*
D22*
X033132Y017907D03*
X033132Y017238D03*
X030382Y019198D03*
X030382Y019946D03*
X031882Y022073D03*
X031882Y022821D03*
X031507Y024573D03*
X031507Y025321D03*
X037132Y025071D03*
X037132Y024323D03*
X037132Y026073D03*
X038007Y026073D03*
X038007Y026821D03*
X037132Y026821D03*
X038882Y026821D03*
X038882Y026073D03*
X039757Y026073D03*
X039757Y026821D03*
X041507Y026196D03*
X041507Y025448D03*
X041507Y024571D03*
X041507Y023823D03*
X026132Y008157D03*
X026132Y007488D03*
X026132Y006532D03*
X026132Y005863D03*
X018132Y005823D03*
X018132Y006571D03*
X012507Y007448D03*
X012507Y008196D03*
X010132Y008196D03*
X010132Y007448D03*
X010757Y006571D03*
X010757Y005823D03*
X014382Y012698D03*
X014382Y013446D03*
X012632Y013198D03*
X012632Y013946D03*
D23*
X040632Y013302D03*
X040632Y012593D03*
D24*
X029007Y007937D03*
X029007Y005457D03*
D25*
X009133Y005764D03*
X009881Y005764D03*
X009507Y006630D03*
X024383Y006389D03*
X025131Y006389D03*
X024757Y007255D03*
X026883Y006630D03*
X027631Y006630D03*
X027257Y005764D03*
X030258Y022889D03*
X031006Y022889D03*
X030632Y023755D03*
D26*
X027651Y007697D03*
X026863Y007697D03*
D27*
X023429Y006197D03*
X021835Y006197D03*
D28*
X011690Y007822D03*
X010824Y007448D03*
X010824Y008196D03*
X030324Y020698D03*
X030324Y021446D03*
X031190Y021072D03*
X033949Y017946D03*
X034815Y017572D03*
X033949Y017198D03*
X030815Y024573D03*
X029949Y024947D03*
X030815Y025321D03*
D29*
X036672Y010861D03*
X037460Y010861D03*
X038247Y010861D03*
X039034Y010861D03*
X039822Y010861D03*
X040609Y010861D03*
X041397Y010861D03*
X041397Y005900D03*
X040609Y005900D03*
X039822Y005900D03*
X039034Y005900D03*
X038247Y005900D03*
X037460Y005900D03*
X036672Y005900D03*
D30*
X008803Y007725D02*
X008803Y007795D01*
X008873Y007795D01*
X008873Y007725D01*
X008803Y007725D01*
X008804Y009693D02*
X008804Y009763D01*
X008874Y009763D01*
X008874Y009693D01*
X008804Y009693D01*
X008804Y011661D02*
X008804Y011731D01*
X008874Y011731D01*
X008874Y011661D01*
X008804Y011661D01*
X003261Y011663D02*
X003261Y011733D01*
X003331Y011733D01*
X003331Y011663D01*
X003261Y011663D01*
X003259Y009760D02*
X003259Y009690D01*
X003259Y009760D02*
X003329Y009760D01*
X003329Y009690D01*
X003259Y009690D01*
X003264Y007794D02*
X003264Y007724D01*
X003264Y007794D02*
X003334Y007794D01*
X003334Y007724D01*
X003264Y007724D01*
D31*
X010023Y008869D02*
X010083Y008869D01*
X010023Y008869D02*
X010023Y008929D01*
X010083Y008929D01*
X010083Y008869D01*
X010083Y009869D02*
X010023Y009869D01*
X010023Y009929D01*
X010083Y009929D01*
X010083Y009869D01*
X010083Y010869D02*
X010023Y010869D01*
X010023Y010929D01*
X010083Y010929D01*
X010083Y010869D01*
X010083Y011869D02*
X010023Y011869D01*
X010023Y011929D01*
X010083Y011929D01*
X010083Y011869D01*
D32*
X011068Y012711D03*
X011324Y012711D03*
X011580Y012711D03*
X011836Y012711D03*
X011836Y013518D03*
X011580Y013518D03*
X011324Y013518D03*
X011068Y013518D03*
D33*
X037924Y023822D03*
X037924Y024322D03*
X037924Y024822D03*
X037924Y025322D03*
X040090Y025322D03*
X040090Y024822D03*
X040090Y024322D03*
X040090Y023822D03*
D34*
X027787Y025107D03*
X027787Y026287D03*
D35*
X026219Y025797D02*
X026219Y025597D01*
X026219Y025797D02*
X027055Y025797D01*
X027055Y025597D01*
X026219Y025597D01*
D36*
X027174Y023322D03*
X029340Y023322D03*
D37*
X024622Y024537D03*
X024622Y025437D03*
X024622Y026337D03*
D38*
X022142Y025447D03*
D39*
X026007Y024419D03*
X026007Y022726D03*
D40*
X023632Y007697D03*
X021632Y007697D03*
M02*
