%
M48
M72
T01C0.0236
T02C0.0240
T03C0.0315
T04C0.0320
T05C0.0354
T06C0.0400
T07C0.0472
T08C0.1550
%
T01
X974Y4415
X2044Y7716
X9547Y8413
X14257Y6572
X15507Y6572
X15436Y7716
X20382Y11572
X20882Y12572
X21382Y13072
X19507Y13197
X19507Y14572
X20382Y15322
X20382Y15947
X21382Y15947
X25882Y14697
X27234Y13550
X28507Y13072
X29882Y13072
X29757Y14072
X29632Y14697
X31007Y14572
X31632Y14572
X31007Y13550
X31257Y12572
X30382Y11572
X28882Y11072
X28507Y12072
X31239Y9572
X32007Y9072
X32382Y8572
X31007Y8197
X30007Y8197
X28007Y8697
X27007Y8697
X28007Y5697
X25132Y5697
X33757Y9072
X34882Y11072
X34132Y11572
X36444Y12072
X37132Y13072
X37132Y14072
X39007Y13697
X40007Y13697
X41632Y13697
X40507Y12197
X39007Y9947
X38632Y9572
X40007Y9447
X40507Y8947
X40007Y8572
X41632Y8572
X34007Y14697
X33382Y14822
X31007Y15947
X31632Y19072
X31199Y20072
X33382Y19572
X34007Y18947
X36632Y20072
X34382Y21322
X35507Y22822
X33757Y24197
X34382Y24572
X34382Y25572
X33757Y26447
X32132Y24197
X32507Y22822
X28507Y26447
X21507Y26572
X20757Y25447
X20132Y24947
X21507Y23947
X20132Y23197
X20757Y22197
X9547Y13350
X15436Y12924
X2044Y12924
X974Y27643
X40632Y26197
X43100Y27643
X40632Y23822
X41632Y18697
T02
X24132Y11322
X22132Y11322
T03
X20452Y10323
X16318Y7170
X35507Y10572
X35507Y11572
X35507Y12572
X35507Y13572
X35507Y14572
X35507Y15572
X35507Y16572
X35507Y17572
X35507Y18572
X35507Y19572
X35507Y20572
X35507Y21572
X42507Y22432
X42507Y20463
T04
X42507Y23572
X42507Y24572
X42507Y25572
X42507Y26572
X19382Y10447
X19382Y7447
X20257Y7447
X19382Y6072
X20257Y5447
X16382Y6072
X15507Y5822
X12507Y5822
X25257Y9072
X25257Y10072
T05
X43100Y4415
T06
X34257Y6072
X33257Y6072
X32257Y6072
X31257Y6072
X30257Y6072
X30257Y7072
X31257Y7072
X32257Y7072
X33257Y7072
X34257Y7072
X19507Y20947
X19507Y21947
X19507Y22947
X19507Y23947
X19507Y24947
X19507Y25947
X35257Y25822
X35257Y24822
X35257Y23822
X36902Y21947
X39862Y21947
T07
X41523Y22825
X41523Y20069
T08
X13678Y9399
M30
